solid OpenSCAD_Model
  facet normal -1 0 0
    outer loop
      vertex -93 -14 -1
      vertex -93 -13.9233 1
      vertex -93 -13.9233 -1
    endloop
  endfacet
  facet normal -1 -0 0
    outer loop
      vertex -93 -13.9233 1
      vertex -93 -14 -1
      vertex -93 -14 1
    endloop
  endfacet
  facet normal -1 0 0
    outer loop
      vertex -93 13.9233 -1
      vertex -93 14 1
      vertex -93 14 -1
    endloop
  endfacet
  facet normal -1 -0 0
    outer loop
      vertex -93 14 1
      vertex -93 13.9233 -1
      vertex -93 13.9233 1
    endloop
  endfacet
  facet normal -0 0 1
    outer loop
      vertex -93.4981 -3.46437 1
      vertex -93 -13.9233 1
      vertex -91.5461 -3.18371 1
    endloop
  endfacet
  facet normal 0 0 1
    outer loop
      vertex -93.4981 -3.46437 1
      vertex -94.4634 -13.9233 1
      vertex -93 -13.9233 1
    endloop
  endfacet
  facet normal 0 0 1
    outer loop
      vertex -100 -12.1244 1
      vertex -93.4981 -3.46437 1
      vertex -95.292 -2.64512 1
    endloop
  endfacet
  facet normal 0 0 1
    outer loop
      vertex -104.326 -8.22899 1
      vertex -95.292 -2.64512 1
      vertex -96.3582 -0.986063 1
    endloop
  endfacet
  facet normal 0 0 1
    outer loop
      vertex -93.4981 -3.46437 1
      vertex -97.3262 -13.3148 1
      vertex -94.4634 -13.9233 1
    endloop
  endfacet
  facet normal -0 0 1
    outer loop
      vertex -104.326 8.22899 1
      vertex -95.292 2.64512 1
      vertex -102.368 10.404 1
    endloop
  endfacet
  facet normal 0 0 1
    outer loop
      vertex -95.292 2.64512 1
      vertex -104.326 8.22899 1
      vertex -96.3582 0.986063 1
    endloop
  endfacet
  facet normal 0 0 1
    outer loop
      vertex -93.4981 -3.46437 1
      vertex -100 -12.1244 1
      vertex -97.3262 -13.3148 1
    endloop
  endfacet
  facet normal -0 0 1
    outer loop
      vertex -105.79 5.69431 1
      vertex -96.3582 0.986063 1
      vertex -104.326 8.22899 1
    endloop
  endfacet
  facet normal 0 0 1
    outer loop
      vertex -95.292 -2.64512 1
      vertex -102.368 -10.404 1
      vertex -100 -12.1244 1
    endloop
  endfacet
  facet normal -0 0 1
    outer loop
      vertex -106.694 2.91076 1
      vertex -96.3582 0.986063 1
      vertex -105.79 5.69431 1
    endloop
  endfacet
  facet normal 0 0 1
    outer loop
      vertex -95.292 -2.64512 1
      vertex -104.326 -8.22899 1
      vertex -102.368 -10.404 1
    endloop
  endfacet
  facet normal 0 0 1
    outer loop
      vertex -107 0 1
      vertex -96.3582 0.986063 1
      vertex -106.694 2.91076 1
    endloop
  endfacet
  facet normal 0 0 1
    outer loop
      vertex -96.3582 -0.986063 1
      vertex -105.79 -5.69431 1
      vertex -104.326 -8.22899 1
    endloop
  endfacet
  facet normal 0 0 1
    outer loop
      vertex -96.3582 0.986063 1
      vertex -107 0 1
      vertex -96.3582 -0.986063 1
    endloop
  endfacet
  facet normal 0 0 1
    outer loop
      vertex -96.3582 -0.986063 1
      vertex -106.694 -2.91076 1
      vertex -105.79 -5.69431 1
    endloop
  endfacet
  facet normal 0 0 1
    outer loop
      vertex -96.3582 -0.986063 1
      vertex -107 0 1
      vertex -106.694 -2.91076 1
    endloop
  endfacet
  facet normal -0 0 1
    outer loop
      vertex -79.05 -2 1
      vertex -13.95 -6.4 1
      vertex -13.95 -2 1
    endloop
  endfacet
  facet normal 0 0 1
    outer loop
      vertex -13.95 -6.4 1
      vertex -79.05 -2 1
      vertex -79.05 -6.4 1
    endloop
  endfacet
  facet normal -0 0 1
    outer loop
      vertex -79.05 6.4 1
      vertex -13.95 2 1
      vertex -13.95 6.4 1
    endloop
  endfacet
  facet normal 0 0 1
    outer loop
      vertex -13.95 2 1
      vertex -79.05 6.4 1
      vertex -79.05 2 1
    endloop
  endfacet
  facet normal 0 0 1
    outer loop
      vertex -13.95 10.4 1
      vertex 0 13.9233 1
      vertex 0 14 1
    endloop
  endfacet
  facet normal 0 0 1
    outer loop
      vertex 0 13.9233 1
      vertex -2.29201 2.64512 1
      vertex -0.498101 3.46437 1
    endloop
  endfacet
  facet normal 0 0 1
    outer loop
      vertex 0 13.9233 1
      vertex -13.95 10.4 1
      vertex -2.29201 2.64512 1
    endloop
  endfacet
  facet normal 0 0 1
    outer loop
      vertex -2.29201 2.64512 1
      vertex -13.95 6.4 1
      vertex -3.35822 0.986063 1
    endloop
  endfacet
  facet normal -0 0 1
    outer loop
      vertex -13.95 6.4 1
      vertex -2.29201 2.64512 1
      vertex -13.95 10.4 1
    endloop
  endfacet
  facet normal 0 0 1
    outer loop
      vertex 0 14 1
      vertex -79.05 10.4 1
      vertex -13.95 10.4 1
    endloop
  endfacet
  facet normal 0 0 1
    outer loop
      vertex -91.5461 3.18371 1
      vertex -79.05 6.4 1
      vertex -79.05 10.4 1
    endloop
  endfacet
  facet normal 0 0 1
    outer loop
      vertex -79.05 6.4 1
      vertex -90.0556 1.89224 1
      vertex -79.05 2 1
    endloop
  endfacet
  facet normal 0 -0 1
    outer loop
      vertex -89.5 0 1
      vertex -79.05 2 1
      vertex -90.0556 1.89224 1
    endloop
  endfacet
  facet normal -0 0 1
    outer loop
      vertex -90.0556 -1.89224 1
      vertex -79.05 -2 1
      vertex -89.5 0 1
    endloop
  endfacet
  facet normal 0 0 1
    outer loop
      vertex -79.05 -2 1
      vertex -90.0556 -1.89224 1
      vertex -79.05 -6.4 1
    endloop
  endfacet
  facet normal 0 0 1
    outer loop
      vertex -79.05 2 1
      vertex -89.5 0 1
      vertex -79.05 -2 1
    endloop
  endfacet
  facet normal 0 0 1
    outer loop
      vertex -79.05 6.4 1
      vertex -91.5461 3.18371 1
      vertex -90.0556 1.89224 1
    endloop
  endfacet
  facet normal -0 0 1
    outer loop
      vertex -93 14 1
      vertex -79.05 10.4 1
      vertex 0 14 1
    endloop
  endfacet
  facet normal -0 0 1
    outer loop
      vertex -93 13.9233 1
      vertex -79.05 10.4 1
      vertex -93 14 1
    endloop
  endfacet
  facet normal 0 0 1
    outer loop
      vertex -79.05 10.4 1
      vertex -93 13.9233 1
      vertex -91.5461 3.18371 1
    endloop
  endfacet
  facet normal 0 0 1
    outer loop
      vertex -93 13.9233 1
      vertex -93.4981 3.46437 1
      vertex -91.5461 3.18371 1
    endloop
  endfacet
  facet normal -0 0 1
    outer loop
      vertex -94.4634 13.9233 1
      vertex -93.4981 3.46437 1
      vertex -93 13.9233 1
    endloop
  endfacet
  facet normal -0 0 1
    outer loop
      vertex -97.3262 13.3148 1
      vertex -93.4981 3.46437 1
      vertex -94.4634 13.9233 1
    endloop
  endfacet
  facet normal -0 0 1
    outer loop
      vertex -100 12.1244 1
      vertex -93.4981 3.46437 1
      vertex -97.3262 13.3148 1
    endloop
  endfacet
  facet normal -0 0 1
    outer loop
      vertex -102.368 10.404 1
      vertex -95.292 2.64512 1
      vertex -100 12.1244 1
    endloop
  endfacet
  facet normal 0 0 1
    outer loop
      vertex -93.4981 3.46437 1
      vertex -100 12.1244 1
      vertex -95.292 2.64512 1
    endloop
  endfacet
  facet normal 0 0 1
    outer loop
      vertex 3.5 0 1
      vertex 14 0 1
      vertex 13.6941 2.91076 1
    endloop
  endfacet
  facet normal 0 0 1
    outer loop
      vertex 2.94439 1.89224 1
      vertex 13.6941 2.91076 1
      vertex 12.7896 5.69431 1
    endloop
  endfacet
  facet normal 0 0 1
    outer loop
      vertex 14 0 1
      vertex 3.5 0 1
      vertex 13.6941 -2.91076 1
    endloop
  endfacet
  facet normal 0 0 1
    outer loop
      vertex 2.94439 1.89224 1
      vertex 12.7896 5.69431 1
      vertex 11.3262 8.22899 1
    endloop
  endfacet
  facet normal -0 0 1
    outer loop
      vertex 2.94439 -1.89224 1
      vertex 13.6941 -2.91076 1
      vertex 3.5 0 1
    endloop
  endfacet
  facet normal 0 0 1
    outer loop
      vertex 2.94439 1.89224 1
      vertex 11.3262 8.22899 1
      vertex 9.36783 10.404 1
    endloop
  endfacet
  facet normal 0 0 1
    outer loop
      vertex 13.6941 -2.91076 1
      vertex 2.94439 -1.89224 1
      vertex 12.7896 -5.69431 1
    endloop
  endfacet
  facet normal 0 0 1
    outer loop
      vertex 1.45395 3.18371 1
      vertex 9.36783 10.404 1
      vertex 7 12.1244 1
    endloop
  endfacet
  facet normal 0 0 1
    outer loop
      vertex 12.7896 -5.69431 1
      vertex 2.94439 -1.89224 1
      vertex 11.3262 -8.22899 1
    endloop
  endfacet
  facet normal 0 0 1
    outer loop
      vertex 1.45395 3.18371 1
      vertex 7 12.1244 1
      vertex 4.32624 13.3148 1
    endloop
  endfacet
  facet normal 0 0 1
    outer loop
      vertex 11.3262 -8.22899 1
      vertex 2.94439 -1.89224 1
      vertex 9.36783 -10.404 1
    endloop
  endfacet
  facet normal -0 0 1
    outer loop
      vertex 1.45395 -3.18371 1
      vertex 9.36783 -10.404 1
      vertex 2.94439 -1.89224 1
    endloop
  endfacet
  facet normal 0 0 1
    outer loop
      vertex 13.6941 2.91076 1
      vertex 2.94439 1.89224 1
      vertex 3.5 0 1
    endloop
  endfacet
  facet normal 0 0 1
    outer loop
      vertex 1.45395 3.18371 1
      vertex 4.32624 13.3148 1
      vertex 1.4634 13.9233 1
    endloop
  endfacet
  facet normal 0 0 1
    outer loop
      vertex 9.36783 10.404 1
      vertex 1.45395 3.18371 1
      vertex 2.94439 1.89224 1
    endloop
  endfacet
  facet normal 0 0 1
    outer loop
      vertex -0.498101 3.46437 1
      vertex 1.4634 13.9233 1
      vertex 0 13.9233 1
    endloop
  endfacet
  facet normal 0 0 1
    outer loop
      vertex 1.4634 13.9233 1
      vertex -0.498101 3.46437 1
      vertex 1.45395 3.18371 1
    endloop
  endfacet
  facet normal 0 0 1
    outer loop
      vertex 9.36783 -10.404 1
      vertex 1.45395 -3.18371 1
      vertex 7 -12.1244 1
    endloop
  endfacet
  facet normal 0 0 1
    outer loop
      vertex 7 -12.1244 1
      vertex 1.45395 -3.18371 1
      vertex 4.32624 -13.3148 1
    endloop
  endfacet
  facet normal 0 0 1
    outer loop
      vertex 4.32624 -13.3148 1
      vertex 1.45395 -3.18371 1
      vertex 1.4634 -13.9233 1
    endloop
  endfacet
  facet normal -0 0 1
    outer loop
      vertex -0.498101 -3.46437 1
      vertex 1.4634 -13.9233 1
      vertex 1.45395 -3.18371 1
    endloop
  endfacet
  facet normal 0 0 1
    outer loop
      vertex 1.4634 -13.9233 1
      vertex -0.498101 -3.46437 1
      vertex 0 -13.9233 1
    endloop
  endfacet
  facet normal 0 0 1
    outer loop
      vertex -2.29201 -2.64512 1
      vertex 0 -13.9233 1
      vertex -0.498101 -3.46437 1
    endloop
  endfacet
  facet normal -0 0 1
    outer loop
      vertex -13.95 -10.4 1
      vertex 0 -13.9233 1
      vertex -2.29201 -2.64512 1
    endloop
  endfacet
  facet normal 0 0 1
    outer loop
      vertex -13.95 -6.4 1
      vertex -2.29201 -2.64512 1
      vertex -3.35822 -0.986063 1
    endloop
  endfacet
  facet normal -0 0 1
    outer loop
      vertex -13.95 2 1
      vertex -3.35822 0.986063 1
      vertex -13.95 6.4 1
    endloop
  endfacet
  facet normal 0 0 1
    outer loop
      vertex -3.35822 0.986063 1
      vertex -13.95 2 1
      vertex -3.35822 -0.986063 1
    endloop
  endfacet
  facet normal 0 0 1
    outer loop
      vertex -13.95 -2 1
      vertex -3.35822 -0.986063 1
      vertex -13.95 2 1
    endloop
  endfacet
  facet normal 0 0 1
    outer loop
      vertex -13.95 -6.4 1
      vertex -3.35822 -0.986063 1
      vertex -13.95 -2 1
    endloop
  endfacet
  facet normal 0 0 1
    outer loop
      vertex -2.29201 -2.64512 1
      vertex -13.95 -6.4 1
      vertex -13.95 -10.4 1
    endloop
  endfacet
  facet normal 0 0 1
    outer loop
      vertex 0 -13.9233 1
      vertex -13.95 -10.4 1
      vertex 0 -14 1
    endloop
  endfacet
  facet normal -0 0 1
    outer loop
      vertex -79.05 -10.4 1
      vertex 0 -14 1
      vertex -13.95 -10.4 1
    endloop
  endfacet
  facet normal -0 0 1
    outer loop
      vertex -91.5461 -3.18371 1
      vertex -79.05 -6.4 1
      vertex -90.0556 -1.89224 1
    endloop
  endfacet
  facet normal 0 0 1
    outer loop
      vertex -79.05 -6.4 1
      vertex -91.5461 -3.18371 1
      vertex -79.05 -10.4 1
    endloop
  endfacet
  facet normal 0 0 1
    outer loop
      vertex -93 -13.9233 1
      vertex -79.05 -10.4 1
      vertex -91.5461 -3.18371 1
    endloop
  endfacet
  facet normal 0 0 1
    outer loop
      vertex -93 -14 1
      vertex -79.05 -10.4 1
      vertex -93 -13.9233 1
    endloop
  endfacet
  facet normal 0 0 1
    outer loop
      vertex -79.05 -10.4 1
      vertex -93 -14 1
      vertex 0 -14 1
    endloop
  endfacet
  facet normal 1 -0 0
    outer loop
      vertex 0 -14 1
      vertex 0 -13.9233 -1
      vertex 0 -13.9233 1
    endloop
  endfacet
  facet normal 1 0 0
    outer loop
      vertex 0 -13.9233 -1
      vertex 0 -14 1
      vertex 0 -14 -1
    endloop
  endfacet
  facet normal 1 -0 0
    outer loop
      vertex 0 13.9233 1
      vertex 0 14 -1
      vertex 0 14 1
    endloop
  endfacet
  facet normal 1 0 0
    outer loop
      vertex 0 14 -1
      vertex 0 13.9233 1
      vertex 0 13.9233 -1
    endloop
  endfacet
  facet normal 0 1 -0
    outer loop
      vertex 0 14 -1
      vertex -93 14 1
      vertex 0 14 1
    endloop
  endfacet
  facet normal 0 1 0
    outer loop
      vertex -93 14 1
      vertex 0 14 -1
      vertex -93 14 -1
    endloop
  endfacet
  facet normal 0 0 -1
    outer loop
      vertex -93.4981 3.46437 -1
      vertex -93 13.9233 -1
      vertex -91.5461 3.18371 -1
    endloop
  endfacet
  facet normal 0 0 -1
    outer loop
      vertex -93.4981 3.46437 -1
      vertex -94.4634 13.9233 -1
      vertex -93 13.9233 -1
    endloop
  endfacet
  facet normal 0 0 -1
    outer loop
      vertex -100 12.1244 -1
      vertex -93.4981 3.46437 -1
      vertex -95.292 2.64512 -1
    endloop
  endfacet
  facet normal 0 0 -1
    outer loop
      vertex -104.326 8.22899 -1
      vertex -95.292 2.64512 -1
      vertex -96.3582 0.986063 -1
    endloop
  endfacet
  facet normal 0 0 -1
    outer loop
      vertex -93.4981 3.46437 -1
      vertex -97.3262 13.3148 -1
      vertex -94.4634 13.9233 -1
    endloop
  endfacet
  facet normal 0 0 -1
    outer loop
      vertex -104.326 -8.22899 -1
      vertex -95.292 -2.64512 -1
      vertex -102.368 -10.404 -1
    endloop
  endfacet
  facet normal -0 0 -1
    outer loop
      vertex -95.292 -2.64512 -1
      vertex -104.326 -8.22899 -1
      vertex -96.3582 -0.986063 -1
    endloop
  endfacet
  facet normal 0 0 -1
    outer loop
      vertex -93.4981 3.46437 -1
      vertex -100 12.1244 -1
      vertex -97.3262 13.3148 -1
    endloop
  endfacet
  facet normal 0 0 -1
    outer loop
      vertex -105.79 -5.69431 -1
      vertex -96.3582 -0.986063 -1
      vertex -104.326 -8.22899 -1
    endloop
  endfacet
  facet normal 0 0 -1
    outer loop
      vertex -95.292 2.64512 -1
      vertex -102.368 10.404 -1
      vertex -100 12.1244 -1
    endloop
  endfacet
  facet normal 0 0 -1
    outer loop
      vertex -106.694 -2.91076 -1
      vertex -96.3582 -0.986063 -1
      vertex -105.79 -5.69431 -1
    endloop
  endfacet
  facet normal 0 0 -1
    outer loop
      vertex -95.292 2.64512 -1
      vertex -104.326 8.22899 -1
      vertex -102.368 10.404 -1
    endloop
  endfacet
  facet normal 0 0 -1
    outer loop
      vertex -107 0 -1
      vertex -96.3582 -0.986063 -1
      vertex -106.694 -2.91076 -1
    endloop
  endfacet
  facet normal 0 0 -1
    outer loop
      vertex -96.3582 0.986063 -1
      vertex -105.79 5.69431 -1
      vertex -104.326 8.22899 -1
    endloop
  endfacet
  facet normal 0 0 -1
    outer loop
      vertex -96.3582 -0.986063 -1
      vertex -107 0 -1
      vertex -96.3582 0.986063 -1
    endloop
  endfacet
  facet normal 0 0 -1
    outer loop
      vertex -96.3582 0.986063 -1
      vertex -106.694 2.91076 -1
      vertex -105.79 5.69431 -1
    endloop
  endfacet
  facet normal -0 0 -1
    outer loop
      vertex -96.3582 0.986063 -1
      vertex -107 0 -1
      vertex -106.694 2.91076 -1
    endloop
  endfacet
  facet normal 0 0 -1
    outer loop
      vertex -79.05 2 -1
      vertex -13.95 6.4 -1
      vertex -13.95 2 -1
    endloop
  endfacet
  facet normal -0 0 -1
    outer loop
      vertex -13.95 6.4 -1
      vertex -79.05 2 -1
      vertex -79.05 6.4 -1
    endloop
  endfacet
  facet normal 0 0 -1
    outer loop
      vertex -79.05 -6.4 -1
      vertex -13.95 -2 -1
      vertex -13.95 -6.4 -1
    endloop
  endfacet
  facet normal -0 0 -1
    outer loop
      vertex -13.95 -2 -1
      vertex -79.05 -6.4 -1
      vertex -79.05 -2 -1
    endloop
  endfacet
  facet normal 0 0 -1
    outer loop
      vertex -13.95 -10.4 -1
      vertex 0 -13.9233 -1
      vertex 0 -14 -1
    endloop
  endfacet
  facet normal 0 0 -1
    outer loop
      vertex 0 -13.9233 -1
      vertex -2.29201 -2.64512 -1
      vertex -0.498101 -3.46437 -1
    endloop
  endfacet
  facet normal 0 0 -1
    outer loop
      vertex 0 -13.9233 -1
      vertex -13.95 -10.4 -1
      vertex -2.29201 -2.64512 -1
    endloop
  endfacet
  facet normal -0 0 -1
    outer loop
      vertex -2.29201 -2.64512 -1
      vertex -13.95 -6.4 -1
      vertex -3.35822 -0.986063 -1
    endloop
  endfacet
  facet normal 0 0 -1
    outer loop
      vertex -13.95 -6.4 -1
      vertex -2.29201 -2.64512 -1
      vertex -13.95 -10.4 -1
    endloop
  endfacet
  facet normal 0 0 -1
    outer loop
      vertex 0 -14 -1
      vertex -79.05 -10.4 -1
      vertex -13.95 -10.4 -1
    endloop
  endfacet
  facet normal 0 0 -1
    outer loop
      vertex -91.5461 -3.18371 -1
      vertex -79.05 -6.4 -1
      vertex -79.05 -10.4 -1
    endloop
  endfacet
  facet normal 0 0 -1
    outer loop
      vertex -79.05 -6.4 -1
      vertex -90.0556 -1.89224 -1
      vertex -79.05 -2 -1
    endloop
  endfacet
  facet normal 0 -0 -1
    outer loop
      vertex -89.5 0 -1
      vertex -79.05 -2 -1
      vertex -90.0556 -1.89224 -1
    endloop
  endfacet
  facet normal 0 0 -1
    outer loop
      vertex -90.0556 1.89224 -1
      vertex -79.05 2 -1
      vertex -89.5 0 -1
    endloop
  endfacet
  facet normal -0 0 -1
    outer loop
      vertex -79.05 2 -1
      vertex -90.0556 1.89224 -1
      vertex -79.05 6.4 -1
    endloop
  endfacet
  facet normal 0 0 -1
    outer loop
      vertex -79.05 -2 -1
      vertex -89.5 0 -1
      vertex -79.05 2 -1
    endloop
  endfacet
  facet normal 0 0 -1
    outer loop
      vertex -79.05 -6.4 -1
      vertex -91.5461 -3.18371 -1
      vertex -90.0556 -1.89224 -1
    endloop
  endfacet
  facet normal 0 0 -1
    outer loop
      vertex -93 -14 -1
      vertex -79.05 -10.4 -1
      vertex 0 -14 -1
    endloop
  endfacet
  facet normal 0 0 -1
    outer loop
      vertex -93 -13.9233 -1
      vertex -79.05 -10.4 -1
      vertex -93 -14 -1
    endloop
  endfacet
  facet normal -0 0 -1
    outer loop
      vertex -79.05 -10.4 -1
      vertex -93 -13.9233 -1
      vertex -91.5461 -3.18371 -1
    endloop
  endfacet
  facet normal 0 0 -1
    outer loop
      vertex -93 -13.9233 -1
      vertex -93.4981 -3.46437 -1
      vertex -91.5461 -3.18371 -1
    endloop
  endfacet
  facet normal 0 0 -1
    outer loop
      vertex -94.4634 -13.9233 -1
      vertex -93.4981 -3.46437 -1
      vertex -93 -13.9233 -1
    endloop
  endfacet
  facet normal 0 0 -1
    outer loop
      vertex -97.3262 -13.3148 -1
      vertex -93.4981 -3.46437 -1
      vertex -94.4634 -13.9233 -1
    endloop
  endfacet
  facet normal 0 0 -1
    outer loop
      vertex -100 -12.1244 -1
      vertex -93.4981 -3.46437 -1
      vertex -97.3262 -13.3148 -1
    endloop
  endfacet
  facet normal 0 0 -1
    outer loop
      vertex -102.368 -10.404 -1
      vertex -95.292 -2.64512 -1
      vertex -100 -12.1244 -1
    endloop
  endfacet
  facet normal -0 0 -1
    outer loop
      vertex -93.4981 -3.46437 -1
      vertex -100 -12.1244 -1
      vertex -95.292 -2.64512 -1
    endloop
  endfacet
  facet normal 0 0 -1
    outer loop
      vertex 3.5 0 -1
      vertex 14 0 -1
      vertex 13.6941 -2.91076 -1
    endloop
  endfacet
  facet normal 0 0 -1
    outer loop
      vertex 2.94439 -1.89224 -1
      vertex 13.6941 -2.91076 -1
      vertex 12.7896 -5.69431 -1
    endloop
  endfacet
  facet normal 0 0 -1
    outer loop
      vertex 14 0 -1
      vertex 3.5 0 -1
      vertex 13.6941 2.91076 -1
    endloop
  endfacet
  facet normal 0 0 -1
    outer loop
      vertex 2.94439 -1.89224 -1
      vertex 12.7896 -5.69431 -1
      vertex 11.3262 -8.22899 -1
    endloop
  endfacet
  facet normal 0 0 -1
    outer loop
      vertex 2.94439 1.89224 -1
      vertex 13.6941 2.91076 -1
      vertex 3.5 0 -1
    endloop
  endfacet
  facet normal 0 0 -1
    outer loop
      vertex 2.94439 -1.89224 -1
      vertex 11.3262 -8.22899 -1
      vertex 9.36783 -10.404 -1
    endloop
  endfacet
  facet normal -0 0 -1
    outer loop
      vertex 13.6941 2.91076 -1
      vertex 2.94439 1.89224 -1
      vertex 12.7896 5.69431 -1
    endloop
  endfacet
  facet normal 0 0 -1
    outer loop
      vertex 1.45395 -3.18371 -1
      vertex 9.36783 -10.404 -1
      vertex 7 -12.1244 -1
    endloop
  endfacet
  facet normal -0 0 -1
    outer loop
      vertex 12.7896 5.69431 -1
      vertex 2.94439 1.89224 -1
      vertex 11.3262 8.22899 -1
    endloop
  endfacet
  facet normal 0 0 -1
    outer loop
      vertex 1.45395 -3.18371 -1
      vertex 7 -12.1244 -1
      vertex 4.32624 -13.3148 -1
    endloop
  endfacet
  facet normal -0 0 -1
    outer loop
      vertex 11.3262 8.22899 -1
      vertex 2.94439 1.89224 -1
      vertex 9.36783 10.404 -1
    endloop
  endfacet
  facet normal 0 0 -1
    outer loop
      vertex 1.45395 3.18371 -1
      vertex 9.36783 10.404 -1
      vertex 2.94439 1.89224 -1
    endloop
  endfacet
  facet normal 0 0 -1
    outer loop
      vertex 13.6941 -2.91076 -1
      vertex 2.94439 -1.89224 -1
      vertex 3.5 0 -1
    endloop
  endfacet
  facet normal 0 0 -1
    outer loop
      vertex 1.45395 -3.18371 -1
      vertex 4.32624 -13.3148 -1
      vertex 1.4634 -13.9233 -1
    endloop
  endfacet
  facet normal 0 0 -1
    outer loop
      vertex 9.36783 -10.404 -1
      vertex 1.45395 -3.18371 -1
      vertex 2.94439 -1.89224 -1
    endloop
  endfacet
  facet normal 0 0 -1
    outer loop
      vertex -0.498101 -3.46437 -1
      vertex 1.4634 -13.9233 -1
      vertex 0 -13.9233 -1
    endloop
  endfacet
  facet normal 0 0 -1
    outer loop
      vertex 1.4634 -13.9233 -1
      vertex -0.498101 -3.46437 -1
      vertex 1.45395 -3.18371 -1
    endloop
  endfacet
  facet normal -0 0 -1
    outer loop
      vertex 9.36783 10.404 -1
      vertex 1.45395 3.18371 -1
      vertex 7 12.1244 -1
    endloop
  endfacet
  facet normal -0 0 -1
    outer loop
      vertex 7 12.1244 -1
      vertex 1.45395 3.18371 -1
      vertex 4.32624 13.3148 -1
    endloop
  endfacet
  facet normal -0 0 -1
    outer loop
      vertex 4.32624 13.3148 -1
      vertex 1.45395 3.18371 -1
      vertex 1.4634 13.9233 -1
    endloop
  endfacet
  facet normal 0 0 -1
    outer loop
      vertex -0.498101 3.46437 -1
      vertex 1.4634 13.9233 -1
      vertex 1.45395 3.18371 -1
    endloop
  endfacet
  facet normal -0 0 -1
    outer loop
      vertex 1.4634 13.9233 -1
      vertex -0.498101 3.46437 -1
      vertex 0 13.9233 -1
    endloop
  endfacet
  facet normal 0 0 -1
    outer loop
      vertex -2.29201 2.64512 -1
      vertex 0 13.9233 -1
      vertex -0.498101 3.46437 -1
    endloop
  endfacet
  facet normal 0 0 -1
    outer loop
      vertex -13.95 10.4 -1
      vertex 0 13.9233 -1
      vertex -2.29201 2.64512 -1
    endloop
  endfacet
  facet normal 0 0 -1
    outer loop
      vertex -13.95 6.4 -1
      vertex -2.29201 2.64512 -1
      vertex -3.35822 0.986063 -1
    endloop
  endfacet
  facet normal 0 0 -1
    outer loop
      vertex -13.95 -2 -1
      vertex -3.35822 -0.986063 -1
      vertex -13.95 -6.4 -1
    endloop
  endfacet
  facet normal -0 0 -1
    outer loop
      vertex -3.35822 -0.986063 -1
      vertex -13.95 -2 -1
      vertex -3.35822 0.986063 -1
    endloop
  endfacet
  facet normal 0 0 -1
    outer loop
      vertex -13.95 2 -1
      vertex -3.35822 0.986063 -1
      vertex -13.95 -2 -1
    endloop
  endfacet
  facet normal 0 0 -1
    outer loop
      vertex -13.95 6.4 -1
      vertex -3.35822 0.986063 -1
      vertex -13.95 2 -1
    endloop
  endfacet
  facet normal 0 0 -1
    outer loop
      vertex -2.29201 2.64512 -1
      vertex -13.95 6.4 -1
      vertex -13.95 10.4 -1
    endloop
  endfacet
  facet normal -0 0 -1
    outer loop
      vertex 0 13.9233 -1
      vertex -13.95 10.4 -1
      vertex 0 14 -1
    endloop
  endfacet
  facet normal 0 0 -1
    outer loop
      vertex -79.05 10.4 -1
      vertex 0 14 -1
      vertex -13.95 10.4 -1
    endloop
  endfacet
  facet normal 0 0 -1
    outer loop
      vertex -91.5461 3.18371 -1
      vertex -79.05 6.4 -1
      vertex -90.0556 1.89224 -1
    endloop
  endfacet
  facet normal -0 0 -1
    outer loop
      vertex -79.05 6.4 -1
      vertex -91.5461 3.18371 -1
      vertex -79.05 10.4 -1
    endloop
  endfacet
  facet normal 0 0 -1
    outer loop
      vertex -93 13.9233 -1
      vertex -79.05 10.4 -1
      vertex -91.5461 3.18371 -1
    endloop
  endfacet
  facet normal 0 0 -1
    outer loop
      vertex -93 14 -1
      vertex -79.05 10.4 -1
      vertex -93 13.9233 -1
    endloop
  endfacet
  facet normal 0 0 -1
    outer loop
      vertex -79.05 10.4 -1
      vertex -93 14 -1
      vertex 0 14 -1
    endloop
  endfacet
  facet normal 0 -1 0
    outer loop
      vertex -93 -14 -1
      vertex 0 -14 1
      vertex -93 -14 1
    endloop
  endfacet
  facet normal 0 -1 -0
    outer loop
      vertex 0 -14 1
      vertex -93 -14 -1
      vertex 0 -14 -1
    endloop
  endfacet
  facet normal 0.994522 0.104529 0
    outer loop
      vertex 14 0 1
      vertex 13.6941 2.91076 -1
      vertex 13.6941 2.91076 1
    endloop
  endfacet
  facet normal 0.994522 0.104529 0
    outer loop
      vertex 13.6941 2.91076 -1
      vertex 14 0 1
      vertex 14 0 -1
    endloop
  endfacet
  facet normal 0 1 -0
    outer loop
      vertex 1.4634 13.9233 -1
      vertex 0 13.9233 1
      vertex 1.4634 13.9233 1
    endloop
  endfacet
  facet normal 0 1 0
    outer loop
      vertex 0 13.9233 1
      vertex 1.4634 13.9233 -1
      vertex 0 13.9233 -1
    endloop
  endfacet
  facet normal 0 -1 0
    outer loop
      vertex 0 -13.9233 -1
      vertex 1.4634 -13.9233 1
      vertex 0 -13.9233 1
    endloop
  endfacet
  facet normal 0 -1 -0
    outer loop
      vertex 1.4634 -13.9233 1
      vertex 0 -13.9233 -1
      vertex 1.4634 -13.9233 -1
    endloop
  endfacet
  facet normal 0.587785 0.809017 -0
    outer loop
      vertex 9.36783 10.404 -1
      vertex 7 12.1244 1
      vertex 9.36783 10.404 1
    endloop
  endfacet
  facet normal 0.587785 0.809017 0
    outer loop
      vertex 7 12.1244 1
      vertex 9.36783 10.404 -1
      vertex 7 12.1244 -1
    endloop
  endfacet
  facet normal 0.866026 0.5 0
    outer loop
      vertex 12.7896 5.69431 1
      vertex 11.3262 8.22899 -1
      vertex 11.3262 8.22899 1
    endloop
  endfacet
  facet normal 0.866026 0.5 0
    outer loop
      vertex 11.3262 8.22899 -1
      vertex 12.7896 5.69431 1
      vertex 12.7896 5.69431 -1
    endloop
  endfacet
  facet normal 0.951056 0.309017 0
    outer loop
      vertex 13.6941 2.91076 1
      vertex 12.7896 5.69431 -1
      vertex 12.7896 5.69431 1
    endloop
  endfacet
  facet normal 0.951056 0.309017 0
    outer loop
      vertex 12.7896 5.69431 -1
      vertex 13.6941 2.91076 1
      vertex 13.6941 2.91076 -1
    endloop
  endfacet
  facet normal 0.743145 0.669131 0
    outer loop
      vertex 11.3262 8.22899 1
      vertex 9.36783 10.404 -1
      vertex 9.36783 10.404 1
    endloop
  endfacet
  facet normal 0.743145 0.669131 0
    outer loop
      vertex 9.36783 10.404 -1
      vertex 11.3262 8.22899 1
      vertex 11.3262 8.22899 -1
    endloop
  endfacet
  facet normal 0.207912 0.978148 -0
    outer loop
      vertex 4.32624 13.3148 -1
      vertex 1.4634 13.9233 1
      vertex 4.32624 13.3148 1
    endloop
  endfacet
  facet normal 0.207912 0.978148 0
    outer loop
      vertex 1.4634 13.9233 1
      vertex 4.32624 13.3148 -1
      vertex 1.4634 13.9233 -1
    endloop
  endfacet
  facet normal 0.406737 0.913545 -0
    outer loop
      vertex 7 12.1244 -1
      vertex 4.32624 13.3148 1
      vertex 7 12.1244 1
    endloop
  endfacet
  facet normal 0.406737 0.913545 0
    outer loop
      vertex 4.32624 13.3148 1
      vertex 7 12.1244 -1
      vertex 4.32624 13.3148 -1
    endloop
  endfacet
  facet normal 0.994522 -0.104529 0
    outer loop
      vertex 13.6941 -2.91076 1
      vertex 14 0 -1
      vertex 14 0 1
    endloop
  endfacet
  facet normal 0.994522 -0.104529 0
    outer loop
      vertex 14 0 -1
      vertex 13.6941 -2.91076 1
      vertex 13.6941 -2.91076 -1
    endloop
  endfacet
  facet normal 0.743145 -0.669131 0
    outer loop
      vertex 9.36783 -10.404 1
      vertex 11.3262 -8.22899 -1
      vertex 11.3262 -8.22899 1
    endloop
  endfacet
  facet normal 0.743145 -0.669131 0
    outer loop
      vertex 11.3262 -8.22899 -1
      vertex 9.36783 -10.404 1
      vertex 9.36783 -10.404 -1
    endloop
  endfacet
  facet normal 0.951056 -0.309017 0
    outer loop
      vertex 12.7896 -5.69431 1
      vertex 13.6941 -2.91076 -1
      vertex 13.6941 -2.91076 1
    endloop
  endfacet
  facet normal 0.951056 -0.309017 0
    outer loop
      vertex 13.6941 -2.91076 -1
      vertex 12.7896 -5.69431 1
      vertex 12.7896 -5.69431 -1
    endloop
  endfacet
  facet normal 0.866026 -0.5 0
    outer loop
      vertex 11.3262 -8.22899 1
      vertex 12.7896 -5.69431 -1
      vertex 12.7896 -5.69431 1
    endloop
  endfacet
  facet normal 0.866026 -0.5 0
    outer loop
      vertex 12.7896 -5.69431 -1
      vertex 11.3262 -8.22899 1
      vertex 11.3262 -8.22899 -1
    endloop
  endfacet
  facet normal 0.207912 -0.978148 0
    outer loop
      vertex 1.4634 -13.9233 -1
      vertex 4.32624 -13.3148 1
      vertex 1.4634 -13.9233 1
    endloop
  endfacet
  facet normal 0.207912 -0.978148 0
    outer loop
      vertex 4.32624 -13.3148 1
      vertex 1.4634 -13.9233 -1
      vertex 4.32624 -13.3148 -1
    endloop
  endfacet
  facet normal 0.587785 -0.809017 0
    outer loop
      vertex 7 -12.1244 -1
      vertex 9.36783 -10.404 1
      vertex 7 -12.1244 1
    endloop
  endfacet
  facet normal 0.587785 -0.809017 0
    outer loop
      vertex 9.36783 -10.404 1
      vertex 7 -12.1244 -1
      vertex 9.36783 -10.404 -1
    endloop
  endfacet
  facet normal 0.406737 -0.913545 0
    outer loop
      vertex 4.32624 -13.3148 -1
      vertex 7 -12.1244 1
      vertex 4.32624 -13.3148 1
    endloop
  endfacet
  facet normal 0.406737 -0.913545 0
    outer loop
      vertex 7 -12.1244 1
      vertex 4.32624 -13.3148 -1
      vertex 7 -12.1244 -1
    endloop
  endfacet
  facet normal -0.994522 0.104528 0
    outer loop
      vertex -107 0 -1
      vertex -106.694 2.91076 1
      vertex -106.694 2.91076 -1
    endloop
  endfacet
  facet normal -0.994522 0.104528 0
    outer loop
      vertex -106.694 2.91076 1
      vertex -107 0 -1
      vertex -107 0 1
    endloop
  endfacet
  facet normal 0 1 -0
    outer loop
      vertex -93 13.9233 -1
      vertex -94.4634 13.9233 1
      vertex -93 13.9233 1
    endloop
  endfacet
  facet normal 0 1 0
    outer loop
      vertex -94.4634 13.9233 1
      vertex -93 13.9233 -1
      vertex -94.4634 13.9233 -1
    endloop
  endfacet
  facet normal 0 -1 0
    outer loop
      vertex -94.4634 -13.9233 -1
      vertex -93 -13.9233 1
      vertex -94.4634 -13.9233 1
    endloop
  endfacet
  facet normal 0 -1 -0
    outer loop
      vertex -93 -13.9233 1
      vertex -94.4634 -13.9233 -1
      vertex -93 -13.9233 -1
    endloop
  endfacet
  facet normal -0.743144 0.669131 0
    outer loop
      vertex -104.326 8.22899 -1
      vertex -102.368 10.404 1
      vertex -102.368 10.404 -1
    endloop
  endfacet
  facet normal -0.743144 0.669131 0
    outer loop
      vertex -102.368 10.404 1
      vertex -104.326 8.22899 -1
      vertex -104.326 8.22899 1
    endloop
  endfacet
  facet normal -0.406737 0.913545 0
    outer loop
      vertex -97.3262 13.3148 -1
      vertex -100 12.1244 1
      vertex -97.3262 13.3148 1
    endloop
  endfacet
  facet normal -0.406737 0.913545 0
    outer loop
      vertex -100 12.1244 1
      vertex -97.3262 13.3148 -1
      vertex -100 12.1244 -1
    endloop
  endfacet
  facet normal -0.866026 0.499999 0
    outer loop
      vertex -105.79 5.69431 -1
      vertex -104.326 8.22899 1
      vertex -104.326 8.22899 -1
    endloop
  endfacet
  facet normal -0.866026 0.499999 0
    outer loop
      vertex -104.326 8.22899 1
      vertex -105.79 5.69431 -1
      vertex -105.79 5.69431 1
    endloop
  endfacet
  facet normal -0.951056 0.309018 0
    outer loop
      vertex -106.694 2.91076 -1
      vertex -105.79 5.69431 1
      vertex -105.79 5.69431 -1
    endloop
  endfacet
  facet normal -0.951056 0.309018 0
    outer loop
      vertex -105.79 5.69431 1
      vertex -106.694 2.91076 -1
      vertex -106.694 2.91076 1
    endloop
  endfacet
  facet normal -0.587785 0.809017 0
    outer loop
      vertex -100 12.1244 -1
      vertex -102.368 10.404 1
      vertex -100 12.1244 1
    endloop
  endfacet
  facet normal -0.587785 0.809017 0
    outer loop
      vertex -102.368 10.404 1
      vertex -100 12.1244 -1
      vertex -102.368 10.404 -1
    endloop
  endfacet
  facet normal -0.207911 0.978148 0
    outer loop
      vertex -94.4634 13.9233 -1
      vertex -97.3262 13.3148 1
      vertex -94.4634 13.9233 1
    endloop
  endfacet
  facet normal -0.207911 0.978148 0
    outer loop
      vertex -97.3262 13.3148 1
      vertex -94.4634 13.9233 -1
      vertex -97.3262 13.3148 -1
    endloop
  endfacet
  facet normal -0.743144 -0.669131 0
    outer loop
      vertex -102.368 -10.404 -1
      vertex -104.326 -8.22899 1
      vertex -104.326 -8.22899 -1
    endloop
  endfacet
  facet normal -0.743144 -0.669131 0
    outer loop
      vertex -104.326 -8.22899 1
      vertex -102.368 -10.404 -1
      vertex -102.368 -10.404 1
    endloop
  endfacet
  facet normal -0.866026 -0.499999 0
    outer loop
      vertex -104.326 -8.22899 -1
      vertex -105.79 -5.69431 1
      vertex -105.79 -5.69431 -1
    endloop
  endfacet
  facet normal -0.866026 -0.499999 0
    outer loop
      vertex -105.79 -5.69431 1
      vertex -104.326 -8.22899 -1
      vertex -104.326 -8.22899 1
    endloop
  endfacet
  facet normal -0.951056 -0.309018 0
    outer loop
      vertex -105.79 -5.69431 -1
      vertex -106.694 -2.91076 1
      vertex -106.694 -2.91076 -1
    endloop
  endfacet
  facet normal -0.951056 -0.309018 0
    outer loop
      vertex -106.694 -2.91076 1
      vertex -105.79 -5.69431 -1
      vertex -105.79 -5.69431 1
    endloop
  endfacet
  facet normal -0.994522 -0.104528 0
    outer loop
      vertex -106.694 -2.91076 -1
      vertex -107 0 1
      vertex -107 0 -1
    endloop
  endfacet
  facet normal -0.994522 -0.104528 0
    outer loop
      vertex -107 0 1
      vertex -106.694 -2.91076 -1
      vertex -106.694 -2.91076 1
    endloop
  endfacet
  facet normal -0.587785 -0.809017 0
    outer loop
      vertex -102.368 -10.404 -1
      vertex -100 -12.1244 1
      vertex -102.368 -10.404 1
    endloop
  endfacet
  facet normal -0.587785 -0.809017 -0
    outer loop
      vertex -100 -12.1244 1
      vertex -102.368 -10.404 -1
      vertex -100 -12.1244 -1
    endloop
  endfacet
  facet normal -0.406737 -0.913545 0
    outer loop
      vertex -100 -12.1244 -1
      vertex -97.3262 -13.3148 1
      vertex -100 -12.1244 1
    endloop
  endfacet
  facet normal -0.406737 -0.913545 -0
    outer loop
      vertex -97.3262 -13.3148 1
      vertex -100 -12.1244 -1
      vertex -97.3262 -13.3148 -1
    endloop
  endfacet
  facet normal -0.207911 -0.978148 0
    outer loop
      vertex -97.3262 -13.3148 -1
      vertex -94.4634 -13.9233 1
      vertex -97.3262 -13.3148 1
    endloop
  endfacet
  facet normal -0.207911 -0.978148 -0
    outer loop
      vertex -94.4634 -13.9233 1
      vertex -97.3262 -13.3148 -1
      vertex -94.4634 -13.9233 -1
    endloop
  endfacet
  facet normal 1 -0 0
    outer loop
      vertex -79.05 -2 1
      vertex -79.05 2 -1
      vertex -79.05 2 1
    endloop
  endfacet
  facet normal 1 0 0
    outer loop
      vertex -79.05 2 -1
      vertex -79.05 -2 1
      vertex -79.05 -2 -1
    endloop
  endfacet
  facet normal -1 0 0
    outer loop
      vertex -13.95 -2 -1
      vertex -13.95 2 1
      vertex -13.95 2 -1
    endloop
  endfacet
  facet normal -1 -0 0
    outer loop
      vertex -13.95 2 1
      vertex -13.95 -2 -1
      vertex -13.95 -2 1
    endloop
  endfacet
  facet normal 0 -1 0
    outer loop
      vertex -79.05 2 -1
      vertex -13.95 2 1
      vertex -79.05 2 1
    endloop
  endfacet
  facet normal 0 -1 -0
    outer loop
      vertex -13.95 2 1
      vertex -79.05 2 -1
      vertex -13.95 2 -1
    endloop
  endfacet
  facet normal 0 1 -0
    outer loop
      vertex -13.95 -2 -1
      vertex -79.05 -2 1
      vertex -13.95 -2 1
    endloop
  endfacet
  facet normal 0 1 0
    outer loop
      vertex -79.05 -2 1
      vertex -13.95 -2 -1
      vertex -79.05 -2 -1
    endloop
  endfacet
  facet normal 1 -0 0
    outer loop
      vertex -79.05 6.4 1
      vertex -79.05 10.4 -1
      vertex -79.05 10.4 1
    endloop
  endfacet
  facet normal 1 0 0
    outer loop
      vertex -79.05 10.4 -1
      vertex -79.05 6.4 1
      vertex -79.05 6.4 -1
    endloop
  endfacet
  facet normal -1 0 0
    outer loop
      vertex -13.95 6.4 -1
      vertex -13.95 10.4 1
      vertex -13.95 10.4 -1
    endloop
  endfacet
  facet normal -1 -0 0
    outer loop
      vertex -13.95 10.4 1
      vertex -13.95 6.4 -1
      vertex -13.95 6.4 1
    endloop
  endfacet
  facet normal 0 1 -0
    outer loop
      vertex -13.95 6.4 -1
      vertex -79.05 6.4 1
      vertex -13.95 6.4 1
    endloop
  endfacet
  facet normal 0 1 0
    outer loop
      vertex -79.05 6.4 1
      vertex -13.95 6.4 -1
      vertex -79.05 6.4 -1
    endloop
  endfacet
  facet normal 0 -1 0
    outer loop
      vertex -79.05 10.4 -1
      vertex -13.95 10.4 1
      vertex -79.05 10.4 1
    endloop
  endfacet
  facet normal 0 -1 -0
    outer loop
      vertex -13.95 10.4 1
      vertex -79.05 10.4 -1
      vertex -13.95 10.4 -1
    endloop
  endfacet
  facet normal 1 -0 0
    outer loop
      vertex -79.05 -10.4 1
      vertex -79.05 -6.4 -1
      vertex -79.05 -6.4 1
    endloop
  endfacet
  facet normal 1 0 0
    outer loop
      vertex -79.05 -6.4 -1
      vertex -79.05 -10.4 1
      vertex -79.05 -10.4 -1
    endloop
  endfacet
  facet normal -1 0 0
    outer loop
      vertex -13.95 -10.4 -1
      vertex -13.95 -6.4 1
      vertex -13.95 -6.4 -1
    endloop
  endfacet
  facet normal -1 -0 0
    outer loop
      vertex -13.95 -6.4 1
      vertex -13.95 -10.4 -1
      vertex -13.95 -10.4 1
    endloop
  endfacet
  facet normal 0 1 -0
    outer loop
      vertex -13.95 -10.4 -1
      vertex -79.05 -10.4 1
      vertex -13.95 -10.4 1
    endloop
  endfacet
  facet normal 0 1 0
    outer loop
      vertex -79.05 -10.4 1
      vertex -13.95 -10.4 -1
      vertex -79.05 -10.4 -1
    endloop
  endfacet
  facet normal 0 -1 0
    outer loop
      vertex -79.05 -6.4 -1
      vertex -13.95 -6.4 1
      vertex -79.05 -6.4 1
    endloop
  endfacet
  facet normal 0 -1 -0
    outer loop
      vertex -13.95 -6.4 1
      vertex -79.05 -6.4 -1
      vertex -13.95 -6.4 -1
    endloop
  endfacet
  facet normal -0.959493 -0.281733 0
    outer loop
      vertex 3.5 0 -1
      vertex 2.94439 1.89224 1
      vertex 2.94439 1.89224 -1
    endloop
  endfacet
  facet normal -0.959493 -0.281733 0
    outer loop
      vertex 2.94439 1.89224 1
      vertex 3.5 0 -1
      vertex 3.5 0 1
    endloop
  endfacet
  facet normal 1 -0 0
    outer loop
      vertex -3.35822 -0.986063 1
      vertex -3.35822 0.986063 -1
      vertex -3.35822 0.986063 1
    endloop
  endfacet
  facet normal 1 0 0
    outer loop
      vertex -3.35822 0.986063 -1
      vertex -3.35822 -0.986063 1
      vertex -3.35822 -0.986063 -1
    endloop
  endfacet
  facet normal 0.415415 -0.909632 0
    outer loop
      vertex -2.29201 2.64512 -1
      vertex -0.498101 3.46437 1
      vertex -2.29201 2.64512 1
    endloop
  endfacet
  facet normal 0.415415 -0.909632 0
    outer loop
      vertex -0.498101 3.46437 1
      vertex -2.29201 2.64512 -1
      vertex -0.498101 3.46437 -1
    endloop
  endfacet
  facet normal 0.841254 -0.540641 0
    outer loop
      vertex -3.35822 0.986063 1
      vertex -2.29201 2.64512 -1
      vertex -2.29201 2.64512 1
    endloop
  endfacet
  facet normal 0.841254 -0.540641 0
    outer loop
      vertex -2.29201 2.64512 -1
      vertex -3.35822 0.986063 1
      vertex -3.35822 0.986063 -1
    endloop
  endfacet
  facet normal -0.142315 0.989821 0
    outer loop
      vertex 1.45395 -3.18371 -1
      vertex -0.498101 -3.46437 1
      vertex 1.45395 -3.18371 1
    endloop
  endfacet
  facet normal -0.142315 0.989821 0
    outer loop
      vertex -0.498101 -3.46437 1
      vertex 1.45395 -3.18371 -1
      vertex -0.498101 -3.46437 -1
    endloop
  endfacet
  facet normal -0.654861 0.75575 0
    outer loop
      vertex 2.94439 -1.89224 -1
      vertex 1.45395 -3.18371 1
      vertex 2.94439 -1.89224 1
    endloop
  endfacet
  facet normal -0.654861 0.75575 0
    outer loop
      vertex 1.45395 -3.18371 1
      vertex 2.94439 -1.89224 -1
      vertex 1.45395 -3.18371 -1
    endloop
  endfacet
  facet normal -0.142315 -0.989821 0
    outer loop
      vertex -0.498101 3.46437 -1
      vertex 1.45395 3.18371 1
      vertex -0.498101 3.46437 1
    endloop
  endfacet
  facet normal -0.142315 -0.989821 -0
    outer loop
      vertex 1.45395 3.18371 1
      vertex -0.498101 3.46437 -1
      vertex 1.45395 3.18371 -1
    endloop
  endfacet
  facet normal -0.654861 -0.75575 0
    outer loop
      vertex 1.45395 3.18371 -1
      vertex 2.94439 1.89224 1
      vertex 1.45395 3.18371 1
    endloop
  endfacet
  facet normal -0.654861 -0.75575 -0
    outer loop
      vertex 2.94439 1.89224 1
      vertex 1.45395 3.18371 -1
      vertex 2.94439 1.89224 -1
    endloop
  endfacet
  facet normal -0.959493 0.281733 0
    outer loop
      vertex 2.94439 -1.89224 -1
      vertex 3.5 0 1
      vertex 3.5 0 -1
    endloop
  endfacet
  facet normal -0.959493 0.281733 0
    outer loop
      vertex 3.5 0 1
      vertex 2.94439 -1.89224 -1
      vertex 2.94439 -1.89224 1
    endloop
  endfacet
  facet normal 0.841254 0.540641 0
    outer loop
      vertex -2.29201 -2.64512 1
      vertex -3.35822 -0.986063 -1
      vertex -3.35822 -0.986063 1
    endloop
  endfacet
  facet normal 0.841254 0.540641 0
    outer loop
      vertex -3.35822 -0.986063 -1
      vertex -2.29201 -2.64512 1
      vertex -2.29201 -2.64512 -1
    endloop
  endfacet
  facet normal 0.415415 0.909632 -0
    outer loop
      vertex -0.498101 -3.46437 -1
      vertex -2.29201 -2.64512 1
      vertex -0.498101 -3.46437 1
    endloop
  endfacet
  facet normal 0.415415 0.909632 0
    outer loop
      vertex -2.29201 -2.64512 1
      vertex -0.498101 -3.46437 -1
      vertex -2.29201 -2.64512 -1
    endloop
  endfacet
  facet normal -0.959493 -0.281732 0
    outer loop
      vertex -89.5 0 -1
      vertex -90.0556 1.89224 1
      vertex -90.0556 1.89224 -1
    endloop
  endfacet
  facet normal -0.959493 -0.281732 0
    outer loop
      vertex -90.0556 1.89224 1
      vertex -89.5 0 -1
      vertex -89.5 0 1
    endloop
  endfacet
  facet normal 1 -0 0
    outer loop
      vertex -96.3582 -0.986063 1
      vertex -96.3582 0.986063 -1
      vertex -96.3582 0.986063 1
    endloop
  endfacet
  facet normal 1 0 0
    outer loop
      vertex -96.3582 0.986063 -1
      vertex -96.3582 -0.986063 1
      vertex -96.3582 -0.986063 -1
    endloop
  endfacet
  facet normal 0.415414 -0.909632 0
    outer loop
      vertex -95.292 2.64512 -1
      vertex -93.4981 3.46437 1
      vertex -95.292 2.64512 1
    endloop
  endfacet
  facet normal 0.415414 -0.909632 0
    outer loop
      vertex -93.4981 3.46437 1
      vertex -95.292 2.64512 -1
      vertex -93.4981 3.46437 -1
    endloop
  endfacet
  facet normal 0.841255 -0.540639 0
    outer loop
      vertex -96.3582 0.986063 1
      vertex -95.292 2.64512 -1
      vertex -95.292 2.64512 1
    endloop
  endfacet
  facet normal 0.841255 -0.540639 0
    outer loop
      vertex -95.292 2.64512 -1
      vertex -96.3582 0.986063 1
      vertex -96.3582 0.986063 -1
    endloop
  endfacet
  facet normal -0.142315 0.989821 0
    outer loop
      vertex -91.5461 -3.18371 -1
      vertex -93.4981 -3.46437 1
      vertex -91.5461 -3.18371 1
    endloop
  endfacet
  facet normal -0.142315 0.989821 0
    outer loop
      vertex -93.4981 -3.46437 1
      vertex -91.5461 -3.18371 -1
      vertex -93.4981 -3.46437 -1
    endloop
  endfacet
  facet normal -0.142315 -0.989821 0
    outer loop
      vertex -93.4981 3.46437 -1
      vertex -91.5461 3.18371 1
      vertex -93.4981 3.46437 1
    endloop
  endfacet
  facet normal -0.142315 -0.989821 -0
    outer loop
      vertex -91.5461 3.18371 1
      vertex -93.4981 3.46437 -1
      vertex -91.5461 3.18371 -1
    endloop
  endfacet
  facet normal -0.654859 -0.755751 0
    outer loop
      vertex -91.5461 3.18371 -1
      vertex -90.0556 1.89224 1
      vertex -91.5461 3.18371 1
    endloop
  endfacet
  facet normal -0.654859 -0.755751 -0
    outer loop
      vertex -90.0556 1.89224 1
      vertex -91.5461 3.18371 -1
      vertex -90.0556 1.89224 -1
    endloop
  endfacet
  facet normal -0.654859 0.755751 0
    outer loop
      vertex -90.0556 -1.89224 -1
      vertex -91.5461 -3.18371 1
      vertex -90.0556 -1.89224 1
    endloop
  endfacet
  facet normal -0.654859 0.755751 0
    outer loop
      vertex -91.5461 -3.18371 1
      vertex -90.0556 -1.89224 -1
      vertex -91.5461 -3.18371 -1
    endloop
  endfacet
  facet normal 0.415414 0.909632 -0
    outer loop
      vertex -93.4981 -3.46437 -1
      vertex -95.292 -2.64512 1
      vertex -93.4981 -3.46437 1
    endloop
  endfacet
  facet normal 0.415414 0.909632 0
    outer loop
      vertex -95.292 -2.64512 1
      vertex -93.4981 -3.46437 -1
      vertex -95.292 -2.64512 -1
    endloop
  endfacet
  facet normal 0.841255 0.540639 0
    outer loop
      vertex -95.292 -2.64512 1
      vertex -96.3582 -0.986063 -1
      vertex -96.3582 -0.986063 1
    endloop
  endfacet
  facet normal 0.841255 0.540639 0
    outer loop
      vertex -96.3582 -0.986063 -1
      vertex -95.292 -2.64512 1
      vertex -95.292 -2.64512 -1
    endloop
  endfacet
  facet normal -0.959493 0.281732 0
    outer loop
      vertex -90.0556 -1.89224 -1
      vertex -89.5 0 1
      vertex -89.5 0 -1
    endloop
  endfacet
  facet normal -0.959493 0.281732 0
    outer loop
      vertex -89.5 0 1
      vertex -90.0556 -1.89224 -1
      vertex -90.0556 -1.89224 1
    endloop
  endfacet
endsolid OpenSCAD_Model
