solid OpenSCAD_Model
  facet normal -1 0 0
    outer loop
      vertex -25 -12 -1
      vertex -25 12 1
      vertex -25 12 -1
    endloop
  endfacet
  facet normal -1 -0 0
    outer loop
      vertex -25 12 1
      vertex -25 -12 -1
      vertex -25 -12 1
    endloop
  endfacet
  facet normal -0 0 1
    outer loop
      vertex -22.5 -1.65 1
      vertex -7.5 -5.35 1
      vertex -7.5 -1.65 1
    endloop
  endfacet
  facet normal 0 0 1
    outer loop
      vertex -7.5 -5.35 1
      vertex -22.5 -1.65 1
      vertex -22.5 -5.35 1
    endloop
  endfacet
  facet normal -0 0 1
    outer loop
      vertex -22.5 5.35 1
      vertex -7.5 1.65 1
      vertex -7.5 5.35 1
    endloop
  endfacet
  facet normal 0 0 1
    outer loop
      vertex -7.5 1.65 1
      vertex -22.5 5.35 1
      vertex -22.5 1.65 1
    endloop
  endfacet
  facet normal 0 0 1
    outer loop
      vertex -7.5 8.65 1
      vertex 0 11.9343 1
      vertex 0 12 1
    endloop
  endfacet
  facet normal 0 0 1
    outer loop
      vertex 0 11.9343 1
      vertex -7.5 8.65 1
      vertex -0.469639 3.26641 1
    endloop
  endfacet
  facet normal 0 0 1
    outer loop
      vertex -0.469639 3.26641 1
      vertex -7.5 8.65 1
      vertex -2.16104 2.49397 1
    endloop
  endfacet
  facet normal 0 0 1
    outer loop
      vertex -7.5 1.65 1
      vertex -2.16104 2.49397 1
      vertex -7.5 5.35 1
    endloop
  endfacet
  facet normal 0 0 1
    outer loop
      vertex -2.16104 2.49397 1
      vertex -7.5 8.65 1
      vertex -7.5 5.35 1
    endloop
  endfacet
  facet normal -0 0 1
    outer loop
      vertex -25 12 1
      vertex -7.5 8.65 1
      vertex 0 12 1
    endloop
  endfacet
  facet normal 0 0 1
    outer loop
      vertex -25 12 1
      vertex -22.5 5.35 1
      vertex -22.5 8.65 1
    endloop
  endfacet
  facet normal 0 0 1
    outer loop
      vertex -22.5 5.35 1
      vertex -25 12 1
      vertex -22.5 1.65 1
    endloop
  endfacet
  facet normal 0 0 1
    outer loop
      vertex -22.5 1.65 1
      vertex -25 12 1
      vertex -22.5 -1.65 1
    endloop
  endfacet
  facet normal 0 0 1
    outer loop
      vertex -25 -12 1
      vertex -22.5 -1.65 1
      vertex -25 12 1
    endloop
  endfacet
  facet normal 0 0 1
    outer loop
      vertex -22.5 -1.65 1
      vertex -25 -12 1
      vertex -22.5 -5.35 1
    endloop
  endfacet
  facet normal 0 0 1
    outer loop
      vertex -7.5 8.65 1
      vertex -25 12 1
      vertex -22.5 8.65 1
    endloop
  endfacet
  facet normal 0 0 1
    outer loop
      vertex 3.3 0 1
      vertex 12 0 1
      vertex 11.7378 2.49494 1
    endloop
  endfacet
  facet normal 0 0 1
    outer loop
      vertex 2.77614 1.78411 1
      vertex 11.7378 2.49494 1
      vertex 10.9625 4.88084 1
    endloop
  endfacet
  facet normal 0 0 1
    outer loop
      vertex 12 0 1
      vertex 3.3 0 1
      vertex 11.7378 -2.49494 1
    endloop
  endfacet
  facet normal 0 0 1
    outer loop
      vertex 2.77614 1.78411 1
      vertex 10.9625 4.88084 1
      vertex 9.7082 7.05342 1
    endloop
  endfacet
  facet normal -0 0 1
    outer loop
      vertex 2.77614 -1.78411 1
      vertex 11.7378 -2.49494 1
      vertex 3.3 0 1
    endloop
  endfacet
  facet normal 0 0 1
    outer loop
      vertex 2.77614 1.78411 1
      vertex 9.7082 7.05342 1
      vertex 8.02957 8.91774 1
    endloop
  endfacet
  facet normal 0 0 1
    outer loop
      vertex 11.7378 -2.49494 1
      vertex 2.77614 -1.78411 1
      vertex 10.9625 -4.88084 1
    endloop
  endfacet
  facet normal 0 0 1
    outer loop
      vertex 1.37087 3.00179 1
      vertex 8.02957 8.91774 1
      vertex 6 10.3923 1
    endloop
  endfacet
  facet normal 0 0 1
    outer loop
      vertex 10.9625 -4.88084 1
      vertex 2.77614 -1.78411 1
      vertex 9.7082 -7.05342 1
    endloop
  endfacet
  facet normal 0 0 1
    outer loop
      vertex 1.37087 3.00179 1
      vertex 6 10.3923 1
      vertex 3.7082 11.4127 1
    endloop
  endfacet
  facet normal 0 0 1
    outer loop
      vertex 9.7082 -7.05342 1
      vertex 2.77614 -1.78411 1
      vertex 8.02957 -8.91774 1
    endloop
  endfacet
  facet normal -0 0 1
    outer loop
      vertex 1.37087 -3.00179 1
      vertex 8.02957 -8.91774 1
      vertex 2.77614 -1.78411 1
    endloop
  endfacet
  facet normal 0 0 1
    outer loop
      vertex 11.7378 2.49494 1
      vertex 2.77614 1.78411 1
      vertex 3.3 0 1
    endloop
  endfacet
  facet normal 0 0 1
    outer loop
      vertex 8.02957 8.91774 1
      vertex 1.37087 3.00179 1
      vertex 2.77614 1.78411 1
    endloop
  endfacet
  facet normal 0 0 1
    outer loop
      vertex 1.25434 11.9343 1
      vertex 1.37087 3.00179 1
      vertex 3.7082 11.4127 1
    endloop
  endfacet
  facet normal 0 0 1
    outer loop
      vertex -0.469639 3.26641 1
      vertex 1.25434 11.9343 1
      vertex 0 11.9343 1
    endloop
  endfacet
  facet normal 0 0 1
    outer loop
      vertex 1.25434 11.9343 1
      vertex -0.469639 3.26641 1
      vertex 1.37087 3.00179 1
    endloop
  endfacet
  facet normal 0 0 1
    outer loop
      vertex 8.02957 -8.91774 1
      vertex 1.37087 -3.00179 1
      vertex 6 -10.3923 1
    endloop
  endfacet
  facet normal 0 0 1
    outer loop
      vertex 6 -10.3923 1
      vertex 1.37087 -3.00179 1
      vertex 3.7082 -11.4127 1
    endloop
  endfacet
  facet normal 0 0 1
    outer loop
      vertex 1.37087 -3.00179 1
      vertex 1.25434 -11.9343 1
      vertex 3.7082 -11.4127 1
    endloop
  endfacet
  facet normal -0 0 1
    outer loop
      vertex -0.469639 -3.26641 1
      vertex 1.25434 -11.9343 1
      vertex 1.37087 -3.00179 1
    endloop
  endfacet
  facet normal 0 0 1
    outer loop
      vertex 1.25434 -11.9343 1
      vertex -0.469639 -3.26641 1
      vertex 0 -11.9343 1
    endloop
  endfacet
  facet normal -0 0 1
    outer loop
      vertex -7.5 -8.65 1
      vertex 0 -11.9343 1
      vertex -0.469639 -3.26641 1
    endloop
  endfacet
  facet normal 0 0 1
    outer loop
      vertex -7.5 -8.65 1
      vertex -0.469639 -3.26641 1
      vertex -2.16104 -2.49397 1
    endloop
  endfacet
  facet normal -0 0 1
    outer loop
      vertex -7.5 -1.65 1
      vertex -2.16104 -2.49397 1
      vertex -3.16633 -0.929717 1
    endloop
  endfacet
  facet normal 0 0 1
    outer loop
      vertex -2.16104 2.49397 1
      vertex -7.5 1.65 1
      vertex -3.16633 0.929717 1
    endloop
  endfacet
  facet normal 0 0 1
    outer loop
      vertex -3.16633 0.929717 1
      vertex -7.5 1.65 1
      vertex -3.16633 -0.929717 1
    endloop
  endfacet
  facet normal 0 0 1
    outer loop
      vertex -7.5 -1.65 1
      vertex -3.16633 -0.929717 1
      vertex -7.5 1.65 1
    endloop
  endfacet
  facet normal 0 0 1
    outer loop
      vertex -2.16104 -2.49397 1
      vertex -7.5 -1.65 1
      vertex -7.5 -5.35 1
    endloop
  endfacet
  facet normal 0 0 1
    outer loop
      vertex -7.5 -8.65 1
      vertex -2.16104 -2.49397 1
      vertex -7.5 -5.35 1
    endloop
  endfacet
  facet normal 0 0 1
    outer loop
      vertex 0 -11.9343 1
      vertex -7.5 -8.65 1
      vertex 0 -12 1
    endloop
  endfacet
  facet normal 0 0 1
    outer loop
      vertex -25 -12 1
      vertex -7.5 -8.65 1
      vertex -22.5 -8.65 1
    endloop
  endfacet
  facet normal 0 0 1
    outer loop
      vertex -7.5 -8.65 1
      vertex -25 -12 1
      vertex 0 -12 1
    endloop
  endfacet
  facet normal 0 0 1
    outer loop
      vertex -22.5 -5.35 1
      vertex -25 -12 1
      vertex -22.5 -8.65 1
    endloop
  endfacet
  facet normal 1 -0 0
    outer loop
      vertex 0 -12 1
      vertex 0 -11.9343 -1
      vertex 0 -11.9343 1
    endloop
  endfacet
  facet normal 1 0 0
    outer loop
      vertex 0 -11.9343 -1
      vertex 0 -12 1
      vertex 0 -12 -1
    endloop
  endfacet
  facet normal 1 -0 0
    outer loop
      vertex 0 11.9343 1
      vertex 0 12 -1
      vertex 0 12 1
    endloop
  endfacet
  facet normal 1 0 0
    outer loop
      vertex 0 12 -1
      vertex 0 11.9343 1
      vertex 0 11.9343 -1
    endloop
  endfacet
  facet normal 0 1 -0
    outer loop
      vertex 0 12 -1
      vertex -25 12 1
      vertex 0 12 1
    endloop
  endfacet
  facet normal 0 1 0
    outer loop
      vertex -25 12 1
      vertex 0 12 -1
      vertex -25 12 -1
    endloop
  endfacet
  facet normal 0 0 -1
    outer loop
      vertex -22.5 1.65 -1
      vertex -7.5 5.35 -1
      vertex -7.5 1.65 -1
    endloop
  endfacet
  facet normal -0 0 -1
    outer loop
      vertex -7.5 5.35 -1
      vertex -22.5 1.65 -1
      vertex -22.5 5.35 -1
    endloop
  endfacet
  facet normal 0 0 -1
    outer loop
      vertex -22.5 -5.35 -1
      vertex -7.5 -1.65 -1
      vertex -7.5 -5.35 -1
    endloop
  endfacet
  facet normal -0 0 -1
    outer loop
      vertex -7.5 -1.65 -1
      vertex -22.5 -5.35 -1
      vertex -22.5 -1.65 -1
    endloop
  endfacet
  facet normal 0 0 -1
    outer loop
      vertex -7.5 -8.65 -1
      vertex 0 -11.9343 -1
      vertex 0 -12 -1
    endloop
  endfacet
  facet normal 0 0 -1
    outer loop
      vertex 0 -11.9343 -1
      vertex -7.5 -8.65 -1
      vertex -0.469639 -3.26641 -1
    endloop
  endfacet
  facet normal -0 0 -1
    outer loop
      vertex -0.469639 -3.26641 -1
      vertex -7.5 -8.65 -1
      vertex -2.16104 -2.49397 -1
    endloop
  endfacet
  facet normal 0 0 -1
    outer loop
      vertex -7.5 -1.65 -1
      vertex -2.16104 -2.49397 -1
      vertex -7.5 -5.35 -1
    endloop
  endfacet
  facet normal 0 0 -1
    outer loop
      vertex -2.16104 -2.49397 -1
      vertex -7.5 -8.65 -1
      vertex -7.5 -5.35 -1
    endloop
  endfacet
  facet normal 0 0 -1
    outer loop
      vertex -25 -12 -1
      vertex -7.5 -8.65 -1
      vertex 0 -12 -1
    endloop
  endfacet
  facet normal 0 0 -1
    outer loop
      vertex -25 -12 -1
      vertex -22.5 -5.35 -1
      vertex -22.5 -8.65 -1
    endloop
  endfacet
  facet normal -0 0 -1
    outer loop
      vertex -22.5 -5.35 -1
      vertex -25 -12 -1
      vertex -22.5 -1.65 -1
    endloop
  endfacet
  facet normal -0 0 -1
    outer loop
      vertex -22.5 -1.65 -1
      vertex -25 -12 -1
      vertex -22.5 1.65 -1
    endloop
  endfacet
  facet normal 0 0 -1
    outer loop
      vertex -25 12 -1
      vertex -22.5 1.65 -1
      vertex -25 -12 -1
    endloop
  endfacet
  facet normal 0 0 -1
    outer loop
      vertex -22.5 1.65 -1
      vertex -25 12 -1
      vertex -22.5 5.35 -1
    endloop
  endfacet
  facet normal -0 0 -1
    outer loop
      vertex -7.5 -8.65 -1
      vertex -25 -12 -1
      vertex -22.5 -8.65 -1
    endloop
  endfacet
  facet normal 0 0 -1
    outer loop
      vertex 3.3 0 -1
      vertex 12 0 -1
      vertex 11.7378 -2.49494 -1
    endloop
  endfacet
  facet normal 0 0 -1
    outer loop
      vertex 2.77614 -1.78411 -1
      vertex 11.7378 -2.49494 -1
      vertex 10.9625 -4.88084 -1
    endloop
  endfacet
  facet normal 0 0 -1
    outer loop
      vertex 12 0 -1
      vertex 3.3 0 -1
      vertex 11.7378 2.49494 -1
    endloop
  endfacet
  facet normal 0 0 -1
    outer loop
      vertex 2.77614 -1.78411 -1
      vertex 10.9625 -4.88084 -1
      vertex 9.7082 -7.05342 -1
    endloop
  endfacet
  facet normal 0 0 -1
    outer loop
      vertex 2.77614 1.78411 -1
      vertex 11.7378 2.49494 -1
      vertex 3.3 0 -1
    endloop
  endfacet
  facet normal 0 0 -1
    outer loop
      vertex 2.77614 -1.78411 -1
      vertex 9.7082 -7.05342 -1
      vertex 8.02957 -8.91774 -1
    endloop
  endfacet
  facet normal -0 0 -1
    outer loop
      vertex 11.7378 2.49494 -1
      vertex 2.77614 1.78411 -1
      vertex 10.9625 4.88084 -1
    endloop
  endfacet
  facet normal 0 0 -1
    outer loop
      vertex 1.37087 -3.00179 -1
      vertex 8.02957 -8.91774 -1
      vertex 6 -10.3923 -1
    endloop
  endfacet
  facet normal -0 0 -1
    outer loop
      vertex 10.9625 4.88084 -1
      vertex 2.77614 1.78411 -1
      vertex 9.7082 7.05342 -1
    endloop
  endfacet
  facet normal 0 0 -1
    outer loop
      vertex 1.37087 -3.00179 -1
      vertex 6 -10.3923 -1
      vertex 3.7082 -11.4127 -1
    endloop
  endfacet
  facet normal -0 0 -1
    outer loop
      vertex 9.7082 7.05342 -1
      vertex 2.77614 1.78411 -1
      vertex 8.02957 8.91774 -1
    endloop
  endfacet
  facet normal 0 0 -1
    outer loop
      vertex 1.37087 3.00179 -1
      vertex 8.02957 8.91774 -1
      vertex 2.77614 1.78411 -1
    endloop
  endfacet
  facet normal 0 0 -1
    outer loop
      vertex 11.7378 -2.49494 -1
      vertex 2.77614 -1.78411 -1
      vertex 3.3 0 -1
    endloop
  endfacet
  facet normal 0 0 -1
    outer loop
      vertex 8.02957 -8.91774 -1
      vertex 1.37087 -3.00179 -1
      vertex 2.77614 -1.78411 -1
    endloop
  endfacet
  facet normal 0 0 -1
    outer loop
      vertex 1.25434 -11.9343 -1
      vertex 1.37087 -3.00179 -1
      vertex 3.7082 -11.4127 -1
    endloop
  endfacet
  facet normal 0 0 -1
    outer loop
      vertex -0.469639 -3.26641 -1
      vertex 1.25434 -11.9343 -1
      vertex 0 -11.9343 -1
    endloop
  endfacet
  facet normal 0 0 -1
    outer loop
      vertex 1.25434 -11.9343 -1
      vertex -0.469639 -3.26641 -1
      vertex 1.37087 -3.00179 -1
    endloop
  endfacet
  facet normal -0 0 -1
    outer loop
      vertex 8.02957 8.91774 -1
      vertex 1.37087 3.00179 -1
      vertex 6 10.3923 -1
    endloop
  endfacet
  facet normal -0 0 -1
    outer loop
      vertex 6 10.3923 -1
      vertex 1.37087 3.00179 -1
      vertex 3.7082 11.4127 -1
    endloop
  endfacet
  facet normal 0 0 -1
    outer loop
      vertex 1.37087 3.00179 -1
      vertex 1.25434 11.9343 -1
      vertex 3.7082 11.4127 -1
    endloop
  endfacet
  facet normal 0 0 -1
    outer loop
      vertex -0.469639 3.26641 -1
      vertex 1.25434 11.9343 -1
      vertex 1.37087 3.00179 -1
    endloop
  endfacet
  facet normal -0 0 -1
    outer loop
      vertex 1.25434 11.9343 -1
      vertex -0.469639 3.26641 -1
      vertex 0 11.9343 -1
    endloop
  endfacet
  facet normal 0 0 -1
    outer loop
      vertex -7.5 8.65 -1
      vertex 0 11.9343 -1
      vertex -0.469639 3.26641 -1
    endloop
  endfacet
  facet normal 0 0 -1
    outer loop
      vertex -7.5 8.65 -1
      vertex -0.469639 3.26641 -1
      vertex -2.16104 2.49397 -1
    endloop
  endfacet
  facet normal 0 0 -1
    outer loop
      vertex -7.5 1.65 -1
      vertex -2.16104 2.49397 -1
      vertex -3.16633 0.929717 -1
    endloop
  endfacet
  facet normal 0 0 -1
    outer loop
      vertex -2.16104 -2.49397 -1
      vertex -7.5 -1.65 -1
      vertex -3.16633 -0.929717 -1
    endloop
  endfacet
  facet normal -0 0 -1
    outer loop
      vertex -3.16633 -0.929717 -1
      vertex -7.5 -1.65 -1
      vertex -3.16633 0.929717 -1
    endloop
  endfacet
  facet normal 0 0 -1
    outer loop
      vertex -7.5 1.65 -1
      vertex -3.16633 0.929717 -1
      vertex -7.5 -1.65 -1
    endloop
  endfacet
  facet normal -0 0 -1
    outer loop
      vertex -2.16104 2.49397 -1
      vertex -7.5 1.65 -1
      vertex -7.5 5.35 -1
    endloop
  endfacet
  facet normal 0 0 -1
    outer loop
      vertex -7.5 8.65 -1
      vertex -2.16104 2.49397 -1
      vertex -7.5 5.35 -1
    endloop
  endfacet
  facet normal -0 0 -1
    outer loop
      vertex 0 11.9343 -1
      vertex -7.5 8.65 -1
      vertex 0 12 -1
    endloop
  endfacet
  facet normal 0 0 -1
    outer loop
      vertex -25 12 -1
      vertex -7.5 8.65 -1
      vertex -22.5 8.65 -1
    endloop
  endfacet
  facet normal 0 0 -1
    outer loop
      vertex -7.5 8.65 -1
      vertex -25 12 -1
      vertex 0 12 -1
    endloop
  endfacet
  facet normal 0 0 -1
    outer loop
      vertex -22.5 5.35 -1
      vertex -25 12 -1
      vertex -22.5 8.65 -1
    endloop
  endfacet
  facet normal 0 -1 0
    outer loop
      vertex -25 -12 -1
      vertex 0 -12 1
      vertex -25 -12 1
    endloop
  endfacet
  facet normal 0 -1 -0
    outer loop
      vertex 0 -12 1
      vertex -25 -12 -1
      vertex 0 -12 -1
    endloop
  endfacet
  facet normal 0.994522 0.104529 0
    outer loop
      vertex 12 0 1
      vertex 11.7378 2.49494 -1
      vertex 11.7378 2.49494 1
    endloop
  endfacet
  facet normal 0.994522 0.104529 0
    outer loop
      vertex 11.7378 2.49494 -1
      vertex 12 0 1
      vertex 12 0 -1
    endloop
  endfacet
  facet normal 0 1 -0
    outer loop
      vertex 1.25434 11.9343 -1
      vertex 0 11.9343 1
      vertex 1.25434 11.9343 1
    endloop
  endfacet
  facet normal 0 1 0
    outer loop
      vertex 0 11.9343 1
      vertex 1.25434 11.9343 -1
      vertex 0 11.9343 -1
    endloop
  endfacet
  facet normal 0 -1 0
    outer loop
      vertex 0 -11.9343 -1
      vertex 1.25434 -11.9343 1
      vertex 0 -11.9343 1
    endloop
  endfacet
  facet normal 0 -1 -0
    outer loop
      vertex 1.25434 -11.9343 1
      vertex 0 -11.9343 -1
      vertex 1.25434 -11.9343 -1
    endloop
  endfacet
  facet normal 0.587785 0.809017 -0
    outer loop
      vertex 8.02957 8.91774 -1
      vertex 6 10.3923 1
      vertex 8.02957 8.91774 1
    endloop
  endfacet
  facet normal 0.587785 0.809017 0
    outer loop
      vertex 6 10.3923 1
      vertex 8.02957 8.91774 -1
      vertex 6 10.3923 -1
    endloop
  endfacet
  facet normal 0.406737 0.913545 -0
    outer loop
      vertex 6 10.3923 -1
      vertex 3.7082 11.4127 1
      vertex 6 10.3923 1
    endloop
  endfacet
  facet normal 0.406737 0.913545 0
    outer loop
      vertex 3.7082 11.4127 1
      vertex 6 10.3923 -1
      vertex 3.7082 11.4127 -1
    endloop
  endfacet
  facet normal 0.866025 -0.5 0
    outer loop
      vertex 9.7082 -7.05342 1
      vertex 10.9625 -4.88084 -1
      vertex 10.9625 -4.88084 1
    endloop
  endfacet
  facet normal 0.866025 -0.5 0
    outer loop
      vertex 10.9625 -4.88084 -1
      vertex 9.7082 -7.05342 1
      vertex 9.7082 -7.05342 -1
    endloop
  endfacet
  facet normal 0.866025 0.5 0
    outer loop
      vertex 10.9625 4.88084 1
      vertex 9.7082 7.05342 -1
      vertex 9.7082 7.05342 1
    endloop
  endfacet
  facet normal 0.866025 0.5 0
    outer loop
      vertex 9.7082 7.05342 -1
      vertex 10.9625 4.88084 1
      vertex 10.9625 4.88084 -1
    endloop
  endfacet
  facet normal 0.951057 0.309017 0
    outer loop
      vertex 11.7378 2.49494 1
      vertex 10.9625 4.88084 -1
      vertex 10.9625 4.88084 1
    endloop
  endfacet
  facet normal 0.951057 0.309017 0
    outer loop
      vertex 10.9625 4.88084 -1
      vertex 11.7378 2.49494 1
      vertex 11.7378 2.49494 -1
    endloop
  endfacet
  facet normal 0.743145 0.669131 0
    outer loop
      vertex 9.7082 7.05342 1
      vertex 8.02957 8.91774 -1
      vertex 8.02957 8.91774 1
    endloop
  endfacet
  facet normal 0.743145 0.669131 0
    outer loop
      vertex 8.02957 8.91774 -1
      vertex 9.7082 7.05342 1
      vertex 9.7082 7.05342 -1
    endloop
  endfacet
  facet normal 0.207912 0.978148 -0
    outer loop
      vertex 3.7082 11.4127 -1
      vertex 1.25434 11.9343 1
      vertex 3.7082 11.4127 1
    endloop
  endfacet
  facet normal 0.207912 0.978148 0
    outer loop
      vertex 1.25434 11.9343 1
      vertex 3.7082 11.4127 -1
      vertex 1.25434 11.9343 -1
    endloop
  endfacet
  facet normal 0.994522 -0.104529 0
    outer loop
      vertex 11.7378 -2.49494 1
      vertex 12 0 -1
      vertex 12 0 1
    endloop
  endfacet
  facet normal 0.994522 -0.104529 0
    outer loop
      vertex 12 0 -1
      vertex 11.7378 -2.49494 1
      vertex 11.7378 -2.49494 -1
    endloop
  endfacet
  facet normal 0.207912 -0.978148 0
    outer loop
      vertex 1.25434 -11.9343 -1
      vertex 3.7082 -11.4127 1
      vertex 1.25434 -11.9343 1
    endloop
  endfacet
  facet normal 0.207912 -0.978148 0
    outer loop
      vertex 3.7082 -11.4127 1
      vertex 1.25434 -11.9343 -1
      vertex 3.7082 -11.4127 -1
    endloop
  endfacet
  facet normal 0.743145 -0.669131 0
    outer loop
      vertex 8.02957 -8.91774 1
      vertex 9.7082 -7.05342 -1
      vertex 9.7082 -7.05342 1
    endloop
  endfacet
  facet normal 0.743145 -0.669131 0
    outer loop
      vertex 9.7082 -7.05342 -1
      vertex 8.02957 -8.91774 1
      vertex 8.02957 -8.91774 -1
    endloop
  endfacet
  facet normal 0.951057 -0.309017 0
    outer loop
      vertex 10.9625 -4.88084 1
      vertex 11.7378 -2.49494 -1
      vertex 11.7378 -2.49494 1
    endloop
  endfacet
  facet normal 0.951057 -0.309017 0
    outer loop
      vertex 11.7378 -2.49494 -1
      vertex 10.9625 -4.88084 1
      vertex 10.9625 -4.88084 -1
    endloop
  endfacet
  facet normal 0.587785 -0.809017 0
    outer loop
      vertex 6 -10.3923 -1
      vertex 8.02957 -8.91774 1
      vertex 6 -10.3923 1
    endloop
  endfacet
  facet normal 0.587785 -0.809017 0
    outer loop
      vertex 8.02957 -8.91774 1
      vertex 6 -10.3923 -1
      vertex 8.02957 -8.91774 -1
    endloop
  endfacet
  facet normal 0.406737 -0.913545 0
    outer loop
      vertex 3.7082 -11.4127 -1
      vertex 6 -10.3923 1
      vertex 3.7082 -11.4127 1
    endloop
  endfacet
  facet normal 0.406737 -0.913545 0
    outer loop
      vertex 6 -10.3923 1
      vertex 3.7082 -11.4127 -1
      vertex 6 -10.3923 -1
    endloop
  endfacet
  facet normal 1 -0 0
    outer loop
      vertex -22.5 -1.65 1
      vertex -22.5 1.65 -1
      vertex -22.5 1.65 1
    endloop
  endfacet
  facet normal 1 0 0
    outer loop
      vertex -22.5 1.65 -1
      vertex -22.5 -1.65 1
      vertex -22.5 -1.65 -1
    endloop
  endfacet
  facet normal -1 0 0
    outer loop
      vertex -7.5 -1.65 -1
      vertex -7.5 1.65 1
      vertex -7.5 1.65 -1
    endloop
  endfacet
  facet normal -1 -0 0
    outer loop
      vertex -7.5 1.65 1
      vertex -7.5 -1.65 -1
      vertex -7.5 -1.65 1
    endloop
  endfacet
  facet normal 0 -1 0
    outer loop
      vertex -22.5 1.65 -1
      vertex -7.5 1.65 1
      vertex -22.5 1.65 1
    endloop
  endfacet
  facet normal 0 -1 -0
    outer loop
      vertex -7.5 1.65 1
      vertex -22.5 1.65 -1
      vertex -7.5 1.65 -1
    endloop
  endfacet
  facet normal 0 1 -0
    outer loop
      vertex -7.5 -1.65 -1
      vertex -22.5 -1.65 1
      vertex -7.5 -1.65 1
    endloop
  endfacet
  facet normal 0 1 0
    outer loop
      vertex -22.5 -1.65 1
      vertex -7.5 -1.65 -1
      vertex -22.5 -1.65 -1
    endloop
  endfacet
  facet normal 1 -0 0
    outer loop
      vertex -22.5 5.35 1
      vertex -22.5 8.65 -1
      vertex -22.5 8.65 1
    endloop
  endfacet
  facet normal 1 0 0
    outer loop
      vertex -22.5 8.65 -1
      vertex -22.5 5.35 1
      vertex -22.5 5.35 -1
    endloop
  endfacet
  facet normal -1 0 0
    outer loop
      vertex -7.5 5.35 -1
      vertex -7.5 8.65 1
      vertex -7.5 8.65 -1
    endloop
  endfacet
  facet normal -1 -0 0
    outer loop
      vertex -7.5 8.65 1
      vertex -7.5 5.35 -1
      vertex -7.5 5.35 1
    endloop
  endfacet
  facet normal 0 -1 0
    outer loop
      vertex -22.5 8.65 -1
      vertex -7.5 8.65 1
      vertex -22.5 8.65 1
    endloop
  endfacet
  facet normal 0 -1 -0
    outer loop
      vertex -7.5 8.65 1
      vertex -22.5 8.65 -1
      vertex -7.5 8.65 -1
    endloop
  endfacet
  facet normal 0 1 -0
    outer loop
      vertex -7.5 5.35 -1
      vertex -22.5 5.35 1
      vertex -7.5 5.35 1
    endloop
  endfacet
  facet normal 0 1 0
    outer loop
      vertex -22.5 5.35 1
      vertex -7.5 5.35 -1
      vertex -22.5 5.35 -1
    endloop
  endfacet
  facet normal 1 -0 0
    outer loop
      vertex -22.5 -8.65 1
      vertex -22.5 -5.35 -1
      vertex -22.5 -5.35 1
    endloop
  endfacet
  facet normal 1 0 0
    outer loop
      vertex -22.5 -5.35 -1
      vertex -22.5 -8.65 1
      vertex -22.5 -8.65 -1
    endloop
  endfacet
  facet normal -1 0 0
    outer loop
      vertex -7.5 -8.65 -1
      vertex -7.5 -5.35 1
      vertex -7.5 -5.35 -1
    endloop
  endfacet
  facet normal -1 -0 0
    outer loop
      vertex -7.5 -5.35 1
      vertex -7.5 -8.65 -1
      vertex -7.5 -8.65 1
    endloop
  endfacet
  facet normal 0 -1 0
    outer loop
      vertex -22.5 -5.35 -1
      vertex -7.5 -5.35 1
      vertex -22.5 -5.35 1
    endloop
  endfacet
  facet normal 0 -1 -0
    outer loop
      vertex -7.5 -5.35 1
      vertex -22.5 -5.35 -1
      vertex -7.5 -5.35 -1
    endloop
  endfacet
  facet normal 0 1 -0
    outer loop
      vertex -7.5 -8.65 -1
      vertex -22.5 -8.65 1
      vertex -7.5 -8.65 1
    endloop
  endfacet
  facet normal 0 1 0
    outer loop
      vertex -22.5 -8.65 1
      vertex -7.5 -8.65 -1
      vertex -22.5 -8.65 -1
    endloop
  endfacet
  facet normal -0.959493 -0.281732 0
    outer loop
      vertex 3.3 0 -1
      vertex 2.77614 1.78411 1
      vertex 2.77614 1.78411 -1
    endloop
  endfacet
  facet normal -0.959493 -0.281732 0
    outer loop
      vertex 2.77614 1.78411 1
      vertex 3.3 0 -1
      vertex 3.3 0 1
    endloop
  endfacet
  facet normal 1 -0 0
    outer loop
      vertex -3.16633 -0.929717 1
      vertex -3.16633 0.929717 -1
      vertex -3.16633 0.929717 1
    endloop
  endfacet
  facet normal 1 0 0
    outer loop
      vertex -3.16633 0.929717 -1
      vertex -3.16633 -0.929717 1
      vertex -3.16633 -0.929717 -1
    endloop
  endfacet
  facet normal -0.142315 -0.989821 0
    outer loop
      vertex -0.469639 3.26641 -1
      vertex 1.37087 3.00179 1
      vertex -0.469639 3.26641 1
    endloop
  endfacet
  facet normal -0.142315 -0.989821 -0
    outer loop
      vertex 1.37087 3.00179 1
      vertex -0.469639 3.26641 -1
      vertex 1.37087 3.00179 -1
    endloop
  endfacet
  facet normal -0.654861 -0.75575 0
    outer loop
      vertex 1.37087 3.00179 -1
      vertex 2.77614 1.78411 1
      vertex 1.37087 3.00179 1
    endloop
  endfacet
  facet normal -0.654861 -0.75575 -0
    outer loop
      vertex 2.77614 1.78411 1
      vertex 1.37087 3.00179 -1
      vertex 2.77614 1.78411 -1
    endloop
  endfacet
  facet normal 0.415415 -0.909632 0
    outer loop
      vertex -2.16104 2.49397 -1
      vertex -0.469639 3.26641 1
      vertex -2.16104 2.49397 1
    endloop
  endfacet
  facet normal 0.415415 -0.909632 0
    outer loop
      vertex -0.469639 3.26641 1
      vertex -2.16104 2.49397 -1
      vertex -0.469639 3.26641 -1
    endloop
  endfacet
  facet normal -0.654861 0.75575 0
    outer loop
      vertex 2.77614 -1.78411 -1
      vertex 1.37087 -3.00179 1
      vertex 2.77614 -1.78411 1
    endloop
  endfacet
  facet normal -0.654861 0.75575 0
    outer loop
      vertex 1.37087 -3.00179 1
      vertex 2.77614 -1.78411 -1
      vertex 1.37087 -3.00179 -1
    endloop
  endfacet
  facet normal -0.142315 0.989821 0
    outer loop
      vertex 1.37087 -3.00179 -1
      vertex -0.469639 -3.26641 1
      vertex 1.37087 -3.00179 1
    endloop
  endfacet
  facet normal -0.142315 0.989821 0
    outer loop
      vertex -0.469639 -3.26641 1
      vertex 1.37087 -3.00179 -1
      vertex -0.469639 -3.26641 -1
    endloop
  endfacet
  facet normal 0.841254 0.540641 0
    outer loop
      vertex -2.16104 -2.49397 1
      vertex -3.16633 -0.929717 -1
      vertex -3.16633 -0.929717 1
    endloop
  endfacet
  facet normal 0.841254 0.540641 0
    outer loop
      vertex -3.16633 -0.929717 -1
      vertex -2.16104 -2.49397 1
      vertex -2.16104 -2.49397 -1
    endloop
  endfacet
  facet normal -0.959493 0.281732 0
    outer loop
      vertex 2.77614 -1.78411 -1
      vertex 3.3 0 1
      vertex 3.3 0 -1
    endloop
  endfacet
  facet normal -0.959493 0.281732 0
    outer loop
      vertex 3.3 0 1
      vertex 2.77614 -1.78411 -1
      vertex 2.77614 -1.78411 1
    endloop
  endfacet
  facet normal 0.415415 0.909632 -0
    outer loop
      vertex -0.469639 -3.26641 -1
      vertex -2.16104 -2.49397 1
      vertex -0.469639 -3.26641 1
    endloop
  endfacet
  facet normal 0.415415 0.909632 0
    outer loop
      vertex -2.16104 -2.49397 1
      vertex -0.469639 -3.26641 -1
      vertex -2.16104 -2.49397 -1
    endloop
  endfacet
  facet normal 0.841254 -0.540641 0
    outer loop
      vertex -3.16633 0.929717 1
      vertex -2.16104 2.49397 -1
      vertex -2.16104 2.49397 1
    endloop
  endfacet
  facet normal 0.841254 -0.540641 0
    outer loop
      vertex -2.16104 2.49397 -1
      vertex -3.16633 0.929717 1
      vertex -3.16633 0.929717 -1
    endloop
  endfacet
endsolid OpenSCAD_Model
