solid OpenSCAD_Model
  facet normal -1 0 0
    outer loop
      vertex -93 -12 -1
      vertex -93 -11.9343 1
      vertex -93 -11.9343 -1
    endloop
  endfacet
  facet normal -1 -0 0
    outer loop
      vertex -93 -11.9343 1
      vertex -93 -12 -1
      vertex -93 -12 1
    endloop
  endfacet
  facet normal -1 0 0
    outer loop
      vertex -93 11.9343 -1
      vertex -93 12 1
      vertex -93 12 -1
    endloop
  endfacet
  facet normal -1 -0 0
    outer loop
      vertex -93 12 1
      vertex -93 11.9343 -1
      vertex -93 11.9343 1
    endloop
  endfacet
  facet normal -0 0 1
    outer loop
      vertex -93.4981 -3.46437 1
      vertex -93 -11.9343 1
      vertex -91.5461 -3.18371 1
    endloop
  endfacet
  facet normal 0 0 1
    outer loop
      vertex -93.4981 -3.46437 1
      vertex -94.2543 -11.9343 1
      vertex -93 -11.9343 1
    endloop
  endfacet
  facet normal 0 0 1
    outer loop
      vertex -99 -10.3923 1
      vertex -93.4981 -3.46437 1
      vertex -95.292 -2.64512 1
    endloop
  endfacet
  facet normal 0 0 1
    outer loop
      vertex -102.708 -7.05342 1
      vertex -95.292 -2.64512 1
      vertex -96.3582 -0.986063 1
    endloop
  endfacet
  facet normal 0 0 1
    outer loop
      vertex -93.4981 -3.46437 1
      vertex -96.7082 -11.4127 1
      vertex -94.2543 -11.9343 1
    endloop
  endfacet
  facet normal -0 0 1
    outer loop
      vertex -102.708 7.05342 1
      vertex -95.292 2.64512 1
      vertex -101.03 8.91774 1
    endloop
  endfacet
  facet normal 0 0 1
    outer loop
      vertex -95.292 2.64512 1
      vertex -102.708 7.05342 1
      vertex -96.3582 0.986063 1
    endloop
  endfacet
  facet normal 0 0 1
    outer loop
      vertex -93.4981 -3.46437 1
      vertex -99 -10.3923 1
      vertex -96.7082 -11.4127 1
    endloop
  endfacet
  facet normal -0 0 1
    outer loop
      vertex -103.963 4.88084 1
      vertex -96.3582 0.986063 1
      vertex -102.708 7.05342 1
    endloop
  endfacet
  facet normal 0 0 1
    outer loop
      vertex -95.292 -2.64512 1
      vertex -101.03 -8.91774 1
      vertex -99 -10.3923 1
    endloop
  endfacet
  facet normal -0 0 1
    outer loop
      vertex -104.738 2.49494 1
      vertex -96.3582 0.986063 1
      vertex -103.963 4.88084 1
    endloop
  endfacet
  facet normal 0 0 1
    outer loop
      vertex -95.292 -2.64512 1
      vertex -102.708 -7.05342 1
      vertex -101.03 -8.91774 1
    endloop
  endfacet
  facet normal 0 0 1
    outer loop
      vertex -105 0 1
      vertex -96.3582 0.986063 1
      vertex -104.738 2.49494 1
    endloop
  endfacet
  facet normal 0 0 1
    outer loop
      vertex -96.3582 -0.986063 1
      vertex -103.963 -4.88084 1
      vertex -102.708 -7.05342 1
    endloop
  endfacet
  facet normal 0 0 1
    outer loop
      vertex -96.3582 0.986063 1
      vertex -105 0 1
      vertex -96.3582 -0.986063 1
    endloop
  endfacet
  facet normal 0 0 1
    outer loop
      vertex -96.3582 -0.986063 1
      vertex -104.738 -2.49494 1
      vertex -103.963 -4.88084 1
    endloop
  endfacet
  facet normal 0 0 1
    outer loop
      vertex -96.3582 -0.986063 1
      vertex -105 0 1
      vertex -104.738 -2.49494 1
    endloop
  endfacet
  facet normal -0 0 1
    outer loop
      vertex -79.05 3 1
      vertex -13.95 -3 1
      vertex -13.95 3 1
    endloop
  endfacet
  facet normal 0 0 1
    outer loop
      vertex -13.95 -3 1
      vertex -79.05 3 1
      vertex -79.05 -3 1
    endloop
  endfacet
  facet normal 0 0 1
    outer loop
      vertex -13.95 7 1
      vertex 0 11.9343 1
      vertex 0 12 1
    endloop
  endfacet
  facet normal 0 0 1
    outer loop
      vertex 0 11.9343 1
      vertex -2.29201 2.64512 1
      vertex -0.498101 3.46437 1
    endloop
  endfacet
  facet normal 0 0 1
    outer loop
      vertex 0 11.9343 1
      vertex -13.95 7 1
      vertex -2.29201 2.64512 1
    endloop
  endfacet
  facet normal -0 0 1
    outer loop
      vertex -13.95 3 1
      vertex -3.35822 0.986063 1
      vertex -13.95 7 1
    endloop
  endfacet
  facet normal 0 0 1
    outer loop
      vertex -2.29201 2.64512 1
      vertex -13.95 7 1
      vertex -3.35822 0.986063 1
    endloop
  endfacet
  facet normal 0 0 1
    outer loop
      vertex 0 12 1
      vertex -79.05 7 1
      vertex -13.95 7 1
    endloop
  endfacet
  facet normal 0 0 1
    outer loop
      vertex -90.0556 1.89224 1
      vertex -79.05 3 1
      vertex -79.05 7 1
    endloop
  endfacet
  facet normal 0 0 1
    outer loop
      vertex -79.05 3 1
      vertex -89.5 0 1
      vertex -79.05 -3 1
    endloop
  endfacet
  facet normal -0 0 1
    outer loop
      vertex -90.0556 -1.89224 1
      vertex -79.05 -3 1
      vertex -89.5 0 1
    endloop
  endfacet
  facet normal 0 0 1
    outer loop
      vertex -79.05 3 1
      vertex -90.0556 1.89224 1
      vertex -89.5 0 1
    endloop
  endfacet
  facet normal 0 0 1
    outer loop
      vertex -79.05 7 1
      vertex -91.5461 3.18371 1
      vertex -90.0556 1.89224 1
    endloop
  endfacet
  facet normal -0 0 1
    outer loop
      vertex -93 12 1
      vertex -79.05 7 1
      vertex 0 12 1
    endloop
  endfacet
  facet normal -0 0 1
    outer loop
      vertex -93 11.9343 1
      vertex -79.05 7 1
      vertex -93 12 1
    endloop
  endfacet
  facet normal 0 0 1
    outer loop
      vertex -79.05 7 1
      vertex -93 11.9343 1
      vertex -91.5461 3.18371 1
    endloop
  endfacet
  facet normal 0 0 1
    outer loop
      vertex -93 11.9343 1
      vertex -93.4981 3.46437 1
      vertex -91.5461 3.18371 1
    endloop
  endfacet
  facet normal -0 0 1
    outer loop
      vertex -94.2543 11.9343 1
      vertex -93.4981 3.46437 1
      vertex -93 11.9343 1
    endloop
  endfacet
  facet normal -0 0 1
    outer loop
      vertex -96.7082 11.4127 1
      vertex -93.4981 3.46437 1
      vertex -94.2543 11.9343 1
    endloop
  endfacet
  facet normal -0 0 1
    outer loop
      vertex -99 10.3923 1
      vertex -93.4981 3.46437 1
      vertex -96.7082 11.4127 1
    endloop
  endfacet
  facet normal -0 0 1
    outer loop
      vertex -101.03 8.91774 1
      vertex -95.292 2.64512 1
      vertex -99 10.3923 1
    endloop
  endfacet
  facet normal 0 0 1
    outer loop
      vertex -93.4981 3.46437 1
      vertex -99 10.3923 1
      vertex -95.292 2.64512 1
    endloop
  endfacet
  facet normal 0 0 1
    outer loop
      vertex 3.5 0 1
      vertex 12 0 1
      vertex 11.7378 2.49494 1
    endloop
  endfacet
  facet normal 0 0 1
    outer loop
      vertex 2.94439 1.89224 1
      vertex 11.7378 2.49494 1
      vertex 10.9625 4.88084 1
    endloop
  endfacet
  facet normal 0 0 1
    outer loop
      vertex 12 0 1
      vertex 3.5 0 1
      vertex 11.7378 -2.49494 1
    endloop
  endfacet
  facet normal 0 0 1
    outer loop
      vertex 2.94439 1.89224 1
      vertex 10.9625 4.88084 1
      vertex 9.7082 7.05342 1
    endloop
  endfacet
  facet normal -0 0 1
    outer loop
      vertex 2.94439 -1.89224 1
      vertex 11.7378 -2.49494 1
      vertex 3.5 0 1
    endloop
  endfacet
  facet normal 0 0 1
    outer loop
      vertex 2.94439 1.89224 1
      vertex 9.7082 7.05342 1
      vertex 8.02957 8.91774 1
    endloop
  endfacet
  facet normal 0 0 1
    outer loop
      vertex 11.7378 -2.49494 1
      vertex 2.94439 -1.89224 1
      vertex 10.9625 -4.88084 1
    endloop
  endfacet
  facet normal 0 0 1
    outer loop
      vertex 1.45395 3.18371 1
      vertex 8.02957 8.91774 1
      vertex 6 10.3923 1
    endloop
  endfacet
  facet normal 0 0 1
    outer loop
      vertex 10.9625 -4.88084 1
      vertex 2.94439 -1.89224 1
      vertex 9.7082 -7.05342 1
    endloop
  endfacet
  facet normal 0 0 1
    outer loop
      vertex 1.45395 3.18371 1
      vertex 6 10.3923 1
      vertex 3.7082 11.4127 1
    endloop
  endfacet
  facet normal 0 0 1
    outer loop
      vertex 9.7082 -7.05342 1
      vertex 2.94439 -1.89224 1
      vertex 8.02957 -8.91774 1
    endloop
  endfacet
  facet normal -0 0 1
    outer loop
      vertex 1.45395 -3.18371 1
      vertex 8.02957 -8.91774 1
      vertex 2.94439 -1.89224 1
    endloop
  endfacet
  facet normal 0 0 1
    outer loop
      vertex 11.7378 2.49494 1
      vertex 2.94439 1.89224 1
      vertex 3.5 0 1
    endloop
  endfacet
  facet normal 0 0 1
    outer loop
      vertex 8.02957 8.91774 1
      vertex 1.45395 3.18371 1
      vertex 2.94439 1.89224 1
    endloop
  endfacet
  facet normal 0 0 1
    outer loop
      vertex 1.25434 11.9343 1
      vertex 1.45395 3.18371 1
      vertex 3.7082 11.4127 1
    endloop
  endfacet
  facet normal 0 0 1
    outer loop
      vertex -0.498101 3.46437 1
      vertex 1.25434 11.9343 1
      vertex 0 11.9343 1
    endloop
  endfacet
  facet normal 0 0 1
    outer loop
      vertex 1.25434 11.9343 1
      vertex -0.498101 3.46437 1
      vertex 1.45395 3.18371 1
    endloop
  endfacet
  facet normal 0 0 1
    outer loop
      vertex 8.02957 -8.91774 1
      vertex 1.45395 -3.18371 1
      vertex 6 -10.3923 1
    endloop
  endfacet
  facet normal 0 0 1
    outer loop
      vertex 6 -10.3923 1
      vertex 1.45395 -3.18371 1
      vertex 3.7082 -11.4127 1
    endloop
  endfacet
  facet normal 0 0 1
    outer loop
      vertex 1.45395 -3.18371 1
      vertex 1.25434 -11.9343 1
      vertex 3.7082 -11.4127 1
    endloop
  endfacet
  facet normal -0 0 1
    outer loop
      vertex -0.498101 -3.46437 1
      vertex 1.25434 -11.9343 1
      vertex 1.45395 -3.18371 1
    endloop
  endfacet
  facet normal 0 0 1
    outer loop
      vertex 1.25434 -11.9343 1
      vertex -0.498101 -3.46437 1
      vertex 0 -11.9343 1
    endloop
  endfacet
  facet normal 0 0 1
    outer loop
      vertex -2.29201 -2.64512 1
      vertex 0 -11.9343 1
      vertex -0.498101 -3.46437 1
    endloop
  endfacet
  facet normal -0 0 1
    outer loop
      vertex -13.95 -7 1
      vertex 0 -11.9343 1
      vertex -2.29201 -2.64512 1
    endloop
  endfacet
  facet normal 0 0 1
    outer loop
      vertex -13.95 -7 1
      vertex -2.29201 -2.64512 1
      vertex -3.35822 -0.986063 1
    endloop
  endfacet
  facet normal 0 0 1
    outer loop
      vertex -3.35822 0.986063 1
      vertex -13.95 3 1
      vertex -3.35822 -0.986063 1
    endloop
  endfacet
  facet normal 0 0 1
    outer loop
      vertex -13.95 -3 1
      vertex -3.35822 -0.986063 1
      vertex -13.95 3 1
    endloop
  endfacet
  facet normal 0 0 1
    outer loop
      vertex -13.95 -7 1
      vertex -3.35822 -0.986063 1
      vertex -13.95 -3 1
    endloop
  endfacet
  facet normal 0 0 1
    outer loop
      vertex 0 -11.9343 1
      vertex -13.95 -7 1
      vertex 0 -12 1
    endloop
  endfacet
  facet normal -0 0 1
    outer loop
      vertex -79.05 -7 1
      vertex 0 -12 1
      vertex -13.95 -7 1
    endloop
  endfacet
  facet normal 0 0 1
    outer loop
      vertex -79.05 -3 1
      vertex -90.0556 -1.89224 1
      vertex -79.05 -7 1
    endloop
  endfacet
  facet normal -0 0 1
    outer loop
      vertex -91.5461 -3.18371 1
      vertex -79.05 -7 1
      vertex -90.0556 -1.89224 1
    endloop
  endfacet
  facet normal 0 0 1
    outer loop
      vertex -93 -11.9343 1
      vertex -79.05 -7 1
      vertex -91.5461 -3.18371 1
    endloop
  endfacet
  facet normal 0 0 1
    outer loop
      vertex -93 -12 1
      vertex -79.05 -7 1
      vertex -93 -11.9343 1
    endloop
  endfacet
  facet normal 0 0 1
    outer loop
      vertex -79.05 -7 1
      vertex -93 -12 1
      vertex 0 -12 1
    endloop
  endfacet
  facet normal 1 -0 0
    outer loop
      vertex 0 -12 1
      vertex 0 -11.9343 -1
      vertex 0 -11.9343 1
    endloop
  endfacet
  facet normal 1 0 0
    outer loop
      vertex 0 -11.9343 -1
      vertex 0 -12 1
      vertex 0 -12 -1
    endloop
  endfacet
  facet normal 1 -0 0
    outer loop
      vertex 0 11.9343 1
      vertex 0 12 -1
      vertex 0 12 1
    endloop
  endfacet
  facet normal 1 0 0
    outer loop
      vertex 0 12 -1
      vertex 0 11.9343 1
      vertex 0 11.9343 -1
    endloop
  endfacet
  facet normal 0 1 -0
    outer loop
      vertex 0 12 -1
      vertex -93 12 1
      vertex 0 12 1
    endloop
  endfacet
  facet normal 0 1 0
    outer loop
      vertex -93 12 1
      vertex 0 12 -1
      vertex -93 12 -1
    endloop
  endfacet
  facet normal 0 0 -1
    outer loop
      vertex -93.4981 3.46437 -1
      vertex -93 11.9343 -1
      vertex -91.5461 3.18371 -1
    endloop
  endfacet
  facet normal 0 0 -1
    outer loop
      vertex -93.4981 3.46437 -1
      vertex -94.2543 11.9343 -1
      vertex -93 11.9343 -1
    endloop
  endfacet
  facet normal 0 0 -1
    outer loop
      vertex -99 10.3923 -1
      vertex -93.4981 3.46437 -1
      vertex -95.292 2.64512 -1
    endloop
  endfacet
  facet normal 0 0 -1
    outer loop
      vertex -102.708 7.05342 -1
      vertex -95.292 2.64512 -1
      vertex -96.3582 0.986063 -1
    endloop
  endfacet
  facet normal 0 0 -1
    outer loop
      vertex -93.4981 3.46437 -1
      vertex -96.7082 11.4127 -1
      vertex -94.2543 11.9343 -1
    endloop
  endfacet
  facet normal 0 0 -1
    outer loop
      vertex -102.708 -7.05342 -1
      vertex -95.292 -2.64512 -1
      vertex -101.03 -8.91774 -1
    endloop
  endfacet
  facet normal -0 0 -1
    outer loop
      vertex -95.292 -2.64512 -1
      vertex -102.708 -7.05342 -1
      vertex -96.3582 -0.986063 -1
    endloop
  endfacet
  facet normal 0 0 -1
    outer loop
      vertex -93.4981 3.46437 -1
      vertex -99 10.3923 -1
      vertex -96.7082 11.4127 -1
    endloop
  endfacet
  facet normal 0 0 -1
    outer loop
      vertex -103.963 -4.88084 -1
      vertex -96.3582 -0.986063 -1
      vertex -102.708 -7.05342 -1
    endloop
  endfacet
  facet normal 0 0 -1
    outer loop
      vertex -95.292 2.64512 -1
      vertex -101.03 8.91774 -1
      vertex -99 10.3923 -1
    endloop
  endfacet
  facet normal 0 0 -1
    outer loop
      vertex -104.738 -2.49494 -1
      vertex -96.3582 -0.986063 -1
      vertex -103.963 -4.88084 -1
    endloop
  endfacet
  facet normal 0 0 -1
    outer loop
      vertex -95.292 2.64512 -1
      vertex -102.708 7.05342 -1
      vertex -101.03 8.91774 -1
    endloop
  endfacet
  facet normal 0 0 -1
    outer loop
      vertex -105 0 -1
      vertex -96.3582 -0.986063 -1
      vertex -104.738 -2.49494 -1
    endloop
  endfacet
  facet normal 0 0 -1
    outer loop
      vertex -96.3582 0.986063 -1
      vertex -103.963 4.88084 -1
      vertex -102.708 7.05342 -1
    endloop
  endfacet
  facet normal 0 0 -1
    outer loop
      vertex -96.3582 -0.986063 -1
      vertex -105 0 -1
      vertex -96.3582 0.986063 -1
    endloop
  endfacet
  facet normal 0 0 -1
    outer loop
      vertex -96.3582 0.986063 -1
      vertex -104.738 2.49494 -1
      vertex -103.963 4.88084 -1
    endloop
  endfacet
  facet normal -0 0 -1
    outer loop
      vertex -96.3582 0.986063 -1
      vertex -105 0 -1
      vertex -104.738 2.49494 -1
    endloop
  endfacet
  facet normal 0 0 -1
    outer loop
      vertex -79.05 -3 -1
      vertex -13.95 3 -1
      vertex -13.95 -3 -1
    endloop
  endfacet
  facet normal -0 0 -1
    outer loop
      vertex -13.95 3 -1
      vertex -79.05 -3 -1
      vertex -79.05 3 -1
    endloop
  endfacet
  facet normal 0 0 -1
    outer loop
      vertex -13.95 -7 -1
      vertex 0 -11.9343 -1
      vertex 0 -12 -1
    endloop
  endfacet
  facet normal 0 0 -1
    outer loop
      vertex 0 -11.9343 -1
      vertex -2.29201 -2.64512 -1
      vertex -0.498101 -3.46437 -1
    endloop
  endfacet
  facet normal 0 0 -1
    outer loop
      vertex 0 -11.9343 -1
      vertex -13.95 -7 -1
      vertex -2.29201 -2.64512 -1
    endloop
  endfacet
  facet normal 0 0 -1
    outer loop
      vertex -13.95 -3 -1
      vertex -3.35822 -0.986063 -1
      vertex -13.95 -7 -1
    endloop
  endfacet
  facet normal -0 0 -1
    outer loop
      vertex -2.29201 -2.64512 -1
      vertex -13.95 -7 -1
      vertex -3.35822 -0.986063 -1
    endloop
  endfacet
  facet normal 0 0 -1
    outer loop
      vertex 0 -12 -1
      vertex -79.05 -7 -1
      vertex -13.95 -7 -1
    endloop
  endfacet
  facet normal 0 0 -1
    outer loop
      vertex -90.0556 -1.89224 -1
      vertex -79.05 -3 -1
      vertex -79.05 -7 -1
    endloop
  endfacet
  facet normal 0 0 -1
    outer loop
      vertex -79.05 -3 -1
      vertex -89.5 0 -1
      vertex -79.05 3 -1
    endloop
  endfacet
  facet normal 0 0 -1
    outer loop
      vertex -90.0556 1.89224 -1
      vertex -79.05 3 -1
      vertex -89.5 0 -1
    endloop
  endfacet
  facet normal 0 0 -1
    outer loop
      vertex -79.05 -3 -1
      vertex -90.0556 -1.89224 -1
      vertex -89.5 0 -1
    endloop
  endfacet
  facet normal 0 0 -1
    outer loop
      vertex -79.05 -7 -1
      vertex -91.5461 -3.18371 -1
      vertex -90.0556 -1.89224 -1
    endloop
  endfacet
  facet normal 0 0 -1
    outer loop
      vertex -93 -12 -1
      vertex -79.05 -7 -1
      vertex 0 -12 -1
    endloop
  endfacet
  facet normal 0 0 -1
    outer loop
      vertex -93 -11.9343 -1
      vertex -79.05 -7 -1
      vertex -93 -12 -1
    endloop
  endfacet
  facet normal -0 0 -1
    outer loop
      vertex -79.05 -7 -1
      vertex -93 -11.9343 -1
      vertex -91.5461 -3.18371 -1
    endloop
  endfacet
  facet normal 0 0 -1
    outer loop
      vertex -93 -11.9343 -1
      vertex -93.4981 -3.46437 -1
      vertex -91.5461 -3.18371 -1
    endloop
  endfacet
  facet normal 0 0 -1
    outer loop
      vertex -94.2543 -11.9343 -1
      vertex -93.4981 -3.46437 -1
      vertex -93 -11.9343 -1
    endloop
  endfacet
  facet normal 0 0 -1
    outer loop
      vertex -96.7082 -11.4127 -1
      vertex -93.4981 -3.46437 -1
      vertex -94.2543 -11.9343 -1
    endloop
  endfacet
  facet normal 0 0 -1
    outer loop
      vertex -99 -10.3923 -1
      vertex -93.4981 -3.46437 -1
      vertex -96.7082 -11.4127 -1
    endloop
  endfacet
  facet normal 0 0 -1
    outer loop
      vertex -101.03 -8.91774 -1
      vertex -95.292 -2.64512 -1
      vertex -99 -10.3923 -1
    endloop
  endfacet
  facet normal -0 0 -1
    outer loop
      vertex -93.4981 -3.46437 -1
      vertex -99 -10.3923 -1
      vertex -95.292 -2.64512 -1
    endloop
  endfacet
  facet normal 0 0 -1
    outer loop
      vertex 3.5 0 -1
      vertex 12 0 -1
      vertex 11.7378 -2.49494 -1
    endloop
  endfacet
  facet normal 0 0 -1
    outer loop
      vertex 2.94439 -1.89224 -1
      vertex 11.7378 -2.49494 -1
      vertex 10.9625 -4.88084 -1
    endloop
  endfacet
  facet normal 0 0 -1
    outer loop
      vertex 12 0 -1
      vertex 3.5 0 -1
      vertex 11.7378 2.49494 -1
    endloop
  endfacet
  facet normal 0 0 -1
    outer loop
      vertex 2.94439 -1.89224 -1
      vertex 10.9625 -4.88084 -1
      vertex 9.7082 -7.05342 -1
    endloop
  endfacet
  facet normal 0 0 -1
    outer loop
      vertex 2.94439 1.89224 -1
      vertex 11.7378 2.49494 -1
      vertex 3.5 0 -1
    endloop
  endfacet
  facet normal 0 0 -1
    outer loop
      vertex 2.94439 -1.89224 -1
      vertex 9.7082 -7.05342 -1
      vertex 8.02957 -8.91774 -1
    endloop
  endfacet
  facet normal -0 0 -1
    outer loop
      vertex 11.7378 2.49494 -1
      vertex 2.94439 1.89224 -1
      vertex 10.9625 4.88084 -1
    endloop
  endfacet
  facet normal 0 0 -1
    outer loop
      vertex 1.45395 -3.18371 -1
      vertex 8.02957 -8.91774 -1
      vertex 6 -10.3923 -1
    endloop
  endfacet
  facet normal -0 0 -1
    outer loop
      vertex 10.9625 4.88084 -1
      vertex 2.94439 1.89224 -1
      vertex 9.7082 7.05342 -1
    endloop
  endfacet
  facet normal 0 0 -1
    outer loop
      vertex 1.45395 -3.18371 -1
      vertex 6 -10.3923 -1
      vertex 3.7082 -11.4127 -1
    endloop
  endfacet
  facet normal -0 0 -1
    outer loop
      vertex 9.7082 7.05342 -1
      vertex 2.94439 1.89224 -1
      vertex 8.02957 8.91774 -1
    endloop
  endfacet
  facet normal 0 0 -1
    outer loop
      vertex 1.45395 3.18371 -1
      vertex 8.02957 8.91774 -1
      vertex 2.94439 1.89224 -1
    endloop
  endfacet
  facet normal 0 0 -1
    outer loop
      vertex 11.7378 -2.49494 -1
      vertex 2.94439 -1.89224 -1
      vertex 3.5 0 -1
    endloop
  endfacet
  facet normal 0 0 -1
    outer loop
      vertex 8.02957 -8.91774 -1
      vertex 1.45395 -3.18371 -1
      vertex 2.94439 -1.89224 -1
    endloop
  endfacet
  facet normal 0 0 -1
    outer loop
      vertex 1.25434 -11.9343 -1
      vertex 1.45395 -3.18371 -1
      vertex 3.7082 -11.4127 -1
    endloop
  endfacet
  facet normal 0 0 -1
    outer loop
      vertex -0.498101 -3.46437 -1
      vertex 1.25434 -11.9343 -1
      vertex 0 -11.9343 -1
    endloop
  endfacet
  facet normal 0 0 -1
    outer loop
      vertex 1.25434 -11.9343 -1
      vertex -0.498101 -3.46437 -1
      vertex 1.45395 -3.18371 -1
    endloop
  endfacet
  facet normal -0 0 -1
    outer loop
      vertex 8.02957 8.91774 -1
      vertex 1.45395 3.18371 -1
      vertex 6 10.3923 -1
    endloop
  endfacet
  facet normal -0 0 -1
    outer loop
      vertex 6 10.3923 -1
      vertex 1.45395 3.18371 -1
      vertex 3.7082 11.4127 -1
    endloop
  endfacet
  facet normal 0 0 -1
    outer loop
      vertex 1.45395 3.18371 -1
      vertex 1.25434 11.9343 -1
      vertex 3.7082 11.4127 -1
    endloop
  endfacet
  facet normal 0 0 -1
    outer loop
      vertex -0.498101 3.46437 -1
      vertex 1.25434 11.9343 -1
      vertex 1.45395 3.18371 -1
    endloop
  endfacet
  facet normal -0 0 -1
    outer loop
      vertex 1.25434 11.9343 -1
      vertex -0.498101 3.46437 -1
      vertex 0 11.9343 -1
    endloop
  endfacet
  facet normal 0 0 -1
    outer loop
      vertex -2.29201 2.64512 -1
      vertex 0 11.9343 -1
      vertex -0.498101 3.46437 -1
    endloop
  endfacet
  facet normal 0 0 -1
    outer loop
      vertex -13.95 7 -1
      vertex 0 11.9343 -1
      vertex -2.29201 2.64512 -1
    endloop
  endfacet
  facet normal 0 0 -1
    outer loop
      vertex -13.95 7 -1
      vertex -2.29201 2.64512 -1
      vertex -3.35822 0.986063 -1
    endloop
  endfacet
  facet normal -0 0 -1
    outer loop
      vertex -3.35822 -0.986063 -1
      vertex -13.95 -3 -1
      vertex -3.35822 0.986063 -1
    endloop
  endfacet
  facet normal 0 0 -1
    outer loop
      vertex -13.95 3 -1
      vertex -3.35822 0.986063 -1
      vertex -13.95 -3 -1
    endloop
  endfacet
  facet normal 0 0 -1
    outer loop
      vertex -13.95 7 -1
      vertex -3.35822 0.986063 -1
      vertex -13.95 3 -1
    endloop
  endfacet
  facet normal -0 0 -1
    outer loop
      vertex 0 11.9343 -1
      vertex -13.95 7 -1
      vertex 0 12 -1
    endloop
  endfacet
  facet normal 0 0 -1
    outer loop
      vertex -79.05 7 -1
      vertex 0 12 -1
      vertex -13.95 7 -1
    endloop
  endfacet
  facet normal -0 0 -1
    outer loop
      vertex -79.05 3 -1
      vertex -90.0556 1.89224 -1
      vertex -79.05 7 -1
    endloop
  endfacet
  facet normal 0 0 -1
    outer loop
      vertex -91.5461 3.18371 -1
      vertex -79.05 7 -1
      vertex -90.0556 1.89224 -1
    endloop
  endfacet
  facet normal 0 0 -1
    outer loop
      vertex -93 11.9343 -1
      vertex -79.05 7 -1
      vertex -91.5461 3.18371 -1
    endloop
  endfacet
  facet normal 0 0 -1
    outer loop
      vertex -93 12 -1
      vertex -79.05 7 -1
      vertex -93 11.9343 -1
    endloop
  endfacet
  facet normal 0 0 -1
    outer loop
      vertex -79.05 7 -1
      vertex -93 12 -1
      vertex 0 12 -1
    endloop
  endfacet
  facet normal 0 -1 0
    outer loop
      vertex -93 -12 -1
      vertex 0 -12 1
      vertex -93 -12 1
    endloop
  endfacet
  facet normal 0 -1 -0
    outer loop
      vertex 0 -12 1
      vertex -93 -12 -1
      vertex 0 -12 -1
    endloop
  endfacet
  facet normal 0.994522 0.104529 0
    outer loop
      vertex 12 0 1
      vertex 11.7378 2.49494 -1
      vertex 11.7378 2.49494 1
    endloop
  endfacet
  facet normal 0.994522 0.104529 0
    outer loop
      vertex 11.7378 2.49494 -1
      vertex 12 0 1
      vertex 12 0 -1
    endloop
  endfacet
  facet normal 0 1 -0
    outer loop
      vertex 1.25434 11.9343 -1
      vertex 0 11.9343 1
      vertex 1.25434 11.9343 1
    endloop
  endfacet
  facet normal 0 1 0
    outer loop
      vertex 0 11.9343 1
      vertex 1.25434 11.9343 -1
      vertex 0 11.9343 -1
    endloop
  endfacet
  facet normal 0 -1 0
    outer loop
      vertex 0 -11.9343 -1
      vertex 1.25434 -11.9343 1
      vertex 0 -11.9343 1
    endloop
  endfacet
  facet normal 0 -1 -0
    outer loop
      vertex 1.25434 -11.9343 1
      vertex 0 -11.9343 -1
      vertex 1.25434 -11.9343 -1
    endloop
  endfacet
  facet normal 0.587785 0.809017 -0
    outer loop
      vertex 8.02957 8.91774 -1
      vertex 6 10.3923 1
      vertex 8.02957 8.91774 1
    endloop
  endfacet
  facet normal 0.587785 0.809017 0
    outer loop
      vertex 6 10.3923 1
      vertex 8.02957 8.91774 -1
      vertex 6 10.3923 -1
    endloop
  endfacet
  facet normal 0.406737 0.913545 -0
    outer loop
      vertex 6 10.3923 -1
      vertex 3.7082 11.4127 1
      vertex 6 10.3923 1
    endloop
  endfacet
  facet normal 0.406737 0.913545 0
    outer loop
      vertex 3.7082 11.4127 1
      vertex 6 10.3923 -1
      vertex 3.7082 11.4127 -1
    endloop
  endfacet
  facet normal 0.866025 -0.5 0
    outer loop
      vertex 9.7082 -7.05342 1
      vertex 10.9625 -4.88084 -1
      vertex 10.9625 -4.88084 1
    endloop
  endfacet
  facet normal 0.866025 -0.5 0
    outer loop
      vertex 10.9625 -4.88084 -1
      vertex 9.7082 -7.05342 1
      vertex 9.7082 -7.05342 -1
    endloop
  endfacet
  facet normal 0.866025 0.5 0
    outer loop
      vertex 10.9625 4.88084 1
      vertex 9.7082 7.05342 -1
      vertex 9.7082 7.05342 1
    endloop
  endfacet
  facet normal 0.866025 0.5 0
    outer loop
      vertex 9.7082 7.05342 -1
      vertex 10.9625 4.88084 1
      vertex 10.9625 4.88084 -1
    endloop
  endfacet
  facet normal 0.951057 0.309017 0
    outer loop
      vertex 11.7378 2.49494 1
      vertex 10.9625 4.88084 -1
      vertex 10.9625 4.88084 1
    endloop
  endfacet
  facet normal 0.951057 0.309017 0
    outer loop
      vertex 10.9625 4.88084 -1
      vertex 11.7378 2.49494 1
      vertex 11.7378 2.49494 -1
    endloop
  endfacet
  facet normal 0.743145 0.669131 0
    outer loop
      vertex 9.7082 7.05342 1
      vertex 8.02957 8.91774 -1
      vertex 8.02957 8.91774 1
    endloop
  endfacet
  facet normal 0.743145 0.669131 0
    outer loop
      vertex 8.02957 8.91774 -1
      vertex 9.7082 7.05342 1
      vertex 9.7082 7.05342 -1
    endloop
  endfacet
  facet normal 0.207912 0.978148 -0
    outer loop
      vertex 3.7082 11.4127 -1
      vertex 1.25434 11.9343 1
      vertex 3.7082 11.4127 1
    endloop
  endfacet
  facet normal 0.207912 0.978148 0
    outer loop
      vertex 1.25434 11.9343 1
      vertex 3.7082 11.4127 -1
      vertex 1.25434 11.9343 -1
    endloop
  endfacet
  facet normal 0.994522 -0.104529 0
    outer loop
      vertex 11.7378 -2.49494 1
      vertex 12 0 -1
      vertex 12 0 1
    endloop
  endfacet
  facet normal 0.994522 -0.104529 0
    outer loop
      vertex 12 0 -1
      vertex 11.7378 -2.49494 1
      vertex 11.7378 -2.49494 -1
    endloop
  endfacet
  facet normal 0.207912 -0.978148 0
    outer loop
      vertex 1.25434 -11.9343 -1
      vertex 3.7082 -11.4127 1
      vertex 1.25434 -11.9343 1
    endloop
  endfacet
  facet normal 0.207912 -0.978148 0
    outer loop
      vertex 3.7082 -11.4127 1
      vertex 1.25434 -11.9343 -1
      vertex 3.7082 -11.4127 -1
    endloop
  endfacet
  facet normal 0.951057 -0.309017 0
    outer loop
      vertex 10.9625 -4.88084 1
      vertex 11.7378 -2.49494 -1
      vertex 11.7378 -2.49494 1
    endloop
  endfacet
  facet normal 0.951057 -0.309017 0
    outer loop
      vertex 11.7378 -2.49494 -1
      vertex 10.9625 -4.88084 1
      vertex 10.9625 -4.88084 -1
    endloop
  endfacet
  facet normal 0.587785 -0.809017 0
    outer loop
      vertex 6 -10.3923 -1
      vertex 8.02957 -8.91774 1
      vertex 6 -10.3923 1
    endloop
  endfacet
  facet normal 0.587785 -0.809017 0
    outer loop
      vertex 8.02957 -8.91774 1
      vertex 6 -10.3923 -1
      vertex 8.02957 -8.91774 -1
    endloop
  endfacet
  facet normal 0.406737 -0.913545 0
    outer loop
      vertex 3.7082 -11.4127 -1
      vertex 6 -10.3923 1
      vertex 3.7082 -11.4127 1
    endloop
  endfacet
  facet normal 0.406737 -0.913545 0
    outer loop
      vertex 6 -10.3923 1
      vertex 3.7082 -11.4127 -1
      vertex 6 -10.3923 -1
    endloop
  endfacet
  facet normal 0.743145 -0.669131 0
    outer loop
      vertex 8.02957 -8.91774 1
      vertex 9.7082 -7.05342 -1
      vertex 9.7082 -7.05342 1
    endloop
  endfacet
  facet normal 0.743145 -0.669131 0
    outer loop
      vertex 9.7082 -7.05342 -1
      vertex 8.02957 -8.91774 1
      vertex 8.02957 -8.91774 -1
    endloop
  endfacet
  facet normal -0.951057 0.309016 0
    outer loop
      vertex -104.738 2.49494 -1
      vertex -103.963 4.88084 1
      vertex -103.963 4.88084 -1
    endloop
  endfacet
  facet normal -0.951057 0.309016 0
    outer loop
      vertex -103.963 4.88084 1
      vertex -104.738 2.49494 -1
      vertex -104.738 2.49494 1
    endloop
  endfacet
  facet normal -0.406737 0.913545 0
    outer loop
      vertex -96.7082 11.4127 -1
      vertex -99 10.3923 1
      vertex -96.7082 11.4127 1
    endloop
  endfacet
  facet normal -0.406737 0.913545 0
    outer loop
      vertex -99 10.3923 1
      vertex -96.7082 11.4127 -1
      vertex -99 10.3923 -1
    endloop
  endfacet
  facet normal 0 1 -0
    outer loop
      vertex -93 11.9343 -1
      vertex -94.2543 11.9343 1
      vertex -93 11.9343 1
    endloop
  endfacet
  facet normal 0 1 0
    outer loop
      vertex -94.2543 11.9343 1
      vertex -93 11.9343 -1
      vertex -94.2543 11.9343 -1
    endloop
  endfacet
  facet normal -0.994522 0.104529 0
    outer loop
      vertex -105 0 -1
      vertex -104.738 2.49494 1
      vertex -104.738 2.49494 -1
    endloop
  endfacet
  facet normal -0.994522 0.104529 0
    outer loop
      vertex -104.738 2.49494 1
      vertex -105 0 -1
      vertex -105 0 1
    endloop
  endfacet
  facet normal -0.866026 0.5 0
    outer loop
      vertex -103.963 4.88084 -1
      vertex -102.708 7.05342 1
      vertex -102.708 7.05342 -1
    endloop
  endfacet
  facet normal -0.866026 0.5 0
    outer loop
      vertex -102.708 7.05342 1
      vertex -103.963 4.88084 -1
      vertex -103.963 4.88084 1
    endloop
  endfacet
  facet normal -0.587786 0.809016 0
    outer loop
      vertex -99 10.3923 -1
      vertex -101.03 8.91774 1
      vertex -99 10.3923 1
    endloop
  endfacet
  facet normal -0.587786 0.809016 0
    outer loop
      vertex -101.03 8.91774 1
      vertex -99 10.3923 -1
      vertex -101.03 8.91774 -1
    endloop
  endfacet
  facet normal -0.207911 0.978148 0
    outer loop
      vertex -94.2543 11.9343 -1
      vertex -96.7082 11.4127 1
      vertex -94.2543 11.9343 1
    endloop
  endfacet
  facet normal -0.207911 0.978148 0
    outer loop
      vertex -96.7082 11.4127 1
      vertex -94.2543 11.9343 -1
      vertex -96.7082 11.4127 -1
    endloop
  endfacet
  facet normal -0.743144 0.669132 0
    outer loop
      vertex -102.708 7.05342 -1
      vertex -101.03 8.91774 1
      vertex -101.03 8.91774 -1
    endloop
  endfacet
  facet normal -0.743144 0.669132 0
    outer loop
      vertex -101.03 8.91774 1
      vertex -102.708 7.05342 -1
      vertex -102.708 7.05342 1
    endloop
  endfacet
  facet normal -0.207911 -0.978148 0
    outer loop
      vertex -96.7082 -11.4127 -1
      vertex -94.2543 -11.9343 1
      vertex -96.7082 -11.4127 1
    endloop
  endfacet
  facet normal -0.207911 -0.978148 -0
    outer loop
      vertex -94.2543 -11.9343 1
      vertex -96.7082 -11.4127 -1
      vertex -94.2543 -11.9343 -1
    endloop
  endfacet
  facet normal -0.994522 -0.104529 0
    outer loop
      vertex -104.738 -2.49494 -1
      vertex -105 0 1
      vertex -105 0 -1
    endloop
  endfacet
  facet normal -0.994522 -0.104529 0
    outer loop
      vertex -105 0 1
      vertex -104.738 -2.49494 -1
      vertex -104.738 -2.49494 1
    endloop
  endfacet
  facet normal -0.406737 -0.913545 0
    outer loop
      vertex -99 -10.3923 -1
      vertex -96.7082 -11.4127 1
      vertex -99 -10.3923 1
    endloop
  endfacet
  facet normal -0.406737 -0.913545 -0
    outer loop
      vertex -96.7082 -11.4127 1
      vertex -99 -10.3923 -1
      vertex -96.7082 -11.4127 -1
    endloop
  endfacet
  facet normal 0 -1 0
    outer loop
      vertex -94.2543 -11.9343 -1
      vertex -93 -11.9343 1
      vertex -94.2543 -11.9343 1
    endloop
  endfacet
  facet normal 0 -1 -0
    outer loop
      vertex -93 -11.9343 1
      vertex -94.2543 -11.9343 -1
      vertex -93 -11.9343 -1
    endloop
  endfacet
  facet normal -0.951057 -0.309016 0
    outer loop
      vertex -103.963 -4.88084 -1
      vertex -104.738 -2.49494 1
      vertex -104.738 -2.49494 -1
    endloop
  endfacet
  facet normal -0.951057 -0.309016 0
    outer loop
      vertex -104.738 -2.49494 1
      vertex -103.963 -4.88084 -1
      vertex -103.963 -4.88084 1
    endloop
  endfacet
  facet normal -0.743144 -0.669132 0
    outer loop
      vertex -101.03 -8.91774 -1
      vertex -102.708 -7.05342 1
      vertex -102.708 -7.05342 -1
    endloop
  endfacet
  facet normal -0.743144 -0.669132 0
    outer loop
      vertex -102.708 -7.05342 1
      vertex -101.03 -8.91774 -1
      vertex -101.03 -8.91774 1
    endloop
  endfacet
  facet normal -0.866026 -0.5 0
    outer loop
      vertex -102.708 -7.05342 -1
      vertex -103.963 -4.88084 1
      vertex -103.963 -4.88084 -1
    endloop
  endfacet
  facet normal -0.866026 -0.5 0
    outer loop
      vertex -103.963 -4.88084 1
      vertex -102.708 -7.05342 -1
      vertex -102.708 -7.05342 1
    endloop
  endfacet
  facet normal -0.587786 -0.809016 0
    outer loop
      vertex -101.03 -8.91774 -1
      vertex -99 -10.3923 1
      vertex -101.03 -8.91774 1
    endloop
  endfacet
  facet normal -0.587786 -0.809016 -0
    outer loop
      vertex -99 -10.3923 1
      vertex -101.03 -8.91774 -1
      vertex -99 -10.3923 -1
    endloop
  endfacet
  facet normal 1 -0 0
    outer loop
      vertex -79.05 3 1
      vertex -79.05 7 -1
      vertex -79.05 7 1
    endloop
  endfacet
  facet normal 1 0 0
    outer loop
      vertex -79.05 7 -1
      vertex -79.05 3 1
      vertex -79.05 3 -1
    endloop
  endfacet
  facet normal -1 0 0
    outer loop
      vertex -13.95 3 -1
      vertex -13.95 7 1
      vertex -13.95 7 -1
    endloop
  endfacet
  facet normal -1 -0 0
    outer loop
      vertex -13.95 7 1
      vertex -13.95 3 -1
      vertex -13.95 3 1
    endloop
  endfacet
  facet normal 0 -1 0
    outer loop
      vertex -79.05 7 -1
      vertex -13.95 7 1
      vertex -79.05 7 1
    endloop
  endfacet
  facet normal 0 -1 -0
    outer loop
      vertex -13.95 7 1
      vertex -79.05 7 -1
      vertex -13.95 7 -1
    endloop
  endfacet
  facet normal 0 1 -0
    outer loop
      vertex -13.95 3 -1
      vertex -79.05 3 1
      vertex -13.95 3 1
    endloop
  endfacet
  facet normal 0 1 0
    outer loop
      vertex -79.05 3 1
      vertex -13.95 3 -1
      vertex -79.05 3 -1
    endloop
  endfacet
  facet normal 1 -0 0
    outer loop
      vertex -79.05 -7 1
      vertex -79.05 -3 -1
      vertex -79.05 -3 1
    endloop
  endfacet
  facet normal 1 0 0
    outer loop
      vertex -79.05 -3 -1
      vertex -79.05 -7 1
      vertex -79.05 -7 -1
    endloop
  endfacet
  facet normal -1 0 0
    outer loop
      vertex -13.95 -7 -1
      vertex -13.95 -3 1
      vertex -13.95 -3 -1
    endloop
  endfacet
  facet normal -1 -0 0
    outer loop
      vertex -13.95 -3 1
      vertex -13.95 -7 -1
      vertex -13.95 -7 1
    endloop
  endfacet
  facet normal 0 1 -0
    outer loop
      vertex -13.95 -7 -1
      vertex -79.05 -7 1
      vertex -13.95 -7 1
    endloop
  endfacet
  facet normal 0 1 0
    outer loop
      vertex -79.05 -7 1
      vertex -13.95 -7 -1
      vertex -79.05 -7 -1
    endloop
  endfacet
  facet normal 0 -1 0
    outer loop
      vertex -79.05 -3 -1
      vertex -13.95 -3 1
      vertex -79.05 -3 1
    endloop
  endfacet
  facet normal 0 -1 -0
    outer loop
      vertex -13.95 -3 1
      vertex -79.05 -3 -1
      vertex -13.95 -3 -1
    endloop
  endfacet
  facet normal -0.959493 -0.281733 0
    outer loop
      vertex 3.5 0 -1
      vertex 2.94439 1.89224 1
      vertex 2.94439 1.89224 -1
    endloop
  endfacet
  facet normal -0.959493 -0.281733 0
    outer loop
      vertex 2.94439 1.89224 1
      vertex 3.5 0 -1
      vertex 3.5 0 1
    endloop
  endfacet
  facet normal 1 -0 0
    outer loop
      vertex -3.35822 -0.986063 1
      vertex -3.35822 0.986063 -1
      vertex -3.35822 0.986063 1
    endloop
  endfacet
  facet normal 1 0 0
    outer loop
      vertex -3.35822 0.986063 -1
      vertex -3.35822 -0.986063 1
      vertex -3.35822 -0.986063 -1
    endloop
  endfacet
  facet normal 0.415415 -0.909632 0
    outer loop
      vertex -2.29201 2.64512 -1
      vertex -0.498101 3.46437 1
      vertex -2.29201 2.64512 1
    endloop
  endfacet
  facet normal 0.415415 -0.909632 0
    outer loop
      vertex -0.498101 3.46437 1
      vertex -2.29201 2.64512 -1
      vertex -0.498101 3.46437 -1
    endloop
  endfacet
  facet normal 0.841254 -0.540641 0
    outer loop
      vertex -3.35822 0.986063 1
      vertex -2.29201 2.64512 -1
      vertex -2.29201 2.64512 1
    endloop
  endfacet
  facet normal 0.841254 -0.540641 0
    outer loop
      vertex -2.29201 2.64512 -1
      vertex -3.35822 0.986063 1
      vertex -3.35822 0.986063 -1
    endloop
  endfacet
  facet normal -0.959493 0.281733 0
    outer loop
      vertex 2.94439 -1.89224 -1
      vertex 3.5 0 1
      vertex 3.5 0 -1
    endloop
  endfacet
  facet normal -0.959493 0.281733 0
    outer loop
      vertex 3.5 0 1
      vertex 2.94439 -1.89224 -1
      vertex 2.94439 -1.89224 1
    endloop
  endfacet
  facet normal -0.142315 -0.989821 0
    outer loop
      vertex -0.498101 3.46437 -1
      vertex 1.45395 3.18371 1
      vertex -0.498101 3.46437 1
    endloop
  endfacet
  facet normal -0.142315 -0.989821 -0
    outer loop
      vertex 1.45395 3.18371 1
      vertex -0.498101 3.46437 -1
      vertex 1.45395 3.18371 -1
    endloop
  endfacet
  facet normal -0.654861 -0.75575 0
    outer loop
      vertex 1.45395 3.18371 -1
      vertex 2.94439 1.89224 1
      vertex 1.45395 3.18371 1
    endloop
  endfacet
  facet normal -0.654861 -0.75575 -0
    outer loop
      vertex 2.94439 1.89224 1
      vertex 1.45395 3.18371 -1
      vertex 2.94439 1.89224 -1
    endloop
  endfacet
  facet normal 0.841254 0.540641 0
    outer loop
      vertex -2.29201 -2.64512 1
      vertex -3.35822 -0.986063 -1
      vertex -3.35822 -0.986063 1
    endloop
  endfacet
  facet normal 0.841254 0.540641 0
    outer loop
      vertex -3.35822 -0.986063 -1
      vertex -2.29201 -2.64512 1
      vertex -2.29201 -2.64512 -1
    endloop
  endfacet
  facet normal -0.654861 0.75575 0
    outer loop
      vertex 2.94439 -1.89224 -1
      vertex 1.45395 -3.18371 1
      vertex 2.94439 -1.89224 1
    endloop
  endfacet
  facet normal -0.654861 0.75575 0
    outer loop
      vertex 1.45395 -3.18371 1
      vertex 2.94439 -1.89224 -1
      vertex 1.45395 -3.18371 -1
    endloop
  endfacet
  facet normal -0.142315 0.989821 0
    outer loop
      vertex 1.45395 -3.18371 -1
      vertex -0.498101 -3.46437 1
      vertex 1.45395 -3.18371 1
    endloop
  endfacet
  facet normal -0.142315 0.989821 0
    outer loop
      vertex -0.498101 -3.46437 1
      vertex 1.45395 -3.18371 -1
      vertex -0.498101 -3.46437 -1
    endloop
  endfacet
  facet normal 0.415415 0.909632 -0
    outer loop
      vertex -0.498101 -3.46437 -1
      vertex -2.29201 -2.64512 1
      vertex -0.498101 -3.46437 1
    endloop
  endfacet
  facet normal 0.415415 0.909632 0
    outer loop
      vertex -2.29201 -2.64512 1
      vertex -0.498101 -3.46437 -1
      vertex -2.29201 -2.64512 -1
    endloop
  endfacet
  facet normal -0.959493 -0.281732 0
    outer loop
      vertex -89.5 0 -1
      vertex -90.0556 1.89224 1
      vertex -90.0556 1.89224 -1
    endloop
  endfacet
  facet normal -0.959493 -0.281732 0
    outer loop
      vertex -90.0556 1.89224 1
      vertex -89.5 0 -1
      vertex -89.5 0 1
    endloop
  endfacet
  facet normal 1 -0 0
    outer loop
      vertex -96.3582 -0.986063 1
      vertex -96.3582 0.986063 -1
      vertex -96.3582 0.986063 1
    endloop
  endfacet
  facet normal 1 0 0
    outer loop
      vertex -96.3582 0.986063 -1
      vertex -96.3582 -0.986063 1
      vertex -96.3582 -0.986063 -1
    endloop
  endfacet
  facet normal 0.415414 -0.909632 0
    outer loop
      vertex -95.292 2.64512 -1
      vertex -93.4981 3.46437 1
      vertex -95.292 2.64512 1
    endloop
  endfacet
  facet normal 0.415414 -0.909632 0
    outer loop
      vertex -93.4981 3.46437 1
      vertex -95.292 2.64512 -1
      vertex -93.4981 3.46437 -1
    endloop
  endfacet
  facet normal 0.841255 -0.540639 0
    outer loop
      vertex -96.3582 0.986063 1
      vertex -95.292 2.64512 -1
      vertex -95.292 2.64512 1
    endloop
  endfacet
  facet normal 0.841255 -0.540639 0
    outer loop
      vertex -95.292 2.64512 -1
      vertex -96.3582 0.986063 1
      vertex -96.3582 0.986063 -1
    endloop
  endfacet
  facet normal -0.142315 0.989821 0
    outer loop
      vertex -91.5461 -3.18371 -1
      vertex -93.4981 -3.46437 1
      vertex -91.5461 -3.18371 1
    endloop
  endfacet
  facet normal -0.142315 0.989821 0
    outer loop
      vertex -93.4981 -3.46437 1
      vertex -91.5461 -3.18371 -1
      vertex -93.4981 -3.46437 -1
    endloop
  endfacet
  facet normal -0.142315 -0.989821 0
    outer loop
      vertex -93.4981 3.46437 -1
      vertex -91.5461 3.18371 1
      vertex -93.4981 3.46437 1
    endloop
  endfacet
  facet normal -0.142315 -0.989821 -0
    outer loop
      vertex -91.5461 3.18371 1
      vertex -93.4981 3.46437 -1
      vertex -91.5461 3.18371 -1
    endloop
  endfacet
  facet normal -0.654859 -0.755751 0
    outer loop
      vertex -91.5461 3.18371 -1
      vertex -90.0556 1.89224 1
      vertex -91.5461 3.18371 1
    endloop
  endfacet
  facet normal -0.654859 -0.755751 -0
    outer loop
      vertex -90.0556 1.89224 1
      vertex -91.5461 3.18371 -1
      vertex -90.0556 1.89224 -1
    endloop
  endfacet
  facet normal 0.841255 0.540639 0
    outer loop
      vertex -95.292 -2.64512 1
      vertex -96.3582 -0.986063 -1
      vertex -96.3582 -0.986063 1
    endloop
  endfacet
  facet normal 0.841255 0.540639 0
    outer loop
      vertex -96.3582 -0.986063 -1
      vertex -95.292 -2.64512 1
      vertex -95.292 -2.64512 -1
    endloop
  endfacet
  facet normal -0.654859 0.755751 0
    outer loop
      vertex -90.0556 -1.89224 -1
      vertex -91.5461 -3.18371 1
      vertex -90.0556 -1.89224 1
    endloop
  endfacet
  facet normal -0.654859 0.755751 0
    outer loop
      vertex -91.5461 -3.18371 1
      vertex -90.0556 -1.89224 -1
      vertex -91.5461 -3.18371 -1
    endloop
  endfacet
  facet normal 0.415414 0.909632 -0
    outer loop
      vertex -93.4981 -3.46437 -1
      vertex -95.292 -2.64512 1
      vertex -93.4981 -3.46437 1
    endloop
  endfacet
  facet normal 0.415414 0.909632 0
    outer loop
      vertex -95.292 -2.64512 1
      vertex -93.4981 -3.46437 -1
      vertex -95.292 -2.64512 -1
    endloop
  endfacet
  facet normal -0.959493 0.281732 0
    outer loop
      vertex -90.0556 -1.89224 -1
      vertex -89.5 0 1
      vertex -89.5 0 -1
    endloop
  endfacet
  facet normal -0.959493 0.281732 0
    outer loop
      vertex -89.5 0 1
      vertex -90.0556 -1.89224 -1
      vertex -90.0556 -1.89224 1
    endloop
  endfacet
endsolid OpenSCAD_Model
