solid OpenSCAD_Model
  facet normal -1 0 0
    outer loop
      vertex -46.5 -15 11.9343
      vertex -46.5 15 12
      vertex -46.5 15 11.9343
    endloop
  endfacet
  facet normal -1 -0 0
    outer loop
      vertex -46.5 15 12
      vertex -46.5 -15 11.9343
      vertex -46.5 -15 12
    endloop
  endfacet
  facet normal -1 0 0
    outer loop
      vertex -46.5 -15 -12
      vertex -46.5 15 -11.9343
      vertex -46.5 15 -12
    endloop
  endfacet
  facet normal -1 -0 0
    outer loop
      vertex -46.5 15 -11.9343
      vertex -46.5 -15 -12
      vertex -46.5 -15 -11.9343
    endloop
  endfacet
  facet normal 0 1 0
    outer loop
      vertex -46.5 15 -12
      vertex -43.5556 15 -1.89224
      vertex 46.5 15 -12
    endloop
  endfacet
  facet normal 0 1 0
    outer loop
      vertex -43.5556 15 -1.89224
      vertex -46.5 15 -12
      vertex -46.5 15 -11.9343
    endloop
  endfacet
  facet normal 0 1 0
    outer loop
      vertex -46.5 15 11.9343
      vertex -45.046 15 3.18371
      vertex -46.9981 15 3.46437
    endloop
  endfacet
  facet normal 0 1 0
    outer loop
      vertex 43.1418 15 0.986063
      vertex 46.5 15 11.9343
      vertex 44.208 15 2.64512
    endloop
  endfacet
  facet normal 0 1 0
    outer loop
      vertex 46.5 15 11.9343
      vertex -43.5556 15 1.89224
      vertex -45.046 15 3.18371
    endloop
  endfacet
  facet normal 0 1 0
    outer loop
      vertex 46.5 15 11.9343
      vertex 43.1418 15 0.986063
      vertex -43.5556 15 1.89224
    endloop
  endfacet
  facet normal 0 1 0
    outer loop
      vertex 43.1418 15 0.986063
      vertex -43 15 -3.33067e-15
      vertex -43.5556 15 1.89224
    endloop
  endfacet
  facet normal 0 1 -0
    outer loop
      vertex 43.1418 15 -0.986063
      vertex -43 15 -3.33067e-15
      vertex 43.1418 15 0.986063
    endloop
  endfacet
  facet normal 0 1 0
    outer loop
      vertex 43.1418 15 -0.986063
      vertex -43.5556 15 -1.89224
      vertex -43 15 -3.33067e-15
    endloop
  endfacet
  facet normal 0 1 0
    outer loop
      vertex 46.5 15 -11.9343
      vertex 43.1418 15 -0.986063
      vertex 44.208 15 -2.64512
    endloop
  endfacet
  facet normal 0 1 -0
    outer loop
      vertex 46.5 15 -12
      vertex 43.1418 15 -0.986063
      vertex 46.5 15 -11.9343
    endloop
  endfacet
  facet normal 0 1 0
    outer loop
      vertex 46.5 15 -11.9343
      vertex 44.208 15 -2.64512
      vertex 46.0019 15 -3.46437
    endloop
  endfacet
  facet normal 0 1 0
    outer loop
      vertex 43.1418 15 -0.986063
      vertex 46.5 15 -12
      vertex -43.5556 15 -1.89224
    endloop
  endfacet
  facet normal 0 1 0
    outer loop
      vertex 46.0019 15 3.46437
      vertex 46.5 15 11.9343
      vertex 47.7543 15 11.9343
    endloop
  endfacet
  facet normal 0 1 0
    outer loop
      vertex 44.208 15 2.64512
      vertex 46.5 15 11.9343
      vertex 46.0019 15 3.46437
    endloop
  endfacet
  facet normal 0 1 -0
    outer loop
      vertex 47.954 15 3.18371
      vertex 47.7543 15 11.9343
      vertex 50.2082 15 11.4127
    endloop
  endfacet
  facet normal 0 1 0
    outer loop
      vertex -46.5 15 12
      vertex -45.046 15 3.18371
      vertex -46.5 15 11.9343
    endloop
  endfacet
  facet normal 0 1 0
    outer loop
      vertex 47.954 15 3.18371
      vertex 50.2082 15 11.4127
      vertex 52.5 15 10.3923
    endloop
  endfacet
  facet normal 0 1 0
    outer loop
      vertex -46.5 15 11.9343
      vertex -46.9981 15 3.46437
      vertex -47.7543 15 11.9343
    endloop
  endfacet
  facet normal 0 1 0
    outer loop
      vertex 47.954 15 3.18371
      vertex 52.5 15 10.3923
      vertex 54.5296 15 8.91774
    endloop
  endfacet
  facet normal 0 1 0
    outer loop
      vertex -47.7543 15 11.9343
      vertex -46.9981 15 3.46437
      vertex -50.2082 15 11.4127
    endloop
  endfacet
  facet normal 0 1 0
    outer loop
      vertex 49.4444 15 1.89224
      vertex 54.5296 15 8.91774
      vertex 56.2082 15 7.05342
    endloop
  endfacet
  facet normal 0 1 0
    outer loop
      vertex -50.2082 15 11.4127
      vertex -46.9981 15 3.46437
      vertex -52.5 15 10.3923
    endloop
  endfacet
  facet normal 0 1 0
    outer loop
      vertex 49.4444 15 1.89224
      vertex 56.2082 15 7.05342
      vertex 57.4625 15 4.88084
    endloop
  endfacet
  facet normal 0 1 -0
    outer loop
      vertex -48.792 15 2.64512
      vertex -52.5 15 10.3923
      vertex -46.9981 15 3.46437
    endloop
  endfacet
  facet normal 0 1 0
    outer loop
      vertex -52.5 15 10.3923
      vertex -48.792 15 2.64512
      vertex -54.5296 15 8.91774
    endloop
  endfacet
  facet normal 0 1 0
    outer loop
      vertex 47.7543 15 11.9343
      vertex 47.954 15 3.18371
      vertex 46.0019 15 3.46437
    endloop
  endfacet
  facet normal 0 1 0
    outer loop
      vertex 49.4444 15 1.89224
      vertex 57.4625 15 4.88084
      vertex 58.2378 15 2.49494
    endloop
  endfacet
  facet normal 0 1 0
    outer loop
      vertex 54.5296 15 8.91774
      vertex 49.4444 15 1.89224
      vertex 47.954 15 3.18371
    endloop
  endfacet
  facet normal 0 1 0
    outer loop
      vertex 50 15 -3.33067e-15
      vertex 58.2378 15 2.49494
      vertex 58.5 15 -3.33067e-15
    endloop
  endfacet
  facet normal 0 1 0
    outer loop
      vertex 58.2378 15 2.49494
      vertex 50 15 -3.33067e-15
      vertex 49.4444 15 1.89224
    endloop
  endfacet
  facet normal 0 1 -0
    outer loop
      vertex 58.2378 15 -2.49494
      vertex 50 15 -3.33067e-15
      vertex 58.5 15 -3.33067e-15
    endloop
  endfacet
  facet normal 0 1 0
    outer loop
      vertex 50 15 -3.33067e-15
      vertex 58.2378 15 -2.49494
      vertex 49.4444 15 -1.89224
    endloop
  endfacet
  facet normal 0 1 -0
    outer loop
      vertex 57.4625 15 -4.88084
      vertex 49.4444 15 -1.89224
      vertex 58.2378 15 -2.49494
    endloop
  endfacet
  facet normal 0 1 -0
    outer loop
      vertex 56.2082 15 -7.05342
      vertex 49.4444 15 -1.89224
      vertex 57.4625 15 -4.88084
    endloop
  endfacet
  facet normal 0 1 0
    outer loop
      vertex 49.4444 15 -1.89224
      vertex 54.5296 15 -8.91774
      vertex 47.954 15 -3.18371
    endloop
  endfacet
  facet normal 0 1 -0
    outer loop
      vertex 54.5296 15 -8.91774
      vertex 49.4444 15 -1.89224
      vertex 56.2082 15 -7.05342
    endloop
  endfacet
  facet normal 0 1 0
    outer loop
      vertex -45.046 15 3.18371
      vertex 46.5 15 12
      vertex 46.5 15 11.9343
    endloop
  endfacet
  facet normal 0 1 0
    outer loop
      vertex 46.5 15 12
      vertex -45.046 15 3.18371
      vertex -46.5 15 12
    endloop
  endfacet
  facet normal 0 1 0
    outer loop
      vertex -54.5296 15 8.91774
      vertex -48.792 15 2.64512
      vertex -56.2082 15 7.05342
    endloop
  endfacet
  facet normal 0 1 -0
    outer loop
      vertex -49.8582 15 0.986063
      vertex -56.2082 15 7.05342
      vertex -48.792 15 2.64512
    endloop
  endfacet
  facet normal 0 1 0
    outer loop
      vertex -56.2082 15 7.05342
      vertex -49.8582 15 0.986063
      vertex -57.4625 15 4.88084
    endloop
  endfacet
  facet normal 0 1 0
    outer loop
      vertex -57.4625 15 4.88084
      vertex -49.8582 15 0.986063
      vertex -58.2378 15 2.49494
    endloop
  endfacet
  facet normal 0 1 0
    outer loop
      vertex -49.8582 15 0.986063
      vertex -58.5 15 -3.33067e-15
      vertex -58.2378 15 2.49494
    endloop
  endfacet
  facet normal 0 1 -0
    outer loop
      vertex -49.8582 15 -0.986063
      vertex -58.5 15 -3.33067e-15
      vertex -49.8582 15 0.986063
    endloop
  endfacet
  facet normal 0 1 0
    outer loop
      vertex -49.8582 15 -0.986063
      vertex -58.2378 15 -2.49494
      vertex -58.5 15 -3.33067e-15
    endloop
  endfacet
  facet normal 0 1 0
    outer loop
      vertex -56.2082 15 -7.05342
      vertex -49.8582 15 -0.986063
      vertex -48.792 15 -2.64512
    endloop
  endfacet
  facet normal 0 1 0
    outer loop
      vertex -52.5 15 -10.3923
      vertex -48.792 15 -2.64512
      vertex -46.9981 15 -3.46437
    endloop
  endfacet
  facet normal 0 1 0
    outer loop
      vertex -49.8582 15 -0.986063
      vertex -57.4625 15 -4.88084
      vertex -58.2378 15 -2.49494
    endloop
  endfacet
  facet normal 0 1 0
    outer loop
      vertex -43.5556 15 -1.89224
      vertex -46.5 15 -11.9343
      vertex -45.046 15 -3.18371
    endloop
  endfacet
  facet normal 0 1 -0
    outer loop
      vertex 52.5 15 -10.3923
      vertex 47.954 15 -3.18371
      vertex 54.5296 15 -8.91774
    endloop
  endfacet
  facet normal 0 1 0
    outer loop
      vertex -45.046 15 -3.18371
      vertex -46.5 15 -11.9343
      vertex -46.9981 15 -3.46437
    endloop
  endfacet
  facet normal 0 1 -0
    outer loop
      vertex 50.2082 15 -11.4127
      vertex 47.954 15 -3.18371
      vertex 52.5 15 -10.3923
    endloop
  endfacet
  facet normal 0 1 0
    outer loop
      vertex -47.7543 15 -11.9343
      vertex -46.9981 15 -3.46437
      vertex -46.5 15 -11.9343
    endloop
  endfacet
  facet normal 0 1 0
    outer loop
      vertex 47.7543 15 -11.9343
      vertex 47.954 15 -3.18371
      vertex 50.2082 15 -11.4127
    endloop
  endfacet
  facet normal 0 1 0
    outer loop
      vertex -49.8582 15 -0.986063
      vertex -56.2082 15 -7.05342
      vertex -57.4625 15 -4.88084
    endloop
  endfacet
  facet normal 0 1 0
    outer loop
      vertex 47.954 15 -3.18371
      vertex 47.7543 15 -11.9343
      vertex 46.0019 15 -3.46437
    endloop
  endfacet
  facet normal 0 1 0
    outer loop
      vertex -48.792 15 -2.64512
      vertex -54.5296 15 -8.91774
      vertex -56.2082 15 -7.05342
    endloop
  endfacet
  facet normal 0 1 0
    outer loop
      vertex 46.0019 15 -3.46437
      vertex 47.7543 15 -11.9343
      vertex 46.5 15 -11.9343
    endloop
  endfacet
  facet normal 0 1 0
    outer loop
      vertex -48.792 15 -2.64512
      vertex -52.5 15 -10.3923
      vertex -54.5296 15 -8.91774
    endloop
  endfacet
  facet normal 0 1 0
    outer loop
      vertex -46.9981 15 -3.46437
      vertex -50.2082 15 -11.4127
      vertex -52.5 15 -10.3923
    endloop
  endfacet
  facet normal 0 1 0
    outer loop
      vertex -46.9981 15 -3.46437
      vertex -47.7543 15 -11.9343
      vertex -50.2082 15 -11.4127
    endloop
  endfacet
  facet normal 1 -0 0
    outer loop
      vertex 46.5 -15 12
      vertex 46.5 15 11.9343
      vertex 46.5 15 12
    endloop
  endfacet
  facet normal 1 0 0
    outer loop
      vertex 46.5 15 11.9343
      vertex 46.5 -15 12
      vertex 46.5 -15 11.9343
    endloop
  endfacet
  facet normal 1 -0 0
    outer loop
      vertex 46.5 -15 -11.9343
      vertex 46.5 15 -12
      vertex 46.5 15 -11.9343
    endloop
  endfacet
  facet normal 1 0 0
    outer loop
      vertex 46.5 15 -12
      vertex 46.5 -15 -11.9343
      vertex 46.5 -15 -12
    endloop
  endfacet
  facet normal 0 0 -1
    outer loop
      vertex 46.5 -15 -12
      vertex 33.5 -9 -12
      vertex 46.5 15 -12
    endloop
  endfacet
  facet normal 0 0 -1
    outer loop
      vertex 46.5 -15 -12
      vertex -33.5 -9 -12
      vertex 33.5 -9 -12
    endloop
  endfacet
  facet normal -0 0 -1
    outer loop
      vertex -33.5 -9 -12
      vertex -46.5 -15 -12
      vertex -33.5 9 -12
    endloop
  endfacet
  facet normal 0 0 -1
    outer loop
      vertex -46.5 -15 -12
      vertex -33.5 -9 -12
      vertex 46.5 -15 -12
    endloop
  endfacet
  facet normal 0 0 -1
    outer loop
      vertex 33.5 9 -12
      vertex 46.5 15 -12
      vertex 33.5 -9 -12
    endloop
  endfacet
  facet normal 0 0 -1
    outer loop
      vertex -33.5 9 -12
      vertex 46.5 15 -12
      vertex 33.5 9 -12
    endloop
  endfacet
  facet normal 0 0 -1
    outer loop
      vertex -33.5 9 -12
      vertex -46.5 15 -12
      vertex 46.5 15 -12
    endloop
  endfacet
  facet normal 0 0 -1
    outer loop
      vertex -46.5 15 -12
      vertex -33.5 9 -12
      vertex -46.5 -15 -12
    endloop
  endfacet
  facet normal 0 -1 0
    outer loop
      vertex 46.5 -15 -12
      vertex -43.5556 -15 -1.89224
      vertex -46.5 -15 -12
    endloop
  endfacet
  facet normal 0 -1 0
    outer loop
      vertex -43.5556 -15 -1.89224
      vertex 46.5 -15 -12
      vertex 46.5 -15 -11.9343
    endloop
  endfacet
  facet normal 0 -1 0
    outer loop
      vertex 43.1418 -15 0.986063
      vertex 46.5 -15 12
      vertex -43.5556 -15 1.89224
    endloop
  endfacet
  facet normal 0 -1 0
    outer loop
      vertex 46.5 -15 11.9343
      vertex 44.208 -15 2.64512
      vertex 46.0019 -15 3.46437
    endloop
  endfacet
  facet normal 0 -1 -0
    outer loop
      vertex 46.5 -15 12
      vertex 43.1418 -15 0.986063
      vertex 46.5 -15 11.9343
    endloop
  endfacet
  facet normal 0 -1 0
    outer loop
      vertex 46.5 -15 11.9343
      vertex 43.1418 -15 0.986063
      vertex 44.208 -15 2.64512
    endloop
  endfacet
  facet normal 0 -1 0
    outer loop
      vertex -43 -15 3.33067e-15
      vertex 43.1418 -15 0.986063
      vertex -43.5556 -15 1.89224
    endloop
  endfacet
  facet normal 0 -1 0
    outer loop
      vertex -43 -15 3.33067e-15
      vertex 43.1418 -15 -0.986063
      vertex 43.1418 -15 0.986063
    endloop
  endfacet
  facet normal 0 -1 0
    outer loop
      vertex -43.5556 -15 -1.89224
      vertex 43.1418 -15 -0.986063
      vertex -43 -15 3.33067e-15
    endloop
  endfacet
  facet normal 0 -1 0
    outer loop
      vertex 46.5 -15 -11.9343
      vertex 43.1418 -15 -0.986063
      vertex -43.5556 -15 -1.89224
    endloop
  endfacet
  facet normal 0 -1 0
    outer loop
      vertex -46.5 -15 -11.9343
      vertex -43.5556 -15 -1.89224
      vertex -45.046 -15 -3.18371
    endloop
  endfacet
  facet normal 0 -1 0
    outer loop
      vertex -46.5 -15 -11.9343
      vertex -45.046 -15 -3.18371
      vertex -46.9981 -15 -3.46437
    endloop
  endfacet
  facet normal 0 -1 0
    outer loop
      vertex -46.5 -15 -12
      vertex -43.5556 -15 -1.89224
      vertex -46.5 -15 -11.9343
    endloop
  endfacet
  facet normal 0 -1 0
    outer loop
      vertex -46.9981 -15 3.46437
      vertex -46.5 -15 11.9343
      vertex -47.7543 -15 11.9343
    endloop
  endfacet
  facet normal 0 -1 0
    outer loop
      vertex -45.046 -15 3.18371
      vertex -46.5 -15 11.9343
      vertex -46.9981 -15 3.46437
    endloop
  endfacet
  facet normal 0 -1 0
    outer loop
      vertex -46.9981 -15 3.46437
      vertex -47.7543 -15 11.9343
      vertex -50.2082 -15 11.4127
    endloop
  endfacet
  facet normal 0 -1 0
    outer loop
      vertex -46.5 -15 12
      vertex -43.5556 -15 1.89224
      vertex 46.5 -15 12
    endloop
  endfacet
  facet normal 0 -1 0
    outer loop
      vertex -46.9981 -15 3.46437
      vertex -50.2082 -15 11.4127
      vertex -52.5 -15 10.3923
    endloop
  endfacet
  facet normal 0 -1 -0
    outer loop
      vertex 46.5 -15 11.9343
      vertex 46.0019 -15 3.46437
      vertex 47.7543 -15 11.9343
    endloop
  endfacet
  facet normal 0 -1 0
    outer loop
      vertex -48.792 -15 2.64512
      vertex -52.5 -15 10.3923
      vertex -54.5296 -15 8.91774
    endloop
  endfacet
  facet normal 0 -1 0
    outer loop
      vertex 47.954 -15 3.18371
      vertex 47.7543 -15 11.9343
      vertex 46.0019 -15 3.46437
    endloop
  endfacet
  facet normal 0 -1 0
    outer loop
      vertex -48.792 -15 2.64512
      vertex -54.5296 -15 8.91774
      vertex -56.2082 -15 7.05342
    endloop
  endfacet
  facet normal 0 -1 0
    outer loop
      vertex 47.7543 -15 11.9343
      vertex 47.954 -15 3.18371
      vertex 50.2082 -15 11.4127
    endloop
  endfacet
  facet normal 0 -1 0
    outer loop
      vertex -49.8582 -15 0.986063
      vertex -56.2082 -15 7.05342
      vertex -57.4625 -15 4.88084
    endloop
  endfacet
  facet normal 0 -1 -0
    outer loop
      vertex 50.2082 -15 11.4127
      vertex 47.954 -15 3.18371
      vertex 52.5 -15 10.3923
    endloop
  endfacet
  facet normal 0 -1 -0
    outer loop
      vertex 52.5 -15 10.3923
      vertex 47.954 -15 3.18371
      vertex 54.5296 -15 8.91774
    endloop
  endfacet
  facet normal 0 -1 0
    outer loop
      vertex -52.5 -15 10.3923
      vertex -48.792 -15 2.64512
      vertex -46.9981 -15 3.46437
    endloop
  endfacet
  facet normal 0 -1 0
    outer loop
      vertex -49.8582 -15 0.986063
      vertex -57.4625 -15 4.88084
      vertex -58.2378 -15 2.49494
    endloop
  endfacet
  facet normal 0 -1 0
    outer loop
      vertex -56.2082 -15 7.05342
      vertex -49.8582 -15 0.986063
      vertex -48.792 -15 2.64512
    endloop
  endfacet
  facet normal 0 -1 0
    outer loop
      vertex -58.5 -15 3.33067e-15
      vertex -49.8582 -15 0.986063
      vertex -58.2378 -15 2.49494
    endloop
  endfacet
  facet normal 0 -1 0
    outer loop
      vertex -58.5 -15 3.33067e-15
      vertex -49.8582 -15 -0.986063
      vertex -49.8582 -15 0.986063
    endloop
  endfacet
  facet normal 0 -1 0
    outer loop
      vertex -58.2378 -15 -2.49494
      vertex -49.8582 -15 -0.986063
      vertex -58.5 -15 3.33067e-15
    endloop
  endfacet
  facet normal 0 -1 0
    outer loop
      vertex -57.4625 -15 -4.88084
      vertex -49.8582 -15 -0.986063
      vertex -58.2378 -15 -2.49494
    endloop
  endfacet
  facet normal 0 -1 0
    outer loop
      vertex -56.2082 -15 -7.05342
      vertex -49.8582 -15 -0.986063
      vertex -57.4625 -15 -4.88084
    endloop
  endfacet
  facet normal 0 -1 0
    outer loop
      vertex -54.5296 -15 -8.91774
      vertex -48.792 -15 -2.64512
      vertex -56.2082 -15 -7.05342
    endloop
  endfacet
  facet normal 0 -1 -0
    outer loop
      vertex -49.8582 -15 -0.986063
      vertex -56.2082 -15 -7.05342
      vertex -48.792 -15 -2.64512
    endloop
  endfacet
  facet normal 0 -1 0
    outer loop
      vertex -43.5556 -15 1.89224
      vertex -46.5 -15 11.9343
      vertex -45.046 -15 3.18371
    endloop
  endfacet
  facet normal 0 -1 0
    outer loop
      vertex -46.5 -15 11.9343
      vertex -43.5556 -15 1.89224
      vertex -46.5 -15 12
    endloop
  endfacet
  facet normal 0 -1 0
    outer loop
      vertex 49.4444 -15 1.89224
      vertex 54.5296 -15 8.91774
      vertex 47.954 -15 3.18371
    endloop
  endfacet
  facet normal 0 -1 -0
    outer loop
      vertex 54.5296 -15 8.91774
      vertex 49.4444 -15 1.89224
      vertex 56.2082 -15 7.05342
    endloop
  endfacet
  facet normal 0 -1 -0
    outer loop
      vertex 56.2082 -15 7.05342
      vertex 49.4444 -15 1.89224
      vertex 57.4625 -15 4.88084
    endloop
  endfacet
  facet normal 0 -1 -0
    outer loop
      vertex 57.4625 -15 4.88084
      vertex 49.4444 -15 1.89224
      vertex 58.2378 -15 2.49494
    endloop
  endfacet
  facet normal 0 -1 0
    outer loop
      vertex 50 -15 3.33067e-15
      vertex 58.2378 -15 2.49494
      vertex 49.4444 -15 1.89224
    endloop
  endfacet
  facet normal 0 -1 0
    outer loop
      vertex 50 -15 3.33067e-15
      vertex 58.5 -15 3.33067e-15
      vertex 58.2378 -15 2.49494
    endloop
  endfacet
  facet normal 0 -1 0
    outer loop
      vertex 58.2378 -15 -2.49494
      vertex 50 -15 3.33067e-15
      vertex 49.4444 -15 -1.89224
    endloop
  endfacet
  facet normal 0 -1 0
    outer loop
      vertex 50 -15 3.33067e-15
      vertex 58.2378 -15 -2.49494
      vertex 58.5 -15 3.33067e-15
    endloop
  endfacet
  facet normal 0 -1 0
    outer loop
      vertex 54.5296 -15 -8.91774
      vertex 49.4444 -15 -1.89224
      vertex 47.954 -15 -3.18371
    endloop
  endfacet
  facet normal 0 -1 0
    outer loop
      vertex 47.7543 -15 -11.9343
      vertex 47.954 -15 -3.18371
      vertex 46.0019 -15 -3.46437
    endloop
  endfacet
  facet normal 0 -1 0
    outer loop
      vertex 49.4444 -15 -1.89224
      vertex 57.4625 -15 -4.88084
      vertex 58.2378 -15 -2.49494
    endloop
  endfacet
  facet normal 0 -1 0
    outer loop
      vertex 43.1418 -15 -0.986063
      vertex 46.5 -15 -11.9343
      vertex 44.208 -15 -2.64512
    endloop
  endfacet
  facet normal 0 -1 0
    outer loop
      vertex -52.5 -15 -10.3923
      vertex -48.792 -15 -2.64512
      vertex -54.5296 -15 -8.91774
    endloop
  endfacet
  facet normal 0 -1 0
    outer loop
      vertex 44.208 -15 -2.64512
      vertex 46.5 -15 -11.9343
      vertex 46.0019 -15 -3.46437
    endloop
  endfacet
  facet normal 0 -1 -0
    outer loop
      vertex -48.792 -15 -2.64512
      vertex -52.5 -15 -10.3923
      vertex -46.9981 -15 -3.46437
    endloop
  endfacet
  facet normal 0 -1 0
    outer loop
      vertex 47.7543 -15 -11.9343
      vertex 46.0019 -15 -3.46437
      vertex 46.5 -15 -11.9343
    endloop
  endfacet
  facet normal 0 -1 0
    outer loop
      vertex -50.2082 -15 -11.4127
      vertex -46.9981 -15 -3.46437
      vertex -52.5 -15 -10.3923
    endloop
  endfacet
  facet normal 0 -1 0
    outer loop
      vertex 49.4444 -15 -1.89224
      vertex 56.2082 -15 -7.05342
      vertex 57.4625 -15 -4.88084
    endloop
  endfacet
  facet normal 0 -1 0
    outer loop
      vertex -47.7543 -15 -11.9343
      vertex -46.9981 -15 -3.46437
      vertex -50.2082 -15 -11.4127
    endloop
  endfacet
  facet normal 0 -1 0
    outer loop
      vertex 49.4444 -15 -1.89224
      vertex 54.5296 -15 -8.91774
      vertex 56.2082 -15 -7.05342
    endloop
  endfacet
  facet normal 0 -1 -0
    outer loop
      vertex -46.9981 -15 -3.46437
      vertex -47.7543 -15 -11.9343
      vertex -46.5 -15 -11.9343
    endloop
  endfacet
  facet normal 0 -1 0
    outer loop
      vertex 47.954 -15 -3.18371
      vertex 52.5 -15 -10.3923
      vertex 54.5296 -15 -8.91774
    endloop
  endfacet
  facet normal 0 -1 0
    outer loop
      vertex 47.954 -15 -3.18371
      vertex 50.2082 -15 -11.4127
      vertex 52.5 -15 -10.3923
    endloop
  endfacet
  facet normal 0 -1 -0
    outer loop
      vertex 47.954 -15 -3.18371
      vertex 47.7543 -15 -11.9343
      vertex 50.2082 -15 -11.4127
    endloop
  endfacet
  facet normal 0 0 1
    outer loop
      vertex 46.5 15 12
      vertex 37.5 13 12
      vertex 46.5 -15 12
    endloop
  endfacet
  facet normal 0 0 1
    outer loop
      vertex 46.5 15 12
      vertex -37.5 13 12
      vertex 37.5 13 12
    endloop
  endfacet
  facet normal 0 0 1
    outer loop
      vertex -37.5 13 12
      vertex -46.5 15 12
      vertex -37.5 -13 12
    endloop
  endfacet
  facet normal -0 0 1
    outer loop
      vertex -46.5 15 12
      vertex -37.5 13 12
      vertex 46.5 15 12
    endloop
  endfacet
  facet normal -0 0 1
    outer loop
      vertex 37.5 -13 12
      vertex 46.5 -15 12
      vertex 37.5 13 12
    endloop
  endfacet
  facet normal -0 0 1
    outer loop
      vertex -37.5 -13 12
      vertex 46.5 -15 12
      vertex 37.5 -13 12
    endloop
  endfacet
  facet normal 0 0 1
    outer loop
      vertex -37.5 -13 12
      vertex -46.5 -15 12
      vertex 46.5 -15 12
    endloop
  endfacet
  facet normal 0 0 1
    outer loop
      vertex -46.5 -15 12
      vertex -37.5 -13 12
      vertex -46.5 15 12
    endloop
  endfacet
  facet normal 0.994522 -2.32101e-17 -0.104529
    outer loop
      vertex 58.5 -15 3.33067e-15
      vertex 58.2378 15 -2.49494
      vertex 58.5 15 -3.33067e-15
    endloop
  endfacet
  facet normal 0.994522 0 -0.104529
    outer loop
      vertex 58.2378 15 -2.49494
      vertex 58.5 -15 3.33067e-15
      vertex 58.2378 -15 -2.49494
    endloop
  endfacet
  facet normal 0 0 -1
    outer loop
      vertex 46.5 -15 -11.9343
      vertex 47.7543 15 -11.9343
      vertex 47.7543 -15 -11.9343
    endloop
  endfacet
  facet normal -0 0 -1
    outer loop
      vertex 47.7543 15 -11.9343
      vertex 46.5 -15 -11.9343
      vertex 46.5 15 -11.9343
    endloop
  endfacet
  facet normal -0 0 1
    outer loop
      vertex 46.5 15 11.9343
      vertex 47.7543 -15 11.9343
      vertex 47.7543 15 11.9343
    endloop
  endfacet
  facet normal 0 0 1
    outer loop
      vertex 47.7543 -15 11.9343
      vertex 46.5 15 11.9343
      vertex 46.5 -15 11.9343
    endloop
  endfacet
  facet normal 0.587785 0 -0.809017
    outer loop
      vertex 52.5 -15 -10.3923
      vertex 54.5296 15 -8.91774
      vertex 54.5296 -15 -8.91774
    endloop
  endfacet
  facet normal 0.587785 0 -0.809017
    outer loop
      vertex 54.5296 15 -8.91774
      vertex 52.5 -15 -10.3923
      vertex 52.5 15 -10.3923
    endloop
  endfacet
  facet normal 0.406736 0 -0.913546
    outer loop
      vertex 50.2082 -15 -11.4127
      vertex 52.5 15 -10.3923
      vertex 52.5 -15 -10.3923
    endloop
  endfacet
  facet normal 0.406736 0 -0.913546
    outer loop
      vertex 52.5 15 -10.3923
      vertex 50.2082 -15 -11.4127
      vertex 50.2082 15 -11.4127
    endloop
  endfacet
  facet normal 0.866025 -0 0.500001
    outer loop
      vertex 56.2082 -15 7.05342
      vertex 57.4625 15 4.88084
      vertex 56.2082 15 7.05342
    endloop
  endfacet
  facet normal 0.866025 0 0.500001
    outer loop
      vertex 57.4625 15 4.88084
      vertex 56.2082 -15 7.05342
      vertex 57.4625 -15 4.88084
    endloop
  endfacet
  facet normal 0.866025 0 -0.500001
    outer loop
      vertex 57.4625 -15 -4.88084
      vertex 56.2082 15 -7.05342
      vertex 57.4625 15 -4.88084
    endloop
  endfacet
  facet normal 0.866025 0 -0.500001
    outer loop
      vertex 56.2082 15 -7.05342
      vertex 57.4625 -15 -4.88084
      vertex 56.2082 -15 -7.05342
    endloop
  endfacet
  facet normal 0.951057 0 -0.309016
    outer loop
      vertex 58.2378 -15 -2.49494
      vertex 57.4625 15 -4.88084
      vertex 58.2378 15 -2.49494
    endloop
  endfacet
  facet normal 0.951057 0 -0.309016
    outer loop
      vertex 57.4625 15 -4.88084
      vertex 58.2378 -15 -2.49494
      vertex 57.4625 -15 -4.88084
    endloop
  endfacet
  facet normal 0.743145 0 -0.66913
    outer loop
      vertex 56.2082 -15 -7.05342
      vertex 54.5296 15 -8.91774
      vertex 56.2082 15 -7.05342
    endloop
  endfacet
  facet normal 0.743145 0 -0.66913
    outer loop
      vertex 54.5296 15 -8.91774
      vertex 56.2082 -15 -7.05342
      vertex 54.5296 -15 -8.91774
    endloop
  endfacet
  facet normal 0.207912 0 -0.978148
    outer loop
      vertex 47.7543 -15 -11.9343
      vertex 50.2082 15 -11.4127
      vertex 50.2082 -15 -11.4127
    endloop
  endfacet
  facet normal 0.207912 0 -0.978148
    outer loop
      vertex 50.2082 15 -11.4127
      vertex 47.7543 -15 -11.9343
      vertex 47.7543 15 -11.9343
    endloop
  endfacet
  facet normal 0.994522 -0 0.104529
    outer loop
      vertex 58.2378 -15 2.49494
      vertex 58.5 15 -3.33067e-15
      vertex 58.2378 15 2.49494
    endloop
  endfacet
  facet normal 0.994522 2.32101e-17 0.104529
    outer loop
      vertex 58.5 15 -3.33067e-15
      vertex 58.2378 -15 2.49494
      vertex 58.5 -15 3.33067e-15
    endloop
  endfacet
  facet normal 0.207912 0 0.978148
    outer loop
      vertex 47.7543 15 11.9343
      vertex 50.2082 -15 11.4127
      vertex 50.2082 15 11.4127
    endloop
  endfacet
  facet normal 0.207912 0 0.978148
    outer loop
      vertex 50.2082 -15 11.4127
      vertex 47.7543 15 11.9343
      vertex 47.7543 -15 11.9343
    endloop
  endfacet
  facet normal 0.951057 -0 0.309016
    outer loop
      vertex 57.4625 -15 4.88084
      vertex 58.2378 15 2.49494
      vertex 57.4625 15 4.88084
    endloop
  endfacet
  facet normal 0.951057 0 0.309016
    outer loop
      vertex 58.2378 15 2.49494
      vertex 57.4625 -15 4.88084
      vertex 58.2378 -15 2.49494
    endloop
  endfacet
  facet normal 0.587785 0 0.809017
    outer loop
      vertex 52.5 15 10.3923
      vertex 54.5296 -15 8.91774
      vertex 54.5296 15 8.91774
    endloop
  endfacet
  facet normal 0.587785 0 0.809017
    outer loop
      vertex 54.5296 -15 8.91774
      vertex 52.5 15 10.3923
      vertex 52.5 -15 10.3923
    endloop
  endfacet
  facet normal 0.406736 0 0.913546
    outer loop
      vertex 50.2082 15 11.4127
      vertex 52.5 -15 10.3923
      vertex 52.5 15 10.3923
    endloop
  endfacet
  facet normal 0.406736 0 0.913546
    outer loop
      vertex 52.5 -15 10.3923
      vertex 50.2082 15 11.4127
      vertex 50.2082 -15 11.4127
    endloop
  endfacet
  facet normal 0.743145 -0 0.66913
    outer loop
      vertex 54.5296 -15 8.91774
      vertex 56.2082 15 7.05342
      vertex 54.5296 15 8.91774
    endloop
  endfacet
  facet normal 0.743145 0 0.66913
    outer loop
      vertex 56.2082 15 7.05342
      vertex 54.5296 -15 8.91774
      vertex 56.2082 -15 7.05342
    endloop
  endfacet
  facet normal -0.406736 0 -0.913546
    outer loop
      vertex -52.5 -15 -10.3923
      vertex -50.2082 15 -11.4127
      vertex -50.2082 -15 -11.4127
    endloop
  endfacet
  facet normal -0.406736 0 -0.913546
    outer loop
      vertex -50.2082 15 -11.4127
      vertex -52.5 -15 -10.3923
      vertex -52.5 15 -10.3923
    endloop
  endfacet
  facet normal -0.866025 0 -0.500001
    outer loop
      vertex -56.2082 -15 -7.05342
      vertex -57.4625 15 -4.88084
      vertex -56.2082 15 -7.05342
    endloop
  endfacet
  facet normal -0.866025 -0 -0.500001
    outer loop
      vertex -57.4625 15 -4.88084
      vertex -56.2082 -15 -7.05342
      vertex -57.4625 -15 -4.88084
    endloop
  endfacet
  facet normal 0 0 -1
    outer loop
      vertex -47.7543 -15 -11.9343
      vertex -46.5 15 -11.9343
      vertex -46.5 -15 -11.9343
    endloop
  endfacet
  facet normal -0 0 -1
    outer loop
      vertex -46.5 15 -11.9343
      vertex -47.7543 -15 -11.9343
      vertex -47.7543 15 -11.9343
    endloop
  endfacet
  facet normal -0.994522 0 -0.104529
    outer loop
      vertex -58.2378 -15 -2.49494
      vertex -58.5 15 -3.33067e-15
      vertex -58.2378 15 -2.49494
    endloop
  endfacet
  facet normal -0.994522 -2.32101e-17 -0.104529
    outer loop
      vertex -58.5 15 -3.33067e-15
      vertex -58.2378 -15 -2.49494
      vertex -58.5 -15 3.33067e-15
    endloop
  endfacet
  facet normal -0.587785 0 -0.809017
    outer loop
      vertex -54.5296 -15 -8.91774
      vertex -52.5 15 -10.3923
      vertex -52.5 -15 -10.3923
    endloop
  endfacet
  facet normal -0.587785 0 -0.809017
    outer loop
      vertex -52.5 15 -10.3923
      vertex -54.5296 -15 -8.91774
      vertex -54.5296 15 -8.91774
    endloop
  endfacet
  facet normal -0.207912 0 -0.978148
    outer loop
      vertex -50.2082 -15 -11.4127
      vertex -47.7543 15 -11.9343
      vertex -47.7543 -15 -11.9343
    endloop
  endfacet
  facet normal -0.207912 0 -0.978148
    outer loop
      vertex -47.7543 15 -11.9343
      vertex -50.2082 -15 -11.4127
      vertex -50.2082 15 -11.4127
    endloop
  endfacet
  facet normal -0.743145 0 -0.66913
    outer loop
      vertex -54.5296 -15 -8.91774
      vertex -56.2082 15 -7.05342
      vertex -54.5296 15 -8.91774
    endloop
  endfacet
  facet normal -0.743145 -0 -0.66913
    outer loop
      vertex -56.2082 15 -7.05342
      vertex -54.5296 -15 -8.91774
      vertex -56.2082 -15 -7.05342
    endloop
  endfacet
  facet normal -0.866025 0 0.500001
    outer loop
      vertex -57.4625 -15 4.88084
      vertex -56.2082 15 7.05342
      vertex -57.4625 15 4.88084
    endloop
  endfacet
  facet normal -0.866025 0 0.500001
    outer loop
      vertex -56.2082 15 7.05342
      vertex -57.4625 -15 4.88084
      vertex -56.2082 -15 7.05342
    endloop
  endfacet
  facet normal -0.951057 0 -0.309016
    outer loop
      vertex -57.4625 -15 -4.88084
      vertex -58.2378 15 -2.49494
      vertex -57.4625 15 -4.88084
    endloop
  endfacet
  facet normal -0.951057 -0 -0.309016
    outer loop
      vertex -58.2378 15 -2.49494
      vertex -57.4625 -15 -4.88084
      vertex -58.2378 -15 -2.49494
    endloop
  endfacet
  facet normal -0.994522 2.32101e-17 0.104529
    outer loop
      vertex -58.5 -15 3.33067e-15
      vertex -58.2378 15 2.49494
      vertex -58.5 15 -3.33067e-15
    endloop
  endfacet
  facet normal -0.994522 0 0.104529
    outer loop
      vertex -58.2378 15 2.49494
      vertex -58.5 -15 3.33067e-15
      vertex -58.2378 -15 2.49494
    endloop
  endfacet
  facet normal -0.207912 0 0.978148
    outer loop
      vertex -50.2082 15 11.4127
      vertex -47.7543 -15 11.9343
      vertex -47.7543 15 11.9343
    endloop
  endfacet
  facet normal -0.207912 0 0.978148
    outer loop
      vertex -47.7543 -15 11.9343
      vertex -50.2082 15 11.4127
      vertex -50.2082 -15 11.4127
    endloop
  endfacet
  facet normal -0 0 1
    outer loop
      vertex -47.7543 15 11.9343
      vertex -46.5 -15 11.9343
      vertex -46.5 15 11.9343
    endloop
  endfacet
  facet normal 0 0 1
    outer loop
      vertex -46.5 -15 11.9343
      vertex -47.7543 15 11.9343
      vertex -47.7543 -15 11.9343
    endloop
  endfacet
  facet normal -0.951057 0 0.309016
    outer loop
      vertex -58.2378 -15 2.49494
      vertex -57.4625 15 4.88084
      vertex -58.2378 15 2.49494
    endloop
  endfacet
  facet normal -0.951057 0 0.309016
    outer loop
      vertex -57.4625 15 4.88084
      vertex -58.2378 -15 2.49494
      vertex -57.4625 -15 4.88084
    endloop
  endfacet
  facet normal -0.743145 0 0.66913
    outer loop
      vertex -56.2082 -15 7.05342
      vertex -54.5296 15 8.91774
      vertex -56.2082 15 7.05342
    endloop
  endfacet
  facet normal -0.743145 0 0.66913
    outer loop
      vertex -54.5296 15 8.91774
      vertex -56.2082 -15 7.05342
      vertex -54.5296 -15 8.91774
    endloop
  endfacet
  facet normal -0.587785 0 0.809017
    outer loop
      vertex -54.5296 15 8.91774
      vertex -52.5 -15 10.3923
      vertex -52.5 15 10.3923
    endloop
  endfacet
  facet normal -0.587785 0 0.809017
    outer loop
      vertex -52.5 -15 10.3923
      vertex -54.5296 15 8.91774
      vertex -54.5296 -15 8.91774
    endloop
  endfacet
  facet normal -0.406736 0 0.913546
    outer loop
      vertex -52.5 15 10.3923
      vertex -50.2082 -15 11.4127
      vertex -50.2082 15 11.4127
    endloop
  endfacet
  facet normal -0.406736 0 0.913546
    outer loop
      vertex -50.2082 -15 11.4127
      vertex -52.5 15 10.3923
      vertex -52.5 -15 10.3923
    endloop
  endfacet
  facet normal 1 -0 0
    outer loop
      vertex -33.5 -9 -10
      vertex -33.5 9 -12
      vertex -33.5 9 -10
    endloop
  endfacet
  facet normal 1 0 0
    outer loop
      vertex -33.5 9 -12
      vertex -33.5 -9 -10
      vertex -33.5 -9 -12
    endloop
  endfacet
  facet normal 0 -1 0
    outer loop
      vertex -33.5 9 -12
      vertex 33.5 9 -10
      vertex -33.5 9 -10
    endloop
  endfacet
  facet normal 0 -1 -0
    outer loop
      vertex 33.5 9 -10
      vertex -33.5 9 -12
      vertex 33.5 9 -12
    endloop
  endfacet
  facet normal -1 0 0
    outer loop
      vertex 33.5 -9 -12
      vertex 33.5 9 -10
      vertex 33.5 9 -12
    endloop
  endfacet
  facet normal -1 -0 0
    outer loop
      vertex 33.5 9 -10
      vertex 33.5 -9 -12
      vertex 33.5 -9 -10
    endloop
  endfacet
  facet normal 0 1 -0
    outer loop
      vertex 33.5 -9 -12
      vertex -33.5 -9 -10
      vertex 33.5 -9 -10
    endloop
  endfacet
  facet normal 0 1 0
    outer loop
      vertex -33.5 -9 -10
      vertex 33.5 -9 -12
      vertex -33.5 -9 -12
    endloop
  endfacet
  facet normal 1 -0 0
    outer loop
      vertex -37.5 -13 12
      vertex -37.5 13 -10
      vertex -37.5 13 12
    endloop
  endfacet
  facet normal 1 0 0
    outer loop
      vertex -37.5 13 -10
      vertex -37.5 -13 12
      vertex -37.5 -13 -10
    endloop
  endfacet
  facet normal 0 -1 0
    outer loop
      vertex -37.5 13 -10
      vertex 37.5 13 12
      vertex -37.5 13 12
    endloop
  endfacet
  facet normal 0 -1 -0
    outer loop
      vertex 37.5 13 12
      vertex -37.5 13 -10
      vertex 37.5 13 -10
    endloop
  endfacet
  facet normal -1 0 0
    outer loop
      vertex 37.5 -13 -10
      vertex 37.5 13 12
      vertex 37.5 13 -10
    endloop
  endfacet
  facet normal -1 -0 0
    outer loop
      vertex 37.5 13 12
      vertex 37.5 -13 -10
      vertex 37.5 -13 12
    endloop
  endfacet
  facet normal 0 1 -0
    outer loop
      vertex 37.5 -13 -10
      vertex -37.5 -13 12
      vertex 37.5 -13 12
    endloop
  endfacet
  facet normal 0 1 0
    outer loop
      vertex -37.5 -13 12
      vertex 37.5 -13 -10
      vertex -37.5 -13 -10
    endloop
  endfacet
  facet normal 0 0 1
    outer loop
      vertex 37.5 13 -10
      vertex 33.5 9 -10
      vertex 37.5 -13 -10
    endloop
  endfacet
  facet normal 0 0 1
    outer loop
      vertex 37.5 13 -10
      vertex -33.5 9 -10
      vertex 33.5 9 -10
    endloop
  endfacet
  facet normal 0 0 1
    outer loop
      vertex -33.5 9 -10
      vertex -37.5 13 -10
      vertex -33.5 -9 -10
    endloop
  endfacet
  facet normal -0 0 1
    outer loop
      vertex -37.5 13 -10
      vertex -33.5 9 -10
      vertex 37.5 13 -10
    endloop
  endfacet
  facet normal -0 0 1
    outer loop
      vertex 33.5 -9 -10
      vertex 37.5 -13 -10
      vertex 33.5 9 -10
    endloop
  endfacet
  facet normal -0 0 1
    outer loop
      vertex -33.5 -9 -10
      vertex 37.5 -13 -10
      vertex 33.5 -9 -10
    endloop
  endfacet
  facet normal 0 0 1
    outer loop
      vertex -33.5 -9 -10
      vertex -37.5 -13 -10
      vertex 37.5 -13 -10
    endloop
  endfacet
  facet normal 0 0 1
    outer loop
      vertex -37.5 -13 -10
      vertex -33.5 -9 -10
      vertex -37.5 13 -10
    endloop
  endfacet
  facet normal -0.959493 0 0.281733
    outer loop
      vertex 49.4444 -15 -1.89224
      vertex 50 15 -3.33067e-15
      vertex 49.4444 15 -1.89224
    endloop
  endfacet
  facet normal -0.959493 6.25574e-17 0.281733
    outer loop
      vertex 50 15 -3.33067e-15
      vertex 49.4444 -15 -1.89224
      vertex 50 -15 3.33067e-15
    endloop
  endfacet
  facet normal 1 -0 0
    outer loop
      vertex 43.1418 -15 0.986063
      vertex 43.1418 15 -0.986063
      vertex 43.1418 15 0.986063
    endloop
  endfacet
  facet normal 1 0 0
    outer loop
      vertex 43.1418 15 -0.986063
      vertex 43.1418 -15 0.986063
      vertex 43.1418 -15 -0.986063
    endloop
  endfacet
  facet normal 0.415415 0 0.909632
    outer loop
      vertex 44.208 15 -2.64512
      vertex 46.0019 -15 -3.46437
      vertex 46.0019 15 -3.46437
    endloop
  endfacet
  facet normal 0.415415 0 0.909632
    outer loop
      vertex 46.0019 -15 -3.46437
      vertex 44.208 15 -2.64512
      vertex 44.208 -15 -2.64512
    endloop
  endfacet
  facet normal 0.841254 -0 0.54064
    outer loop
      vertex 43.1418 -15 -0.986063
      vertex 44.208 15 -2.64512
      vertex 43.1418 15 -0.986063
    endloop
  endfacet
  facet normal 0.841254 0 0.54064
    outer loop
      vertex 44.208 15 -2.64512
      vertex 43.1418 -15 -0.986063
      vertex 44.208 -15 -2.64512
    endloop
  endfacet
  facet normal -0.142315 0 -0.989821
    outer loop
      vertex 46.0019 -15 3.46437
      vertex 47.954 15 3.18371
      vertex 47.954 -15 3.18371
    endloop
  endfacet
  facet normal -0.142315 0 -0.989821
    outer loop
      vertex 47.954 15 3.18371
      vertex 46.0019 -15 3.46437
      vertex 46.0019 15 3.46437
    endloop
  endfacet
  facet normal -0.654861 0 -0.755749
    outer loop
      vertex 47.954 -15 3.18371
      vertex 49.4444 15 1.89224
      vertex 49.4444 -15 1.89224
    endloop
  endfacet
  facet normal -0.654861 0 -0.755749
    outer loop
      vertex 49.4444 15 1.89224
      vertex 47.954 -15 3.18371
      vertex 47.954 15 3.18371
    endloop
  endfacet
  facet normal -0.142315 0 0.989821
    outer loop
      vertex 46.0019 15 -3.46437
      vertex 47.954 -15 -3.18371
      vertex 47.954 15 -3.18371
    endloop
  endfacet
  facet normal -0.142315 0 0.989821
    outer loop
      vertex 47.954 -15 -3.18371
      vertex 46.0019 15 -3.46437
      vertex 46.0019 -15 -3.46437
    endloop
  endfacet
  facet normal -0.654861 0 0.755749
    outer loop
      vertex 47.954 15 -3.18371
      vertex 49.4444 -15 -1.89224
      vertex 49.4444 15 -1.89224
    endloop
  endfacet
  facet normal -0.654861 0 0.755749
    outer loop
      vertex 49.4444 -15 -1.89224
      vertex 47.954 15 -3.18371
      vertex 47.954 -15 -3.18371
    endloop
  endfacet
  facet normal -0.959493 -6.25574e-17 -0.281733
    outer loop
      vertex 50 -15 3.33067e-15
      vertex 49.4444 15 1.89224
      vertex 50 15 -3.33067e-15
    endloop
  endfacet
  facet normal -0.959493 -0 -0.281733
    outer loop
      vertex 49.4444 15 1.89224
      vertex 50 -15 3.33067e-15
      vertex 49.4444 -15 1.89224
    endloop
  endfacet
  facet normal 0.415415 0 -0.909632
    outer loop
      vertex 44.208 -15 2.64512
      vertex 46.0019 15 3.46437
      vertex 46.0019 -15 3.46437
    endloop
  endfacet
  facet normal 0.415415 0 -0.909632
    outer loop
      vertex 46.0019 15 3.46437
      vertex 44.208 -15 2.64512
      vertex 44.208 15 2.64512
    endloop
  endfacet
  facet normal 0.841254 0 -0.54064
    outer loop
      vertex 44.208 -15 2.64512
      vertex 43.1418 15 0.986063
      vertex 44.208 15 2.64512
    endloop
  endfacet
  facet normal 0.841254 0 -0.54064
    outer loop
      vertex 43.1418 15 0.986063
      vertex 44.208 -15 2.64512
      vertex 43.1418 -15 0.986063
    endloop
  endfacet
  facet normal -0.959493 0 0.281732
    outer loop
      vertex -43.5556 -15 -1.89224
      vertex -43 15 -3.33067e-15
      vertex -43.5556 15 -1.89224
    endloop
  endfacet
  facet normal -0.959493 6.2557e-17 0.281732
    outer loop
      vertex -43 15 -3.33067e-15
      vertex -43.5556 -15 -1.89224
      vertex -43 -15 3.33067e-15
    endloop
  endfacet
  facet normal 1 -0 0
    outer loop
      vertex -49.8582 -15 0.986063
      vertex -49.8582 15 -0.986063
      vertex -49.8582 15 0.986063
    endloop
  endfacet
  facet normal 1 0 0
    outer loop
      vertex -49.8582 15 -0.986063
      vertex -49.8582 -15 0.986063
      vertex -49.8582 -15 -0.986063
    endloop
  endfacet
  facet normal 0.415415 0 0.909632
    outer loop
      vertex -48.792 15 -2.64512
      vertex -46.9981 -15 -3.46437
      vertex -46.9981 15 -3.46437
    endloop
  endfacet
  facet normal 0.415415 0 0.909632
    outer loop
      vertex -46.9981 -15 -3.46437
      vertex -48.792 15 -2.64512
      vertex -48.792 -15 -2.64512
    endloop
  endfacet
  facet normal 0.841254 -0 0.54064
    outer loop
      vertex -49.8582 -15 -0.986063
      vertex -48.792 15 -2.64512
      vertex -49.8582 15 -0.986063
    endloop
  endfacet
  facet normal 0.841254 0 0.54064
    outer loop
      vertex -48.792 15 -2.64512
      vertex -49.8582 -15 -0.986063
      vertex -48.792 -15 -2.64512
    endloop
  endfacet
  facet normal -0.142315 0 -0.989821
    outer loop
      vertex -46.9981 -15 3.46437
      vertex -45.046 15 3.18371
      vertex -45.046 -15 3.18371
    endloop
  endfacet
  facet normal -0.142315 0 -0.989821
    outer loop
      vertex -45.046 15 3.18371
      vertex -46.9981 -15 3.46437
      vertex -46.9981 15 3.46437
    endloop
  endfacet
  facet normal -0.142315 0 0.989821
    outer loop
      vertex -46.9981 15 -3.46437
      vertex -45.046 -15 -3.18371
      vertex -45.046 15 -3.18371
    endloop
  endfacet
  facet normal -0.142315 0 0.989821
    outer loop
      vertex -45.046 -15 -3.18371
      vertex -46.9981 15 -3.46437
      vertex -46.9981 -15 -3.46437
    endloop
  endfacet
  facet normal -0.65486 0 0.75575
    outer loop
      vertex -45.046 15 -3.18371
      vertex -43.5556 -15 -1.89224
      vertex -43.5556 15 -1.89224
    endloop
  endfacet
  facet normal -0.65486 0 0.75575
    outer loop
      vertex -43.5556 -15 -1.89224
      vertex -45.046 15 -3.18371
      vertex -45.046 -15 -3.18371
    endloop
  endfacet
  facet normal -0.959493 -6.2557e-17 -0.281732
    outer loop
      vertex -43 -15 3.33067e-15
      vertex -43.5556 15 1.89224
      vertex -43 15 -3.33067e-15
    endloop
  endfacet
  facet normal -0.959493 -0 -0.281732
    outer loop
      vertex -43.5556 15 1.89224
      vertex -43 -15 3.33067e-15
      vertex -43.5556 -15 1.89224
    endloop
  endfacet
  facet normal -0.65486 0 -0.75575
    outer loop
      vertex -45.046 -15 3.18371
      vertex -43.5556 15 1.89224
      vertex -43.5556 -15 1.89224
    endloop
  endfacet
  facet normal -0.65486 0 -0.75575
    outer loop
      vertex -43.5556 15 1.89224
      vertex -45.046 -15 3.18371
      vertex -45.046 15 3.18371
    endloop
  endfacet
  facet normal 0.415415 0 -0.909632
    outer loop
      vertex -48.792 -15 2.64512
      vertex -46.9981 15 3.46437
      vertex -46.9981 -15 3.46437
    endloop
  endfacet
  facet normal 0.415415 0 -0.909632
    outer loop
      vertex -46.9981 15 3.46437
      vertex -48.792 -15 2.64512
      vertex -48.792 15 2.64512
    endloop
  endfacet
  facet normal 0.841254 0 -0.54064
    outer loop
      vertex -48.792 -15 2.64512
      vertex -49.8582 15 0.986063
      vertex -48.792 15 2.64512
    endloop
  endfacet
  facet normal 0.841254 0 -0.54064
    outer loop
      vertex -49.8582 15 0.986063
      vertex -48.792 -15 2.64512
      vertex -49.8582 -15 0.986063
    endloop
  endfacet
endsolid OpenSCAD_Model
