solid OpenSCAD_Model
  facet normal -1 0 0
    outer loop
      vertex -2.8 -40 -2
      vertex -2.8 40 2
      vertex -2.8 40 -2
    endloop
  endfacet
  facet normal -1 -0 0
    outer loop
      vertex -2.8 40 2
      vertex -2.8 -40 -2
      vertex -2.8 -40 2
    endloop
  endfacet
  facet normal -0 0 1
    outer loop
      vertex 0.809016 19.4122 2
      vertex 1 -20 2
      vertex 1 20 2
    endloop
  endfacet
  facet normal 0 0 1
    outer loop
      vertex 0.809016 19.4122 2
      vertex 0.809016 -19.4122 2
      vertex 1 -20 2
    endloop
  endfacet
  facet normal -0 0 1
    outer loop
      vertex 0.309016 19.0489 2
      vertex 0.809016 -19.4122 2
      vertex 0.809016 19.4122 2
    endloop
  endfacet
  facet normal 0 0 1
    outer loop
      vertex 0.309016 19.0489 2
      vertex 0.309016 -19.0489 2
      vertex 0.809016 -19.4122 2
    endloop
  endfacet
  facet normal -0 0 1
    outer loop
      vertex -0.309016 19.0489 2
      vertex 0.309016 -19.0489 2
      vertex 0.309016 19.0489 2
    endloop
  endfacet
  facet normal 0 0 1
    outer loop
      vertex -0.309016 19.0489 2
      vertex -0.309016 -19.0489 2
      vertex 0.309016 -19.0489 2
    endloop
  endfacet
  facet normal 0 0 1
    outer loop
      vertex -0.809016 19.4122 2
      vertex -0.309016 -19.0489 2
      vertex -0.309016 19.0489 2
    endloop
  endfacet
  facet normal 0 0 1
    outer loop
      vertex -0.809016 19.4122 2
      vertex -0.809016 -19.4122 2
      vertex -0.309016 -19.0489 2
    endloop
  endfacet
  facet normal 0 0 1
    outer loop
      vertex -1 20 2
      vertex -0.809016 -19.4122 2
      vertex -0.809016 19.4122 2
    endloop
  endfacet
  facet normal 0 0 1
    outer loop
      vertex -0.809016 -19.4122 2
      vertex -1 20 2
      vertex -1 -20 2
    endloop
  endfacet
  facet normal 0 0 1
    outer loop
      vertex 1.8 -40 2
      vertex 0.772542 -40.1224 2
      vertex 1.8 -40.8689 2
    endloop
  endfacet
  facet normal -0 0 1
    outer loop
      vertex -4.89859e-15 -40 2
      vertex 0.772542 -40.1224 2
      vertex 1.8 -40 2
    endloop
  endfacet
  facet normal 0 0 1
    outer loop
      vertex -4.89859e-15 -40 2
      vertex -0.772542 -40.1224 2
      vertex 0.772542 -40.1224 2
    endloop
  endfacet
  facet normal 0 0 1
    outer loop
      vertex -1.8 -40 2
      vertex -4.89859e-15 -40 2
      vertex -0.309016 -20.9511 2
    endloop
  endfacet
  facet normal 0 0 1
    outer loop
      vertex -2.8 -40 2
      vertex -0.309016 -20.9511 2
      vertex -0.809016 -20.5878 2
    endloop
  endfacet
  facet normal 0 0 1
    outer loop
      vertex -2.8 -40 2
      vertex -0.809016 -20.5878 2
      vertex -1 -20 2
    endloop
  endfacet
  facet normal 0 0 1
    outer loop
      vertex -0.809016 20.5878 2
      vertex -2.8 40 2
      vertex -1 20 2
    endloop
  endfacet
  facet normal 0 0 1
    outer loop
      vertex -1 20 2
      vertex -2.8 40 2
      vertex -1 -20 2
    endloop
  endfacet
  facet normal 0 0 1
    outer loop
      vertex -4.89859e-15 -40 2
      vertex -1.8 -40 2
      vertex -0.772542 -40.1224 2
    endloop
  endfacet
  facet normal 0 0 1
    outer loop
      vertex -0.772542 -40.1224 2
      vertex -1.8 -40 2
      vertex -1.8 -40.8689 2
    endloop
  endfacet
  facet normal -0 0 1
    outer loop
      vertex 0.772542 40.1224 2
      vertex 1.8 40 2
      vertex 1.8 40.8689 2
    endloop
  endfacet
  facet normal 0 0 1
    outer loop
      vertex 1.8 40 2
      vertex 1 20 2
      vertex 1.8 -40 2
    endloop
  endfacet
  facet normal 0 0 1
    outer loop
      vertex 1.8 40 2
      vertex 0.809016 20.5878 2
      vertex 1 20 2
    endloop
  endfacet
  facet normal 0 0 1
    outer loop
      vertex 0.309016 20.9511 2
      vertex 1.8 40 2
      vertex 0.772542 40.1224 2
    endloop
  endfacet
  facet normal 0 0 1
    outer loop
      vertex 1.8 40 2
      vertex 0.309016 20.9511 2
      vertex 0.809016 20.5878 2
    endloop
  endfacet
  facet normal 0 0 1
    outer loop
      vertex 0.772542 40.1224 2
      vertex -0.309016 20.9511 2
      vertex 0.309016 20.9511 2
    endloop
  endfacet
  facet normal -0 0 1
    outer loop
      vertex -0.772542 40.1224 2
      vertex -0.309016 20.9511 2
      vertex 0.772542 40.1224 2
    endloop
  endfacet
  facet normal -0 0 1
    outer loop
      vertex -1.8 40 2
      vertex -0.309016 20.9511 2
      vertex -0.772542 40.1224 2
    endloop
  endfacet
  facet normal 0 0 1
    outer loop
      vertex -1.8 40 2
      vertex -0.772542 40.1224 2
      vertex -1.8 40.8689 2
    endloop
  endfacet
  facet normal 0 0 1
    outer loop
      vertex -0.309016 20.9511 2
      vertex -2.8 40 2
      vertex -0.809016 20.5878 2
    endloop
  endfacet
  facet normal -0 0 1
    outer loop
      vertex -2.8 40 2
      vertex -0.309016 20.9511 2
      vertex -1.8 40 2
    endloop
  endfacet
  facet normal -0 0 1
    outer loop
      vertex 1.8 40 2
      vertex 2.8 -40 2
      vertex 2.8 40 2
    endloop
  endfacet
  facet normal 0 0 1
    outer loop
      vertex 2.8 -40 2
      vertex 1.8 40 2
      vertex 1.8 -40 2
    endloop
  endfacet
  facet normal -0 0 1
    outer loop
      vertex 1 -20 2
      vertex 1.8 -40 2
      vertex 1 20 2
    endloop
  endfacet
  facet normal -0 0 1
    outer loop
      vertex 0.809016 -20.5878 2
      vertex 1.8 -40 2
      vertex 1 -20 2
    endloop
  endfacet
  facet normal -0 0 1
    outer loop
      vertex 0.309016 -20.9511 2
      vertex 1.8 -40 2
      vertex 0.809016 -20.5878 2
    endloop
  endfacet
  facet normal 0 0 1
    outer loop
      vertex 0.309016 -20.9511 2
      vertex -4.89859e-15 -40 2
      vertex 1.8 -40 2
    endloop
  endfacet
  facet normal 0 -0 1
    outer loop
      vertex -4.89859e-15 -40 2
      vertex 0.309016 -20.9511 2
      vertex -0.309016 -20.9511 2
    endloop
  endfacet
  facet normal 0 0 1
    outer loop
      vertex -2.8 -40 2
      vertex -1 -20 2
      vertex -2.8 40 2
    endloop
  endfacet
  facet normal 0 0 1
    outer loop
      vertex -0.309016 -20.9511 2
      vertex -2.8 -40 2
      vertex -1.8 -40 2
    endloop
  endfacet
  facet normal 0 0 0
    outer loop
      vertex 1.8 -40 2
      vertex -4.89859e-15 -40 2
      vertex 2.8 -40 2
    endloop
  endfacet
  facet normal 1 -0 0
    outer loop
      vertex 2.8 -40 2
      vertex 2.8 40 -2
      vertex 2.8 40 2
    endloop
  endfacet
  facet normal 1 0 0
    outer loop
      vertex 2.8 40 -2
      vertex 2.8 -40 2
      vertex 2.8 -40 -2
    endloop
  endfacet
  facet normal 0 1 -0
    outer loop
      vertex 2.8 40 -2
      vertex 1.8 40 2
      vertex 2.8 40 2
    endloop
  endfacet
  facet normal 0 1 0
    outer loop
      vertex -1.8 40 2
      vertex -2.8 40 -2
      vertex -2.8 40 2
    endloop
  endfacet
  facet normal 0 0 -1
    outer loop
      vertex 0.309016 20.9511 -2
      vertex 2.8 40 -2
      vertex 0.809016 20.5878 -2
    endloop
  endfacet
  facet normal 0 0 -1
    outer loop
      vertex 2.8 40 -2
      vertex 0.809016 41.9122 -2
      vertex 1 42.5 -2
    endloop
  endfacet
  facet normal 0 0 -1
    outer loop
      vertex -2.8 40 -2
      vertex 2.8 40 -2
      vertex 0.309016 20.9511 -2
    endloop
  endfacet
  facet normal 0 0 -1
    outer loop
      vertex 2.8 40 -2
      vertex 0.309016 41.5489 -2
      vertex 0.809016 41.9122 -2
    endloop
  endfacet
  facet normal 0 0 -1
    outer loop
      vertex -2.8 40 -2
      vertex 0.309016 20.9511 -2
      vertex -0.309016 20.9511 -2
    endloop
  endfacet
  facet normal 0 0 -1
    outer loop
      vertex 2.8 40 -2
      vertex -2.8 40 -2
      vertex 0.309016 41.5489 -2
    endloop
  endfacet
  facet normal 0 0 -1
    outer loop
      vertex -2.8 40 -2
      vertex -0.309016 20.9511 -2
      vertex -0.809016 20.5878 -2
    endloop
  endfacet
  facet normal -0 0 -1
    outer loop
      vertex 0.309016 41.5489 -2
      vertex -2.8 40 -2
      vertex -0.309016 41.5489 -2
    endloop
  endfacet
  facet normal 0 0 -1
    outer loop
      vertex -2.8 40 -2
      vertex -0.809016 20.5878 -2
      vertex -1 20 -2
    endloop
  endfacet
  facet normal -0 0 -1
    outer loop
      vertex -0.309016 41.5489 -2
      vertex -2.8 40 -2
      vertex -0.809016 41.9122 -2
    endloop
  endfacet
  facet normal 0 0 -1
    outer loop
      vertex 0.809016 -19.4122 -2
      vertex 1 20 -2
      vertex 1 -20 -2
    endloop
  endfacet
  facet normal 0 0 -1
    outer loop
      vertex 0.809016 -19.4122 -2
      vertex 0.809016 19.4122 -2
      vertex 1 20 -2
    endloop
  endfacet
  facet normal 0 0 -1
    outer loop
      vertex 0.309016 -19.0489 -2
      vertex 0.809016 19.4122 -2
      vertex 0.809016 -19.4122 -2
    endloop
  endfacet
  facet normal 0 0 -1
    outer loop
      vertex 0.309016 -19.0489 -2
      vertex 0.309016 19.0489 -2
      vertex 0.809016 19.4122 -2
    endloop
  endfacet
  facet normal 0 0 -1
    outer loop
      vertex -0.309016 -19.0489 -2
      vertex 0.309016 19.0489 -2
      vertex 0.309016 -19.0489 -2
    endloop
  endfacet
  facet normal 0 0 -1
    outer loop
      vertex -0.309016 -19.0489 -2
      vertex -0.309016 19.0489 -2
      vertex 0.309016 19.0489 -2
    endloop
  endfacet
  facet normal 0 0 -1
    outer loop
      vertex -0.809016 -19.4122 -2
      vertex -0.309016 19.0489 -2
      vertex -0.309016 -19.0489 -2
    endloop
  endfacet
  facet normal 0 0 -1
    outer loop
      vertex -0.809016 -19.4122 -2
      vertex -0.809016 19.4122 -2
      vertex -0.309016 19.0489 -2
    endloop
  endfacet
  facet normal 0 0 -1
    outer loop
      vertex -1 -20 -2
      vertex -0.809016 19.4122 -2
      vertex -0.809016 -19.4122 -2
    endloop
  endfacet
  facet normal -0 0 -1
    outer loop
      vertex -0.809016 19.4122 -2
      vertex -1 -20 -2
      vertex -1 20 -2
    endloop
  endfacet
  facet normal 0 0 -1
    outer loop
      vertex 0.309016 -41.5489 -2
      vertex 2.8 -40 -2
      vertex 0.809016 -41.9122 -2
    endloop
  endfacet
  facet normal 0 0 -1
    outer loop
      vertex 2.8 -40 -2
      vertex 0.809016 -20.5878 -2
      vertex 1 -20 -2
    endloop
  endfacet
  facet normal 0 0 -1
    outer loop
      vertex -2.8 -40 -2
      vertex 2.8 -40 -2
      vertex 0.309016 -41.5489 -2
    endloop
  endfacet
  facet normal 0 0 -1
    outer loop
      vertex 2.8 -40 -2
      vertex 0.309016 -20.9511 -2
      vertex 0.809016 -20.5878 -2
    endloop
  endfacet
  facet normal 0 0 -1
    outer loop
      vertex -2.8 -40 -2
      vertex 0.309016 -41.5489 -2
      vertex -0.309016 -41.5489 -2
    endloop
  endfacet
  facet normal 0 0 -1
    outer loop
      vertex 2.8 -40 -2
      vertex -2.8 -40 -2
      vertex 0.309016 -20.9511 -2
    endloop
  endfacet
  facet normal 0 0 -1
    outer loop
      vertex -2.8 -40 -2
      vertex -0.309016 -41.5489 -2
      vertex -0.809016 -41.9122 -2
    endloop
  endfacet
  facet normal -0 0 -1
    outer loop
      vertex 0.309016 -20.9511 -2
      vertex -2.8 -40 -2
      vertex -0.309016 -20.9511 -2
    endloop
  endfacet
  facet normal 0 0 -1
    outer loop
      vertex -2.8 -40 -2
      vertex -0.809016 -41.9122 -2
      vertex -1 -42.5 -2
    endloop
  endfacet
  facet normal -0 0 -1
    outer loop
      vertex -0.309016 -20.9511 -2
      vertex -2.8 -40 -2
      vertex -0.809016 -20.5878 -2
    endloop
  endfacet
  facet normal 0 0 -1
    outer loop
      vertex 1 -42.5 -2
      vertex 2.8 -40 -2
      vertex 2.8 -45 -2
    endloop
  endfacet
  facet normal 0 0 -1
    outer loop
      vertex 2.8 -40 -2
      vertex 1 -20 -2
      vertex 2.8 40 -2
    endloop
  endfacet
  facet normal 0 0 -1
    outer loop
      vertex 0.809016 -41.9122 -2
      vertex 2.8 -40 -2
      vertex 1 -42.5 -2
    endloop
  endfacet
  facet normal 0 0 -1
    outer loop
      vertex 2.8 -45 -2
      vertex 0.809016 -43.0878 -2
      vertex 1 -42.5 -2
    endloop
  endfacet
  facet normal 0 0 -1
    outer loop
      vertex 2.8 -45 -2
      vertex 0.309016 -43.4511 -2
      vertex 0.809016 -43.0878 -2
    endloop
  endfacet
  facet normal 0 0 -1
    outer loop
      vertex 2.8 -45 -2
      vertex -0.309016 -43.4511 -2
      vertex 0.309016 -43.4511 -2
    endloop
  endfacet
  facet normal -0 0 -1
    outer loop
      vertex -0.809016 -20.5878 -2
      vertex -2.8 -40 -2
      vertex -1 -20 -2
    endloop
  endfacet
  facet normal -0 0 -1
    outer loop
      vertex -1 -20 -2
      vertex -2.8 -40 -2
      vertex -1 20 -2
    endloop
  endfacet
  facet normal 0 0 -1
    outer loop
      vertex -2.8 -40 -2
      vertex -1 -42.5 -2
      vertex -2.8 -45 -2
    endloop
  endfacet
  facet normal -0 0 -1
    outer loop
      vertex -0.809016 -43.0878 -2
      vertex -2.8 -45 -2
      vertex -1 -42.5 -2
    endloop
  endfacet
  facet normal -0 0 -1
    outer loop
      vertex -0.309016 -43.4511 -2
      vertex -2.8 -45 -2
      vertex -0.809016 -43.0878 -2
    endloop
  endfacet
  facet normal 0 0 -1
    outer loop
      vertex -2.8 -45 -2
      vertex -0.309016 -43.4511 -2
      vertex 2.8 -45 -2
    endloop
  endfacet
  facet normal 0 0 -1
    outer loop
      vertex 1 20 -2
      vertex 2.8 40 -2
      vertex 1 -20 -2
    endloop
  endfacet
  facet normal 0 0 -1
    outer loop
      vertex 0.809016 20.5878 -2
      vertex 2.8 40 -2
      vertex 1 20 -2
    endloop
  endfacet
  facet normal 0 0 -1
    outer loop
      vertex 2.8 40 -2
      vertex 1 42.5 -2
      vertex 2.8 45 -2
    endloop
  endfacet
  facet normal 0 0 -1
    outer loop
      vertex 0.809016 43.0878 -2
      vertex 2.8 45 -2
      vertex 1 42.5 -2
    endloop
  endfacet
  facet normal 0 0 -1
    outer loop
      vertex 0.309016 43.4511 -2
      vertex 2.8 45 -2
      vertex 0.809016 43.0878 -2
    endloop
  endfacet
  facet normal 0 0 -1
    outer loop
      vertex -0.309016 43.4511 -2
      vertex 2.8 45 -2
      vertex 0.309016 43.4511 -2
    endloop
  endfacet
  facet normal 0 0 -1
    outer loop
      vertex -2.8 40 -2
      vertex -1 20 -2
      vertex -2.8 -40 -2
    endloop
  endfacet
  facet normal -0 0 -1
    outer loop
      vertex -0.809016 41.9122 -2
      vertex -2.8 40 -2
      vertex -1 42.5 -2
    endloop
  endfacet
  facet normal 0 0 -1
    outer loop
      vertex -2.8 45 -2
      vertex -1 42.5 -2
      vertex -2.8 40 -2
    endloop
  endfacet
  facet normal 0 0 -1
    outer loop
      vertex -0.309016 43.4511 -2
      vertex -2.8 45 -2
      vertex 2.8 45 -2
    endloop
  endfacet
  facet normal 0 0 -1
    outer loop
      vertex -0.809016 43.0878 -2
      vertex -2.8 45 -2
      vertex -0.309016 43.4511 -2
    endloop
  endfacet
  facet normal 0 0 -1
    outer loop
      vertex -1 42.5 -2
      vertex -2.8 45 -2
      vertex -0.809016 43.0878 -2
    endloop
  endfacet
  facet normal 0 -1 0
    outer loop
      vertex -2.8 -40 2
      vertex -2.8 -40 -2
      vertex -1.8 -40 2
    endloop
  endfacet
  facet normal 0 -1 0
    outer loop
      vertex -4.89859e-15 -40 -2
      vertex 2.8 -40 2
      vertex -4.89859e-15 -40 2
    endloop
  endfacet
  facet normal 0 -1 -0
    outer loop
      vertex 2.8 -40 2
      vertex -4.89859e-15 -40 -2
      vertex 2.8 -40 -2
    endloop
  endfacet
  facet normal -0.951056 -0.309019 0
    outer loop
      vertex 1 20 -2
      vertex 0.809016 20.5878 2
      vertex 0.809016 20.5878 -2
    endloop
  endfacet
  facet normal -0.951056 -0.309019 0
    outer loop
      vertex 0.809016 20.5878 2
      vertex 1 20 -2
      vertex 1 20 2
    endloop
  endfacet
  facet normal 0 -1 0
    outer loop
      vertex -0.309016 20.9511 -2
      vertex 0.309016 20.9511 2
      vertex -0.309016 20.9511 2
    endloop
  endfacet
  facet normal 0 -1 -0
    outer loop
      vertex 0.309016 20.9511 2
      vertex -0.309016 20.9511 -2
      vertex 0.309016 20.9511 -2
    endloop
  endfacet
  facet normal -0.587788 -0.809015 0
    outer loop
      vertex 0.309016 20.9511 -2
      vertex 0.809016 20.5878 2
      vertex 0.309016 20.9511 2
    endloop
  endfacet
  facet normal -0.587788 -0.809015 -0
    outer loop
      vertex 0.809016 20.5878 2
      vertex 0.309016 20.9511 -2
      vertex 0.809016 20.5878 -2
    endloop
  endfacet
  facet normal -0.587786 0.809017 0
    outer loop
      vertex 0.809016 19.4122 -2
      vertex 0.309016 19.0489 2
      vertex 0.809016 19.4122 2
    endloop
  endfacet
  facet normal -0.587786 0.809017 0
    outer loop
      vertex 0.309016 19.0489 2
      vertex 0.809016 19.4122 -2
      vertex 0.309016 19.0489 -2
    endloop
  endfacet
  facet normal 0.587786 0.809017 -0
    outer loop
      vertex -0.309016 19.0489 -2
      vertex -0.809016 19.4122 2
      vertex -0.309016 19.0489 2
    endloop
  endfacet
  facet normal 0.587786 0.809017 0
    outer loop
      vertex -0.809016 19.4122 2
      vertex -0.309016 19.0489 -2
      vertex -0.809016 19.4122 -2
    endloop
  endfacet
  facet normal 0.951056 -0.309019 0
    outer loop
      vertex -1 20 2
      vertex -0.809016 20.5878 -2
      vertex -0.809016 20.5878 2
    endloop
  endfacet
  facet normal 0.951056 -0.309019 0
    outer loop
      vertex -0.809016 20.5878 -2
      vertex -1 20 2
      vertex -1 20 -2
    endloop
  endfacet
  facet normal 0.951056 0.309018 0
    outer loop
      vertex -0.809016 19.4122 2
      vertex -1 20 -2
      vertex -1 20 2
    endloop
  endfacet
  facet normal 0.951056 0.309018 0
    outer loop
      vertex -1 20 -2
      vertex -0.809016 19.4122 2
      vertex -0.809016 19.4122 -2
    endloop
  endfacet
  facet normal 0.587788 -0.809015 0
    outer loop
      vertex -0.809016 20.5878 -2
      vertex -0.309016 20.9511 2
      vertex -0.809016 20.5878 2
    endloop
  endfacet
  facet normal 0.587788 -0.809015 0
    outer loop
      vertex -0.309016 20.9511 2
      vertex -0.809016 20.5878 -2
      vertex -0.309016 20.9511 -2
    endloop
  endfacet
  facet normal -0.951056 0.309018 0
    outer loop
      vertex 0.809016 19.4122 -2
      vertex 1 20 2
      vertex 1 20 -2
    endloop
  endfacet
  facet normal -0.951056 0.309018 0
    outer loop
      vertex 1 20 2
      vertex 0.809016 19.4122 -2
      vertex 0.809016 19.4122 2
    endloop
  endfacet
  facet normal 0 1 -0
    outer loop
      vertex 0.309016 19.0489 -2
      vertex -0.309016 19.0489 2
      vertex 0.309016 19.0489 2
    endloop
  endfacet
  facet normal 0 1 0
    outer loop
      vertex -0.309016 19.0489 2
      vertex 0.309016 19.0489 -2
      vertex -0.309016 19.0489 -2
    endloop
  endfacet
  facet normal -0.951056 -0.309018 0
    outer loop
      vertex 1 -20 -2
      vertex 0.809016 -19.4122 2
      vertex 0.809016 -19.4122 -2
    endloop
  endfacet
  facet normal -0.951056 -0.309018 0
    outer loop
      vertex 0.809016 -19.4122 2
      vertex 1 -20 -2
      vertex 1 -20 2
    endloop
  endfacet
  facet normal 0.951056 -0.309018 0
    outer loop
      vertex -1 -20 2
      vertex -0.809016 -19.4122 -2
      vertex -0.809016 -19.4122 2
    endloop
  endfacet
  facet normal 0.951056 -0.309018 0
    outer loop
      vertex -0.809016 -19.4122 -2
      vertex -1 -20 2
      vertex -1 -20 -2
    endloop
  endfacet
  facet normal 0 -1 0
    outer loop
      vertex -0.309016 -19.0489 -2
      vertex 0.309016 -19.0489 2
      vertex -0.309016 -19.0489 2
    endloop
  endfacet
  facet normal 0 -1 -0
    outer loop
      vertex 0.309016 -19.0489 2
      vertex -0.309016 -19.0489 -2
      vertex 0.309016 -19.0489 -2
    endloop
  endfacet
  facet normal -0.587786 -0.809017 0
    outer loop
      vertex 0.309016 -19.0489 -2
      vertex 0.809016 -19.4122 2
      vertex 0.309016 -19.0489 2
    endloop
  endfacet
  facet normal -0.587786 -0.809017 -0
    outer loop
      vertex 0.809016 -19.4122 2
      vertex 0.309016 -19.0489 -2
      vertex 0.809016 -19.4122 -2
    endloop
  endfacet
  facet normal 0.587786 -0.809017 0
    outer loop
      vertex -0.809016 -19.4122 -2
      vertex -0.309016 -19.0489 2
      vertex -0.809016 -19.4122 2
    endloop
  endfacet
  facet normal 0.587786 -0.809017 0
    outer loop
      vertex -0.309016 -19.0489 2
      vertex -0.809016 -19.4122 -2
      vertex -0.309016 -19.0489 -2
    endloop
  endfacet
  facet normal -0.951056 0.309019 0
    outer loop
      vertex 0.809016 -20.5878 -2
      vertex 1 -20 2
      vertex 1 -20 -2
    endloop
  endfacet
  facet normal -0.951056 0.309019 0
    outer loop
      vertex 1 -20 2
      vertex 0.809016 -20.5878 -2
      vertex 0.809016 -20.5878 2
    endloop
  endfacet
  facet normal 0.951056 0.309019 0
    outer loop
      vertex -0.809016 -20.5878 2
      vertex -1 -20 -2
      vertex -1 -20 2
    endloop
  endfacet
  facet normal 0.951056 0.309019 0
    outer loop
      vertex -1 -20 -2
      vertex -0.809016 -20.5878 2
      vertex -0.809016 -20.5878 -2
    endloop
  endfacet
  facet normal 0 1 -0
    outer loop
      vertex 0.309016 -20.9511 -2
      vertex -0.309016 -20.9511 2
      vertex 0.309016 -20.9511 2
    endloop
  endfacet
  facet normal 0 1 0
    outer loop
      vertex -0.309016 -20.9511 2
      vertex 0.309016 -20.9511 -2
      vertex -0.309016 -20.9511 -2
    endloop
  endfacet
  facet normal -0.587788 0.809015 0
    outer loop
      vertex 0.809016 -20.5878 -2
      vertex 0.309016 -20.9511 2
      vertex 0.809016 -20.5878 2
    endloop
  endfacet
  facet normal -0.587788 0.809015 0
    outer loop
      vertex 0.309016 -20.9511 2
      vertex 0.809016 -20.5878 -2
      vertex 0.309016 -20.9511 -2
    endloop
  endfacet
  facet normal 0.587788 0.809015 -0
    outer loop
      vertex -0.309016 -20.9511 -2
      vertex -0.809016 -20.5878 2
      vertex -0.309016 -20.9511 2
    endloop
  endfacet
  facet normal 0.587788 0.809015 0
    outer loop
      vertex -0.809016 -20.5878 2
      vertex -0.309016 -20.9511 -2
      vertex -0.809016 -20.5878 -2
    endloop
  endfacet
  facet normal -0.970143 0 0.242536
    outer loop
      vertex -2.02254 43.9695 1.10983
      vertex -1.8 45 2
      vertex -2.8 45 -2
    endloop
  endfacet
  facet normal -0.970143 0 0.242536
    outer loop
      vertex -1.8 45 2
      vertex -2.02254 43.9695 1.10983
      vertex -1.8 44.1311 2
    endloop
  endfacet
  facet normal -0.970143 0 0.242536
    outer loop
      vertex -2.8 45 -2
      vertex -2.3 43.1155 0
      vertex -2.02254 43.9695 1.10983
    endloop
  endfacet
  facet normal -0.970143 0 0.242536
    outer loop
      vertex -2.8 45 -2
      vertex -2.3 41.8845 0
      vertex -2.3 43.1155 0
    endloop
  endfacet
  facet normal -0.970143 0 0.242536
    outer loop
      vertex -2.8 40 -2
      vertex -2.3 41.8845 0
      vertex -2.8 45 -2
    endloop
  endfacet
  facet normal -0.970143 0 0.242536
    outer loop
      vertex -2.8 40 -2
      vertex -2.02254 41.0305 1.10983
      vertex -2.3 41.8845 0
    endloop
  endfacet
  facet normal -0.970143 0 0.242536
    outer loop
      vertex -1.8 40 2
      vertex -2.02254 41.0305 1.10983
      vertex -2.8 40 -2
    endloop
  endfacet
  facet normal -0.970143 0 0.242536
    outer loop
      vertex -2.02254 41.0305 1.10983
      vertex -1.8 40 2
      vertex -1.8 40.8689 2
    endloop
  endfacet
  facet normal 0.970143 0 0.242536
    outer loop
      vertex 2.02254 43.9695 1.10983
      vertex 1.8 45 2
      vertex 1.8 44.1311 2
    endloop
  endfacet
  facet normal 0.970143 0 0.242536
    outer loop
      vertex 1.8 45 2
      vertex 2.02254 43.9695 1.10983
      vertex 2.8 45 -2
    endloop
  endfacet
  facet normal 0.970143 0 0.242536
    outer loop
      vertex 2.3 43.1155 0
      vertex 2.8 45 -2
      vertex 2.02254 43.9695 1.10983
    endloop
  endfacet
  facet normal 0.970143 -0 0.242536
    outer loop
      vertex 2.3 41.8845 0
      vertex 2.8 45 -2
      vertex 2.3 43.1155 0
    endloop
  endfacet
  facet normal 0.970143 -0 0.242536
    outer loop
      vertex 1.8 40 2
      vertex 2.02254 41.0305 1.10983
      vertex 1.8 40.8689 2
    endloop
  endfacet
  facet normal 0.970143 0 0.242536
    outer loop
      vertex 2.8 40 -2
      vertex 2.02254 41.0305 1.10983
      vertex 1.8 40 2
    endloop
  endfacet
  facet normal 0.970143 0 0.242536
    outer loop
      vertex 2.3 41.8845 0
      vertex 2.8 40 -2
      vertex 2.8 45 -2
    endloop
  endfacet
  facet normal 0.970143 0 0.242536
    outer loop
      vertex 2.02254 41.0305 1.10983
      vertex 2.8 40 -2
      vertex 2.3 41.8845 0
    endloop
  endfacet
  facet normal 0 1 0
    outer loop
      vertex 2.8 45 -2
      vertex -1.8 45 2
      vertex 1.8 45 2
    endloop
  endfacet
  facet normal 0 1 0
    outer loop
      vertex -1.8 45 2
      vertex 2.8 45 -2
      vertex -2.8 45 -2
    endloop
  endfacet
  facet normal 0 0 1
    outer loop
      vertex 1.8 45 2
      vertex 0.772542 44.8776 2
      vertex 1.8 44.1311 2
    endloop
  endfacet
  facet normal 0 0 1
    outer loop
      vertex 1.8 45 2
      vertex -0.772542 44.8776 2
      vertex 0.772542 44.8776 2
    endloop
  endfacet
  facet normal -0 0 1
    outer loop
      vertex -1.8 45 2
      vertex -0.772542 44.8776 2
      vertex 1.8 45 2
    endloop
  endfacet
  facet normal 0 0 1
    outer loop
      vertex -0.772542 44.8776 2
      vertex -1.8 45 2
      vertex -1.8 44.1311 2
    endloop
  endfacet
  facet normal -0.951056 -0.309019 0
    outer loop
      vertex 1 42.5 -2
      vertex 0.809016 43.0878 0
      vertex 0.809016 43.0878 -2
    endloop
  endfacet
  facet normal -0.951056 -0.309019 0
    outer loop
      vertex 0.809016 43.0878 0
      vertex 1 42.5 -2
      vertex 1 42.5 0
    endloop
  endfacet
  facet normal 0.951056 -0.309019 0
    outer loop
      vertex -1 42.5 0
      vertex -0.809016 43.0878 -2
      vertex -0.809016 43.0878 0
    endloop
  endfacet
  facet normal 0.951056 -0.309019 0
    outer loop
      vertex -0.809016 43.0878 -2
      vertex -1 42.5 0
      vertex -1 42.5 -2
    endloop
  endfacet
  facet normal 0 1 -0
    outer loop
      vertex 0.309016 41.5489 -2
      vertex -0.309016 41.5489 0
      vertex 0.309016 41.5489 0
    endloop
  endfacet
  facet normal 0 1 0
    outer loop
      vertex -0.309016 41.5489 0
      vertex 0.309016 41.5489 -2
      vertex -0.309016 41.5489 -2
    endloop
  endfacet
  facet normal 0 -1 0
    outer loop
      vertex -0.309016 43.4511 -2
      vertex 0.309016 43.4511 0
      vertex -0.309016 43.4511 0
    endloop
  endfacet
  facet normal 0 -1 -0
    outer loop
      vertex 0.309016 43.4511 0
      vertex -0.309016 43.4511 -2
      vertex 0.309016 43.4511 -2
    endloop
  endfacet
  facet normal -0.587788 -0.809015 0
    outer loop
      vertex 0.309016 43.4511 -2
      vertex 0.809016 43.0878 0
      vertex 0.309016 43.4511 0
    endloop
  endfacet
  facet normal -0.587788 -0.809015 -0
    outer loop
      vertex 0.809016 43.0878 0
      vertex 0.309016 43.4511 -2
      vertex 0.809016 43.0878 -2
    endloop
  endfacet
  facet normal 0.587788 -0.809015 0
    outer loop
      vertex -0.809016 43.0878 -2
      vertex -0.309016 43.4511 0
      vertex -0.809016 43.0878 0
    endloop
  endfacet
  facet normal 0.587788 -0.809015 0
    outer loop
      vertex -0.309016 43.4511 0
      vertex -0.809016 43.0878 -2
      vertex -0.309016 43.4511 -2
    endloop
  endfacet
  facet normal 0.951056 0.309019 0
    outer loop
      vertex -0.809016 41.9122 0
      vertex -1 42.5 -2
      vertex -1 42.5 0
    endloop
  endfacet
  facet normal 0.951056 0.309019 0
    outer loop
      vertex -1 42.5 -2
      vertex -0.809016 41.9122 0
      vertex -0.809016 41.9122 -2
    endloop
  endfacet
  facet normal -0.587788 0.809015 0
    outer loop
      vertex 0.809016 41.9122 -2
      vertex 0.309016 41.5489 0
      vertex 0.809016 41.9122 0
    endloop
  endfacet
  facet normal -0.587788 0.809015 0
    outer loop
      vertex 0.309016 41.5489 0
      vertex 0.809016 41.9122 -2
      vertex 0.309016 41.5489 -2
    endloop
  endfacet
  facet normal 0.587788 0.809015 -0
    outer loop
      vertex -0.309016 41.5489 -2
      vertex -0.809016 41.9122 0
      vertex -0.309016 41.5489 0
    endloop
  endfacet
  facet normal 0.587788 0.809015 0
    outer loop
      vertex -0.809016 41.9122 0
      vertex -0.309016 41.5489 -2
      vertex -0.809016 41.9122 -2
    endloop
  endfacet
  facet normal -0.951056 0.309019 0
    outer loop
      vertex 0.809016 41.9122 -2
      vertex 1 42.5 0
      vertex 1 42.5 -2
    endloop
  endfacet
  facet normal -0.951056 0.309019 0
    outer loop
      vertex 1 42.5 0
      vertex 0.809016 41.9122 -2
      vertex 0.809016 41.9122 0
    endloop
  endfacet
  facet normal -0.951056 -0.309018 0
    outer loop
      vertex 2.3 43.1155 0
      vertex 2.02254 43.9695 1.10983
      vertex 2.02254 43.9695 0
    endloop
  endfacet
  facet normal 0.951056 -0.309018 0
    outer loop
      vertex -2.02254 43.9695 0
      vertex -2.02254 43.9695 1.10983
      vertex -2.3 43.1155 0
    endloop
  endfacet
  facet normal 0 1 -0
    outer loop
      vertex 0.772542 40.1224 0
      vertex -0.772542 40.1224 2
      vertex 0.772542 40.1224 2
    endloop
  endfacet
  facet normal 0 1 0
    outer loop
      vertex -0.772542 40.1224 2
      vertex 0.772542 40.1224 0
      vertex -0.772542 40.1224 0
    endloop
  endfacet
  facet normal 0 -1 0
    outer loop
      vertex -0.772542 44.8776 0
      vertex 0.772542 44.8776 2
      vertex -0.772542 44.8776 2
    endloop
  endfacet
  facet normal 0 -1 -0
    outer loop
      vertex 0.772542 44.8776 2
      vertex -0.772542 44.8776 0
      vertex 0.772542 44.8776 0
    endloop
  endfacet
  facet normal -0.587785 -0.809017 -5.84282e-07
    outer loop
      vertex 0.772542 44.8776 2
      vertex 2.02254 43.9695 1.10983
      vertex 1.8 44.1311 2
    endloop
  endfacet
  facet normal -0.587785 -0.809018 0
    outer loop
      vertex 0.772542 44.8776 0
      vertex 2.02254 43.9695 1.10983
      vertex 0.772542 44.8776 2
    endloop
  endfacet
  facet normal -0.587785 -0.809018 -0
    outer loop
      vertex 2.02254 43.9695 1.10983
      vertex 0.772542 44.8776 0
      vertex 2.02254 43.9695 0
    endloop
  endfacet
  facet normal 0.587785 -0.809017 -5.84282e-07
    outer loop
      vertex -2.02254 43.9695 1.10983
      vertex -0.772542 44.8776 2
      vertex -1.8 44.1311 2
    endloop
  endfacet
  facet normal 0.587785 -0.809018 0
    outer loop
      vertex -0.772542 44.8776 0
      vertex -2.02254 43.9695 1.10983
      vertex -2.02254 43.9695 0
    endloop
  endfacet
  facet normal 0.587785 -0.809018 0
    outer loop
      vertex -2.02254 43.9695 1.10983
      vertex -0.772542 44.8776 0
      vertex -0.772542 44.8776 2
    endloop
  endfacet
  facet normal -0.951056 0.309018 0
    outer loop
      vertex 2.02254 41.0305 1.10983
      vertex 2.3 41.8845 0
      vertex 2.02254 41.0305 0
    endloop
  endfacet
  facet normal 0 0 1
    outer loop
      vertex 0.809016 43.0878 0
      vertex 2.3 43.1155 0
      vertex 2.02254 43.9695 0
    endloop
  endfacet
  facet normal 0 0 1
    outer loop
      vertex 2.3 43.1155 0
      vertex 1 42.5 0
      vertex 2.3 41.8845 0
    endloop
  endfacet
  facet normal -0 0 1
    outer loop
      vertex 0.809016 41.9122 0
      vertex 2.3 41.8845 0
      vertex 1 42.5 0
    endloop
  endfacet
  facet normal 0 0 1
    outer loop
      vertex 2.3 43.1155 0
      vertex 0.809016 43.0878 0
      vertex 1 42.5 0
    endloop
  endfacet
  facet normal 0 0 1
    outer loop
      vertex 0.772542 44.8776 0
      vertex 0.809016 43.0878 0
      vertex 2.02254 43.9695 0
    endloop
  endfacet
  facet normal 0 0 1
    outer loop
      vertex 0.772542 44.8776 0
      vertex 0.309016 43.4511 0
      vertex 0.809016 43.0878 0
    endloop
  endfacet
  facet normal 0 0 1
    outer loop
      vertex 0.772542 44.8776 0
      vertex -0.309016 43.4511 0
      vertex 0.309016 43.4511 0
    endloop
  endfacet
  facet normal -0 0 1
    outer loop
      vertex -0.772542 44.8776 0
      vertex -0.309016 43.4511 0
      vertex 0.772542 44.8776 0
    endloop
  endfacet
  facet normal 0 0 1
    outer loop
      vertex -0.772542 44.8776 0
      vertex -0.809016 43.0878 0
      vertex -0.309016 43.4511 0
    endloop
  endfacet
  facet normal -0 0 1
    outer loop
      vertex -2.02254 43.9695 0
      vertex -0.809016 43.0878 0
      vertex -0.772542 44.8776 0
    endloop
  endfacet
  facet normal -0 0 1
    outer loop
      vertex -2.3 43.1155 0
      vertex -0.809016 43.0878 0
      vertex -2.02254 43.9695 0
    endloop
  endfacet
  facet normal 0 0 1
    outer loop
      vertex 2.3 41.8845 0
      vertex 0.809016 41.9122 0
      vertex 2.02254 41.0305 0
    endloop
  endfacet
  facet normal 0 0 1
    outer loop
      vertex 0.809016 41.9122 0
      vertex 0.772542 40.1224 0
      vertex 2.02254 41.0305 0
    endloop
  endfacet
  facet normal -0 0 1
    outer loop
      vertex 0.309016 41.5489 0
      vertex 0.772542 40.1224 0
      vertex 0.809016 41.9122 0
    endloop
  endfacet
  facet normal -0 0 1
    outer loop
      vertex -0.309016 41.5489 0
      vertex 0.772542 40.1224 0
      vertex 0.309016 41.5489 0
    endloop
  endfacet
  facet normal 0 0 1
    outer loop
      vertex -0.309016 41.5489 0
      vertex -0.772542 40.1224 0
      vertex 0.772542 40.1224 0
    endloop
  endfacet
  facet normal 0 0 1
    outer loop
      vertex -0.809016 41.9122 0
      vertex -0.772542 40.1224 0
      vertex -0.309016 41.5489 0
    endloop
  endfacet
  facet normal 0 0 1
    outer loop
      vertex -2.3 41.8845 0
      vertex -0.809016 41.9122 0
      vertex -1 42.5 0
    endloop
  endfacet
  facet normal 0 0 1
    outer loop
      vertex -0.809016 43.0878 0
      vertex -2.3 43.1155 0
      vertex -1 42.5 0
    endloop
  endfacet
  facet normal 0 0 1
    outer loop
      vertex -2.3 41.8845 0
      vertex -1 42.5 0
      vertex -2.3 43.1155 0
    endloop
  endfacet
  facet normal 0 0 1
    outer loop
      vertex -0.809016 41.9122 0
      vertex -2.3 41.8845 0
      vertex -2.02254 41.0305 0
    endloop
  endfacet
  facet normal 0 0 1
    outer loop
      vertex -0.809016 41.9122 0
      vertex -2.02254 41.0305 0
      vertex -0.772542 40.1224 0
    endloop
  endfacet
  facet normal -0.587785 0.809017 -5.84282e-07
    outer loop
      vertex 2.02254 41.0305 1.10983
      vertex 0.772542 40.1224 2
      vertex 1.8 40.8689 2
    endloop
  endfacet
  facet normal -0.587785 0.809018 0
    outer loop
      vertex 0.772542 40.1224 0
      vertex 2.02254 41.0305 1.10983
      vertex 2.02254 41.0305 0
    endloop
  endfacet
  facet normal -0.587785 0.809018 0
    outer loop
      vertex 2.02254 41.0305 1.10983
      vertex 0.772542 40.1224 0
      vertex 0.772542 40.1224 2
    endloop
  endfacet
  facet normal 0.587785 0.809017 -5.84282e-07
    outer loop
      vertex -0.772542 40.1224 2
      vertex -2.02254 41.0305 1.10983
      vertex -1.8 40.8689 2
    endloop
  endfacet
  facet normal 0.587785 0.809018 -0
    outer loop
      vertex -0.772542 40.1224 0
      vertex -2.02254 41.0305 1.10983
      vertex -0.772542 40.1224 2
    endloop
  endfacet
  facet normal 0.587785 0.809018 0
    outer loop
      vertex -2.02254 41.0305 1.10983
      vertex -0.772542 40.1224 0
      vertex -2.02254 41.0305 0
    endloop
  endfacet
  facet normal 0.951056 0.309018 0
    outer loop
      vertex -2.02254 41.0305 1.10983
      vertex -2.02254 41.0305 0
      vertex -2.3 41.8845 0
    endloop
  endfacet
  facet normal 0.970143 0 0.242536
    outer loop
      vertex 2.02254 -41.0305 1.10983
      vertex 1.8 -40 2
      vertex 1.8 -40.8689 2
    endloop
  endfacet
  facet normal 0.970143 0 0.242536
    outer loop
      vertex 1.8 -40 2
      vertex 2.02254 -41.0305 1.10983
      vertex 2.8 -40 -2
    endloop
  endfacet
  facet normal 0.970143 0 0.242536
    outer loop
      vertex 2.3 -41.8845 0
      vertex 2.8 -40 -2
      vertex 2.02254 -41.0305 1.10983
    endloop
  endfacet
  facet normal 0.970143 -0 0.242536
    outer loop
      vertex 2.3 -43.1155 0
      vertex 2.8 -40 -2
      vertex 2.3 -41.8845 0
    endloop
  endfacet
  facet normal 0.970143 -0 0.242536
    outer loop
      vertex 1.8 -45 2
      vertex 2.02254 -43.9695 1.10983
      vertex 1.8 -44.1311 2
    endloop
  endfacet
  facet normal 0.970143 0 0.242536
    outer loop
      vertex 2.8 -45 -2
      vertex 2.02254 -43.9695 1.10983
      vertex 1.8 -45 2
    endloop
  endfacet
  facet normal 0.970143 0 0.242536
    outer loop
      vertex 2.3 -43.1155 0
      vertex 2.8 -45 -2
      vertex 2.8 -40 -2
    endloop
  endfacet
  facet normal 0.970143 0 0.242536
    outer loop
      vertex 2.02254 -43.9695 1.10983
      vertex 2.8 -45 -2
      vertex 2.3 -43.1155 0
    endloop
  endfacet
  facet normal -0.970143 0 0.242536
    outer loop
      vertex -2.02254 -41.0305 1.10983
      vertex -1.8 -40 2
      vertex -2.8 -40 -2
    endloop
  endfacet
  facet normal -0.970143 0 0.242536
    outer loop
      vertex -1.8 -40 2
      vertex -2.02254 -41.0305 1.10983
      vertex -1.8 -40.8689 2
    endloop
  endfacet
  facet normal -0.970143 0 0.242536
    outer loop
      vertex -2.8 -40 -2
      vertex -2.3 -41.8845 0
      vertex -2.02254 -41.0305 1.10983
    endloop
  endfacet
  facet normal -0.970143 0 0.242536
    outer loop
      vertex -2.8 -40 -2
      vertex -2.3 -43.1155 0
      vertex -2.3 -41.8845 0
    endloop
  endfacet
  facet normal -0.970143 0 0.242536
    outer loop
      vertex -2.8 -45 -2
      vertex -2.3 -43.1155 0
      vertex -2.8 -40 -2
    endloop
  endfacet
  facet normal -0.970143 0 0.242536
    outer loop
      vertex -2.8 -45 -2
      vertex -2.02254 -43.9695 1.10983
      vertex -2.3 -43.1155 0
    endloop
  endfacet
  facet normal -0.970143 0 0.242536
    outer loop
      vertex -1.8 -45 2
      vertex -2.02254 -43.9695 1.10983
      vertex -2.8 -45 -2
    endloop
  endfacet
  facet normal -0.970143 0 0.242536
    outer loop
      vertex -2.02254 -43.9695 1.10983
      vertex -1.8 -45 2
      vertex -1.8 -44.1311 2
    endloop
  endfacet
  facet normal 0 -1 0
    outer loop
      vertex -2.8 -45 -2
      vertex 1.8 -45 2
      vertex -1.8 -45 2
    endloop
  endfacet
  facet normal 0 -1 -0
    outer loop
      vertex 1.8 -45 2
      vertex -2.8 -45 -2
      vertex 2.8 -45 -2
    endloop
  endfacet
  facet normal 0 1 0
    outer loop
      vertex -4.89859e-15 -40 -2
      vertex 1.8 -40 2
      vertex 2.8 -40 -2
    endloop
  endfacet
  facet normal 0 1 0
    outer loop
      vertex 1.8 -40 2
      vertex -4.89859e-15 -40 -2
      vertex -4.89859e-15 -40 2
    endloop
  endfacet
  facet normal -0 0 1
    outer loop
      vertex 0.772542 -44.8776 2
      vertex 1.8 -45 2
      vertex 1.8 -44.1311 2
    endloop
  endfacet
  facet normal -0 0 1
    outer loop
      vertex -0.772542 -44.8776 2
      vertex 1.8 -45 2
      vertex 0.772542 -44.8776 2
    endloop
  endfacet
  facet normal 0 0 1
    outer loop
      vertex -0.772542 -44.8776 2
      vertex -1.8 -45 2
      vertex 1.8 -45 2
    endloop
  endfacet
  facet normal 0 0 1
    outer loop
      vertex -1.8 -45 2
      vertex -0.772542 -44.8776 2
      vertex -1.8 -44.1311 2
    endloop
  endfacet
  facet normal 0.951056 0.309019 0
    outer loop
      vertex -0.809016 -43.0878 0
      vertex -1 -42.5 -2
      vertex -1 -42.5 0
    endloop
  endfacet
  facet normal 0.951056 0.309019 0
    outer loop
      vertex -1 -42.5 -2
      vertex -0.809016 -43.0878 0
      vertex -0.809016 -43.0878 -2
    endloop
  endfacet
  facet normal -0.951056 0.309019 0
    outer loop
      vertex 0.809016 -43.0878 -2
      vertex 1 -42.5 0
      vertex 1 -42.5 -2
    endloop
  endfacet
  facet normal -0.951056 0.309019 0
    outer loop
      vertex 1 -42.5 0
      vertex 0.809016 -43.0878 -2
      vertex 0.809016 -43.0878 0
    endloop
  endfacet
  facet normal 0 -1 0
    outer loop
      vertex -0.309016 -41.5489 -2
      vertex 0.309016 -41.5489 0
      vertex -0.309016 -41.5489 0
    endloop
  endfacet
  facet normal 0 -1 -0
    outer loop
      vertex 0.309016 -41.5489 0
      vertex -0.309016 -41.5489 -2
      vertex 0.309016 -41.5489 -2
    endloop
  endfacet
  facet normal 0 1 -0
    outer loop
      vertex 0.309016 -43.4511 -2
      vertex -0.309016 -43.4511 0
      vertex 0.309016 -43.4511 0
    endloop
  endfacet
  facet normal 0 1 0
    outer loop
      vertex -0.309016 -43.4511 0
      vertex 0.309016 -43.4511 -2
      vertex -0.309016 -43.4511 -2
    endloop
  endfacet
  facet normal 0.587788 0.809015 -0
    outer loop
      vertex -0.309016 -43.4511 -2
      vertex -0.809016 -43.0878 0
      vertex -0.309016 -43.4511 0
    endloop
  endfacet
  facet normal 0.587788 0.809015 0
    outer loop
      vertex -0.809016 -43.0878 0
      vertex -0.309016 -43.4511 -2
      vertex -0.809016 -43.0878 -2
    endloop
  endfacet
  facet normal -0.587788 0.809015 0
    outer loop
      vertex 0.809016 -43.0878 -2
      vertex 0.309016 -43.4511 0
      vertex 0.809016 -43.0878 0
    endloop
  endfacet
  facet normal -0.587788 0.809015 0
    outer loop
      vertex 0.309016 -43.4511 0
      vertex 0.809016 -43.0878 -2
      vertex 0.309016 -43.4511 -2
    endloop
  endfacet
  facet normal -0.951056 -0.309019 0
    outer loop
      vertex 1 -42.5 -2
      vertex 0.809016 -41.9122 0
      vertex 0.809016 -41.9122 -2
    endloop
  endfacet
  facet normal -0.951056 -0.309019 0
    outer loop
      vertex 0.809016 -41.9122 0
      vertex 1 -42.5 -2
      vertex 1 -42.5 0
    endloop
  endfacet
  facet normal 0.587788 -0.809015 0
    outer loop
      vertex -0.809016 -41.9122 -2
      vertex -0.309016 -41.5489 0
      vertex -0.809016 -41.9122 0
    endloop
  endfacet
  facet normal 0.587788 -0.809015 0
    outer loop
      vertex -0.309016 -41.5489 0
      vertex -0.809016 -41.9122 -2
      vertex -0.309016 -41.5489 -2
    endloop
  endfacet
  facet normal -0.587788 -0.809015 0
    outer loop
      vertex 0.309016 -41.5489 -2
      vertex 0.809016 -41.9122 0
      vertex 0.309016 -41.5489 0
    endloop
  endfacet
  facet normal -0.587788 -0.809015 -0
    outer loop
      vertex 0.809016 -41.9122 0
      vertex 0.309016 -41.5489 -2
      vertex 0.809016 -41.9122 -2
    endloop
  endfacet
  facet normal 0.951056 -0.309019 0
    outer loop
      vertex -1 -42.5 0
      vertex -0.809016 -41.9122 -2
      vertex -0.809016 -41.9122 0
    endloop
  endfacet
  facet normal 0.951056 -0.309019 0
    outer loop
      vertex -0.809016 -41.9122 -2
      vertex -1 -42.5 0
      vertex -1 -42.5 -2
    endloop
  endfacet
  facet normal 0.951056 0.309018 0
    outer loop
      vertex -2.02254 -43.9695 1.10983
      vertex -2.02254 -43.9695 0
      vertex -2.3 -43.1155 0
    endloop
  endfacet
  facet normal -0.951056 0.309018 0
    outer loop
      vertex 2.02254 -43.9695 1.10983
      vertex 2.3 -43.1155 0
      vertex 2.02254 -43.9695 0
    endloop
  endfacet
  facet normal 0 -1 0
    outer loop
      vertex -0.772542 -40.1224 0
      vertex 0.772542 -40.1224 2
      vertex -0.772542 -40.1224 2
    endloop
  endfacet
  facet normal 0 -1 -0
    outer loop
      vertex 0.772542 -40.1224 2
      vertex -0.772542 -40.1224 0
      vertex 0.772542 -40.1224 0
    endloop
  endfacet
  facet normal 0 1 -0
    outer loop
      vertex 0.772542 -44.8776 0
      vertex -0.772542 -44.8776 2
      vertex 0.772542 -44.8776 2
    endloop
  endfacet
  facet normal 0 1 0
    outer loop
      vertex -0.772542 -44.8776 2
      vertex 0.772542 -44.8776 0
      vertex -0.772542 -44.8776 0
    endloop
  endfacet
  facet normal 0.587785 0.809017 -5.84282e-07
    outer loop
      vertex -0.772542 -44.8776 2
      vertex -2.02254 -43.9695 1.10983
      vertex -1.8 -44.1311 2
    endloop
  endfacet
  facet normal 0.587785 0.809018 -0
    outer loop
      vertex -0.772542 -44.8776 0
      vertex -2.02254 -43.9695 1.10983
      vertex -0.772542 -44.8776 2
    endloop
  endfacet
  facet normal 0.587785 0.809018 0
    outer loop
      vertex -2.02254 -43.9695 1.10983
      vertex -0.772542 -44.8776 0
      vertex -2.02254 -43.9695 0
    endloop
  endfacet
  facet normal -0.587785 0.809017 -5.84282e-07
    outer loop
      vertex 2.02254 -43.9695 1.10983
      vertex 0.772542 -44.8776 2
      vertex 1.8 -44.1311 2
    endloop
  endfacet
  facet normal -0.587785 0.809018 0
    outer loop
      vertex 0.772542 -44.8776 0
      vertex 2.02254 -43.9695 1.10983
      vertex 2.02254 -43.9695 0
    endloop
  endfacet
  facet normal -0.587785 0.809018 0
    outer loop
      vertex 2.02254 -43.9695 1.10983
      vertex 0.772542 -44.8776 0
      vertex 0.772542 -44.8776 2
    endloop
  endfacet
  facet normal 0.951056 -0.309018 0
    outer loop
      vertex -2.02254 -41.0305 0
      vertex -2.02254 -41.0305 1.10983
      vertex -2.3 -41.8845 0
    endloop
  endfacet
  facet normal 0 0 1
    outer loop
      vertex 0.809016 -41.9122 0
      vertex 2.3 -41.8845 0
      vertex 2.02254 -41.0305 0
    endloop
  endfacet
  facet normal 0 0 1
    outer loop
      vertex 2.3 -41.8845 0
      vertex 1 -42.5 0
      vertex 2.3 -43.1155 0
    endloop
  endfacet
  facet normal -0 0 1
    outer loop
      vertex 0.809016 -43.0878 0
      vertex 2.3 -43.1155 0
      vertex 1 -42.5 0
    endloop
  endfacet
  facet normal 0 0 1
    outer loop
      vertex 2.3 -41.8845 0
      vertex 0.809016 -41.9122 0
      vertex 1 -42.5 0
    endloop
  endfacet
  facet normal 0 0 1
    outer loop
      vertex 0.772542 -40.1224 0
      vertex 0.809016 -41.9122 0
      vertex 2.02254 -41.0305 0
    endloop
  endfacet
  facet normal 0 0 1
    outer loop
      vertex 0.772542 -40.1224 0
      vertex 0.309016 -41.5489 0
      vertex 0.809016 -41.9122 0
    endloop
  endfacet
  facet normal 0 0 1
    outer loop
      vertex 0.772542 -40.1224 0
      vertex -0.309016 -41.5489 0
      vertex 0.309016 -41.5489 0
    endloop
  endfacet
  facet normal -0 0 1
    outer loop
      vertex -0.772542 -40.1224 0
      vertex -0.309016 -41.5489 0
      vertex 0.772542 -40.1224 0
    endloop
  endfacet
  facet normal 0 0 1
    outer loop
      vertex -0.772542 -40.1224 0
      vertex -0.809016 -41.9122 0
      vertex -0.309016 -41.5489 0
    endloop
  endfacet
  facet normal -0 0 1
    outer loop
      vertex -2.02254 -41.0305 0
      vertex -0.809016 -41.9122 0
      vertex -0.772542 -40.1224 0
    endloop
  endfacet
  facet normal -0 0 1
    outer loop
      vertex -2.3 -41.8845 0
      vertex -0.809016 -41.9122 0
      vertex -2.02254 -41.0305 0
    endloop
  endfacet
  facet normal 0 0 1
    outer loop
      vertex 2.3 -43.1155 0
      vertex 0.809016 -43.0878 0
      vertex 2.02254 -43.9695 0
    endloop
  endfacet
  facet normal 0 0 1
    outer loop
      vertex 0.809016 -43.0878 0
      vertex 0.772542 -44.8776 0
      vertex 2.02254 -43.9695 0
    endloop
  endfacet
  facet normal -0 0 1
    outer loop
      vertex 0.309016 -43.4511 0
      vertex 0.772542 -44.8776 0
      vertex 0.809016 -43.0878 0
    endloop
  endfacet
  facet normal -0 0 1
    outer loop
      vertex -0.309016 -43.4511 0
      vertex 0.772542 -44.8776 0
      vertex 0.309016 -43.4511 0
    endloop
  endfacet
  facet normal 0 0 1
    outer loop
      vertex -0.309016 -43.4511 0
      vertex -0.772542 -44.8776 0
      vertex 0.772542 -44.8776 0
    endloop
  endfacet
  facet normal 0 0 1
    outer loop
      vertex -0.809016 -43.0878 0
      vertex -0.772542 -44.8776 0
      vertex -0.309016 -43.4511 0
    endloop
  endfacet
  facet normal 0 0 1
    outer loop
      vertex -2.3 -43.1155 0
      vertex -0.809016 -43.0878 0
      vertex -1 -42.5 0
    endloop
  endfacet
  facet normal 0 0 1
    outer loop
      vertex -0.809016 -41.9122 0
      vertex -2.3 -41.8845 0
      vertex -1 -42.5 0
    endloop
  endfacet
  facet normal 0 0 1
    outer loop
      vertex -2.3 -43.1155 0
      vertex -1 -42.5 0
      vertex -2.3 -41.8845 0
    endloop
  endfacet
  facet normal 0 0 1
    outer loop
      vertex -0.809016 -43.0878 0
      vertex -2.3 -43.1155 0
      vertex -2.02254 -43.9695 0
    endloop
  endfacet
  facet normal 0 0 1
    outer loop
      vertex -0.809016 -43.0878 0
      vertex -2.02254 -43.9695 0
      vertex -0.772542 -44.8776 0
    endloop
  endfacet
  facet normal 0.587785 -0.809017 -5.84282e-07
    outer loop
      vertex -2.02254 -41.0305 1.10983
      vertex -0.772542 -40.1224 2
      vertex -1.8 -40.8689 2
    endloop
  endfacet
  facet normal 0.587785 -0.809018 0
    outer loop
      vertex -0.772542 -40.1224 0
      vertex -2.02254 -41.0305 1.10983
      vertex -2.02254 -41.0305 0
    endloop
  endfacet
  facet normal 0.587785 -0.809018 0
    outer loop
      vertex -2.02254 -41.0305 1.10983
      vertex -0.772542 -40.1224 0
      vertex -0.772542 -40.1224 2
    endloop
  endfacet
  facet normal -0.587785 -0.809017 -5.84282e-07
    outer loop
      vertex 0.772542 -40.1224 2
      vertex 2.02254 -41.0305 1.10983
      vertex 1.8 -40.8689 2
    endloop
  endfacet
  facet normal -0.587785 -0.809018 0
    outer loop
      vertex 0.772542 -40.1224 0
      vertex 2.02254 -41.0305 1.10983
      vertex 0.772542 -40.1224 2
    endloop
  endfacet
  facet normal -0.587785 -0.809018 -0
    outer loop
      vertex 2.02254 -41.0305 1.10983
      vertex 0.772542 -40.1224 0
      vertex 2.02254 -41.0305 0
    endloop
  endfacet
  facet normal -0.951056 -0.309018 0
    outer loop
      vertex 2.3 -41.8845 0
      vertex 2.02254 -41.0305 1.10983
      vertex 2.02254 -41.0305 0
    endloop
  endfacet
endsolid OpenSCAD_Model
