  0
SECTION
  2
BLOCKS
  0
ENDSEC
  0
SECTION
  2
ENTITIES
  0
LINE
  8
0
 10
0
 20
-11.9342
 11
1.25433
 21
-11.9342
  0
LINE
  8
0
 10
1.25433
 20
-11.9342
 11
3.70819
 21
-11.4127
  0
LINE
  8
0
 10
3.70819
 20
-11.4127
 11
6
 21
-10.3923
  0
LINE
  8
0
 10
6
 20
-10.3923
 11
8.02956
 21
-8.91772
  0
LINE
  8
0
 10
8.02956
 20
-8.91772
 11
9.70819
 21
-7.05342
  0
LINE
  8
0
 10
9.70819
 20
-7.05342
 11
10.9625
 21
-4.88083
  0
LINE
  8
0
 10
10.9625
 20
-4.88083
 11
11.7378
 21
-2.49493
  0
LINE
  8
0
 10
11.7378
 20
-2.49493
 11
12
 21
0
  0
LINE
  8
0
 10
12
 20
0
 11
11.7378
 21
2.49493
  0
LINE
  8
0
 10
11.7378
 20
2.49493
 11
10.9625
 21
4.88083
  0
LINE
  8
0
 10
10.9625
 20
4.88083
 11
9.70819
 21
7.05342
  0
LINE
  8
0
 10
9.70819
 20
7.05342
 11
8.02956
 21
8.91772
  0
LINE
  8
0
 10
8.02956
 20
8.91772
 11
6
 21
10.3923
  0
LINE
  8
0
 10
6
 20
10.3923
 11
3.70819
 21
11.4127
  0
LINE
  8
0
 10
3.70819
 20
11.4127
 11
1.25433
 21
11.9342
  0
LINE
  8
0
 10
1.25433
 20
11.9342
 11
0
 21
11.9342
  0
LINE
  8
0
 10
0
 20
11.9342
 11
0
 21
12
  0
LINE
  8
0
 10
0
 20
12
 11
-93
 21
12
  0
LINE
  8
0
 10
-93
 20
12
 11
-93
 21
11.9342
  0
LINE
  8
0
 10
-93
 20
11.9342
 11
-94.2543
 21
11.9342
  0
LINE
  8
0
 10
-94.2543
 20
11.9342
 11
-96.7082
 21
11.4127
  0
LINE
  8
0
 10
-96.7082
 20
11.4127
 11
-99
 21
10.3923
  0
LINE
  8
0
 10
-99
 20
10.3923
 11
-101.03
 21
8.91772
  0
LINE
  8
0
 10
-101.03
 20
8.91772
 11
-102.708
 21
7.05342
  0
LINE
  8
0
 10
-102.708
 20
7.05342
 11
-103.963
 21
4.88083
  0
LINE
  8
0
 10
-103.963
 20
4.88083
 11
-104.738
 21
2.49493
  0
LINE
  8
0
 10
-104.738
 20
2.49493
 11
-105
 21
0
  0
LINE
  8
0
 10
-105
 20
0
 11
-104.738
 21
-2.49493
  0
LINE
  8
0
 10
-104.738
 20
-2.49493
 11
-103.963
 21
-4.88083
  0
LINE
  8
0
 10
-103.963
 20
-4.88083
 11
-102.708
 21
-7.05342
  0
LINE
  8
0
 10
-102.708
 20
-7.05342
 11
-101.03
 21
-8.91772
  0
LINE
  8
0
 10
-101.03
 20
-8.91772
 11
-99
 21
-10.3923
  0
LINE
  8
0
 10
-99
 20
-10.3923
 11
-96.7082
 21
-11.4127
  0
LINE
  8
0
 10
-96.7082
 20
-11.4127
 11
-94.2543
 21
-11.9342
  0
LINE
  8
0
 10
-94.2543
 20
-11.9342
 11
-93
 21
-11.9342
  0
LINE
  8
0
 10
-93
 20
-11.9342
 11
-93
 21
-12
  0
LINE
  8
0
 10
-93
 20
-12
 11
0
 21
-12
  0
LINE
  8
0
 10
0
 20
-12
 11
0
 21
-11.9342
  0
LINE
  8
0
 10
-79.792
 20
-2.64511
 11
-80.8582
 21
-0.986053
  0
LINE
  8
0
 10
-80.8582
 20
-0.986053
 11
-80.8582
 21
0.986053
  0
LINE
  8
0
 10
-80.8582
 20
0.986053
 11
-79.792
 21
2.64511
  0
LINE
  8
0
 10
-79.792
 20
2.64511
 11
-77.9981
 21
3.46437
  0
LINE
  8
0
 10
-77.9981
 20
3.46437
 11
-76.0461
 21
3.1837
  0
LINE
  8
0
 10
-76.0461
 20
3.1837
 11
-74.5556
 21
1.89224
  0
LINE
  8
0
 10
-74.5556
 20
1.89224
 11
-74
 21
0
  0
LINE
  8
0
 10
-74
 20
0
 11
-74.5556
 21
-1.89224
  0
LINE
  8
0
 10
-74.5556
 20
-1.89224
 11
-76.0461
 21
-3.1837
  0
LINE
  8
0
 10
-76.0461
 20
-3.1837
 11
-77.9981
 21
-3.46437
  0
LINE
  8
0
 10
-77.9981
 20
-3.46437
 11
-79.792
 21
-2.64511
  0
LINE
  8
0
 10
-95.292
 20
-2.64511
 11
-96.3582
 21
-0.986053
  0
LINE
  8
0
 10
-96.3582
 20
-0.986053
 11
-96.3582
 21
0.986053
  0
LINE
  8
0
 10
-96.3582
 20
0.986053
 11
-95.292
 21
2.64511
  0
LINE
  8
0
 10
-95.292
 20
2.64511
 11
-93.4981
 21
3.46437
  0
LINE
  8
0
 10
-93.4981
 20
3.46437
 11
-91.5461
 21
3.1837
  0
LINE
  8
0
 10
-91.5461
 20
3.1837
 11
-90.0556
 21
1.89224
  0
LINE
  8
0
 10
-90.0556
 20
1.89224
 11
-89.5
 21
0
  0
LINE
  8
0
 10
-89.5
 20
0
 11
-90.0556
 21
-1.89224
  0
LINE
  8
0
 10
-90.0556
 20
-1.89224
 11
-91.5461
 21
-3.1837
  0
LINE
  8
0
 10
-91.5461
 20
-3.1837
 11
-93.4981
 21
-3.46437
  0
LINE
  8
0
 10
-93.4981
 20
-3.46437
 11
-95.292
 21
-2.64511
  0
LINE
  8
0
 10
-17.792
 20
-2.64511
 11
-18.8582
 21
-0.986053
  0
LINE
  8
0
 10
-18.8582
 20
-0.986053
 11
-18.8582
 21
0.986053
  0
LINE
  8
0
 10
-18.8582
 20
0.986053
 11
-17.792
 21
2.64511
  0
LINE
  8
0
 10
-17.792
 20
2.64511
 11
-15.9981
 21
3.46437
  0
LINE
  8
0
 10
-15.9981
 20
3.46437
 11
-14.046
 21
3.1837
  0
LINE
  8
0
 10
-14.046
 20
3.1837
 11
-12.5556
 21
1.89224
  0
LINE
  8
0
 10
-12.5556
 20
1.89224
 11
-12
 21
0
  0
LINE
  8
0
 10
-12
 20
0
 11
-12.5556
 21
-1.89224
  0
LINE
  8
0
 10
-12.5556
 20
-1.89224
 11
-14.046
 21
-3.1837
  0
LINE
  8
0
 10
-14.046
 20
-3.1837
 11
-15.9981
 21
-3.46437
  0
LINE
  8
0
 10
-15.9981
 20
-3.46437
 11
-17.792
 21
-2.64511
  0
LINE
  8
0
 10
-2.29201
 20
-2.64511
 11
-3.35822
 21
-0.986053
  0
LINE
  8
0
 10
-3.35822
 20
-0.986053
 11
-3.35822
 21
0.986053
  0
LINE
  8
0
 10
-3.35822
 20
0.986053
 11
-2.29201
 21
2.64511
  0
LINE
  8
0
 10
-2.29201
 20
2.64511
 11
-0.498093
 21
3.46437
  0
LINE
  8
0
 10
-0.498093
 20
3.46437
 11
1.45395
 21
3.1837
  0
LINE
  8
0
 10
1.45395
 20
3.1837
 11
2.94438
 21
1.89224
  0
LINE
  8
0
 10
2.94438
 20
1.89224
 11
3.5
 21
0
  0
LINE
  8
0
 10
3.5
 20
0
 11
2.94438
 21
-1.89224
  0
LINE
  8
0
 10
2.94438
 20
-1.89224
 11
1.45395
 21
-3.1837
  0
LINE
  8
0
 10
1.45395
 20
-3.1837
 11
-0.498093
 21
-3.46437
  0
LINE
  8
0
 10
-0.498093
 20
-3.46437
 11
-2.29201
 21
-2.64511
  0
LINE
  8
0
 10
-33.292
 20
-2.64511
 11
-34.3582
 21
-0.986053
  0
LINE
  8
0
 10
-34.3582
 20
-0.986053
 11
-34.3582
 21
0.986053
  0
LINE
  8
0
 10
-34.3582
 20
0.986053
 11
-33.292
 21
2.64511
  0
LINE
  8
0
 10
-33.292
 20
2.64511
 11
-31.4981
 21
3.46437
  0
LINE
  8
0
 10
-31.4981
 20
3.46437
 11
-29.546
 21
3.1837
  0
LINE
  8
0
 10
-29.546
 20
3.1837
 11
-28.0556
 21
1.89224
  0
LINE
  8
0
 10
-28.0556
 20
1.89224
 11
-27.5
 21
0
  0
LINE
  8
0
 10
-27.5
 20
0
 11
-28.0556
 21
-1.89224
  0
LINE
  8
0
 10
-28.0556
 20
-1.89224
 11
-29.546
 21
-3.1837
  0
LINE
  8
0
 10
-29.546
 20
-3.1837
 11
-31.4981
 21
-3.46437
  0
LINE
  8
0
 10
-31.4981
 20
-3.46437
 11
-33.292
 21
-2.64511
  0
LINE
  8
0
 10
-48.792
 20
-2.64511
 11
-49.8582
 21
-0.986053
  0
LINE
  8
0
 10
-49.8582
 20
-0.986053
 11
-49.8582
 21
0.986053
  0
LINE
  8
0
 10
-49.8582
 20
0.986053
 11
-48.792
 21
2.64511
  0
LINE
  8
0
 10
-48.792
 20
2.64511
 11
-46.9981
 21
3.46437
  0
LINE
  8
0
 10
-46.9981
 20
3.46437
 11
-45.046
 21
3.1837
  0
LINE
  8
0
 10
-45.046
 20
3.1837
 11
-43.5556
 21
1.89224
  0
LINE
  8
0
 10
-43.5556
 20
1.89224
 11
-43
 21
0
  0
LINE
  8
0
 10
-43
 20
0
 11
-43.5556
 21
-1.89224
  0
LINE
  8
0
 10
-43.5556
 20
-1.89224
 11
-45.046
 21
-3.1837
  0
LINE
  8
0
 10
-45.046
 20
-3.1837
 11
-46.9981
 21
-3.46437
  0
LINE
  8
0
 10
-46.9981
 20
-3.46437
 11
-48.792
 21
-2.64511
  0
LINE
  8
0
 10
-64.292
 20
-2.64511
 11
-65.3582
 21
-0.986053
  0
LINE
  8
0
 10
-65.3582
 20
-0.986053
 11
-65.3582
 21
0.986053
  0
LINE
  8
0
 10
-65.3582
 20
0.986053
 11
-64.292
 21
2.64511
  0
LINE
  8
0
 10
-64.292
 20
2.64511
 11
-62.4981
 21
3.46437
  0
LINE
  8
0
 10
-62.4981
 20
3.46437
 11
-60.546
 21
3.1837
  0
LINE
  8
0
 10
-60.546
 20
3.1837
 11
-59.0556
 21
1.89224
  0
LINE
  8
0
 10
-59.0556
 20
1.89224
 11
-58.5
 21
0
  0
LINE
  8
0
 10
-58.5
 20
0
 11
-59.0556
 21
-1.89224
  0
LINE
  8
0
 10
-59.0556
 20
-1.89224
 11
-60.546
 21
-3.1837
  0
LINE
  8
0
 10
-60.546
 20
-3.1837
 11
-62.4981
 21
-3.46437
  0
LINE
  8
0
 10
-62.4981
 20
-3.46437
 11
-64.292
 21
-2.64511
  0
ENDSEC
  0
SECTION
  2
OBJECTS
  0
DICTIONARY
  0
ENDSEC
  0
EOF
