  0
SECTION
  2
BLOCKS
  0
ENDSEC
  0
SECTION
  2
ENTITIES
  0
LINE
  8
0
 10
-8.29179
 20
0.587311
 11
-6
 21
1.60768
  0
LINE
  8
0
 10
-6
 20
1.60768
 11
-3.97043
 21
3.08226
  0
LINE
  8
0
 10
-3.97043
 20
3.08226
 11
-2.29179
 21
4.94656
  0
LINE
  8
0
 10
-2.29179
 20
4.94656
 11
-1.03745
 21
7.11916
  0
LINE
  8
0
 10
-1.03745
 20
7.11916
 11
-0.262222
 21
9.50505
  0
LINE
  8
0
 10
-0.262222
 20
9.50505
 11
0
 21
12
  0
LINE
  8
0
 10
0
 20
12
 11
0
 21
58.5
  0
LINE
  8
0
 10
0
 20
58.5
 11
-0.262222
 21
60.9949
  0
LINE
  8
0
 10
-0.262222
 20
60.9949
 11
-1.03745
 21
63.3808
  0
LINE
  8
0
 10
-1.03745
 20
63.3808
 11
-2.29179
 21
65.5534
  0
LINE
  8
0
 10
-2.29179
 20
65.5534
 11
-3.97043
 21
67.4177
  0
LINE
  8
0
 10
-3.97043
 20
67.4177
 11
-6
 21
68.8923
  0
LINE
  8
0
 10
-6
 20
68.8923
 11
-8.29179
 21
69.9127
  0
LINE
  8
0
 10
-8.29179
 20
69.9127
 11
-10.7457
 21
70.4343
  0
LINE
  8
0
 10
-10.7457
 20
70.4343
 11
-106.254
 21
70.4343
  0
LINE
  8
0
 10
-106.254
 20
70.4343
 11
-108.708
 21
69.9127
  0
LINE
  8
0
 10
-108.708
 20
69.9127
 11
-111
 21
68.8923
  0
LINE
  8
0
 10
-111
 20
68.8923
 11
-113.03
 21
67.4177
  0
LINE
  8
0
 10
-113.03
 20
67.4177
 11
-114.708
 21
65.5534
  0
LINE
  8
0
 10
-114.708
 20
65.5534
 11
-115.963
 21
63.3808
  0
LINE
  8
0
 10
-115.963
 20
63.3808
 11
-116.738
 21
60.9949
  0
LINE
  8
0
 10
-116.738
 20
60.9949
 11
-117
 21
58.5
  0
LINE
  8
0
 10
-117
 20
58.5
 11
-117
 21
12
  0
LINE
  8
0
 10
-117
 20
12
 11
-116.738
 21
9.50505
  0
LINE
  8
0
 10
-116.738
 20
9.50505
 11
-115.963
 21
7.11916
  0
LINE
  8
0
 10
-115.963
 20
7.11916
 11
-114.708
 21
4.94656
  0
LINE
  8
0
 10
-114.708
 20
4.94656
 11
-113.03
 21
3.08226
  0
LINE
  8
0
 10
-113.03
 20
3.08226
 11
-111
 21
1.60768
  0
LINE
  8
0
 10
-111
 20
1.60768
 11
-108.708
 21
0.587311
  0
LINE
  8
0
 10
-108.708
 20
0.587311
 11
-106.254
 21
0.0657349
  0
LINE
  8
0
 10
-106.254
 20
0.0657349
 11
-10.7457
 21
0.0657349
  0
LINE
  8
0
 10
-10.7457
 20
0.0657349
 11
-8.29179
 21
0.587311
  0
LINE
  8
0
 10
-29.792
 20
55.8549
 11
-30.8582
 21
57.5139
  0
LINE
  8
0
 10
-30.8582
 20
57.5139
 11
-30.8582
 21
59.4861
  0
LINE
  8
0
 10
-30.8582
 20
59.4861
 11
-29.792
 21
61.1451
  0
LINE
  8
0
 10
-29.792
 20
61.1451
 11
-27.9981
 21
61.9644
  0
LINE
  8
0
 10
-27.9981
 20
61.9644
 11
-26.046
 21
61.6837
  0
LINE
  8
0
 10
-26.046
 20
61.6837
 11
-24.5556
 21
60.3922
  0
LINE
  8
0
 10
-24.5556
 20
60.3922
 11
-24
 21
58.5
  0
LINE
  8
0
 10
-24
 20
58.5
 11
-24.5556
 21
56.6078
  0
LINE
  8
0
 10
-24.5556
 20
56.6078
 11
-26.046
 21
55.3163
  0
LINE
  8
0
 10
-26.046
 20
55.3163
 11
-27.9981
 21
55.0356
  0
LINE
  8
0
 10
-27.9981
 20
55.0356
 11
-29.792
 21
55.8549
  0
LINE
  8
0
 10
-55.5556
 20
60.3922
 11
-55
 21
58.5
  0
LINE
  8
0
 10
-55
 20
58.5
 11
-55.5556
 21
56.6078
  0
LINE
  8
0
 10
-55.5556
 20
56.6078
 11
-57.046
 21
55.3163
  0
LINE
  8
0
 10
-57.046
 20
55.3163
 11
-58.9981
 21
55.0356
  0
LINE
  8
0
 10
-58.9981
 20
55.0356
 11
-60.792
 21
55.8549
  0
LINE
  8
0
 10
-60.792
 20
55.8549
 11
-61.8582
 21
57.5139
  0
LINE
  8
0
 10
-61.8582
 20
57.5139
 11
-61.8582
 21
59.4861
  0
LINE
  8
0
 10
-61.8582
 20
59.4861
 11
-60.792
 21
61.1451
  0
LINE
  8
0
 10
-60.792
 20
61.1451
 11
-58.9981
 21
61.9644
  0
LINE
  8
0
 10
-58.9981
 20
61.9644
 11
-57.046
 21
61.6837
  0
LINE
  8
0
 10
-57.046
 20
61.6837
 11
-55.5556
 21
60.3922
  0
LINE
  8
0
 10
-76.292
 20
55.8549
 11
-77.3582
 21
57.5139
  0
LINE
  8
0
 10
-77.3582
 20
57.5139
 11
-77.3582
 21
59.4861
  0
LINE
  8
0
 10
-77.3582
 20
59.4861
 11
-76.292
 21
61.1451
  0
LINE
  8
0
 10
-76.292
 20
61.1451
 11
-74.4981
 21
61.9644
  0
LINE
  8
0
 10
-74.4981
 20
61.9644
 11
-72.5461
 21
61.6837
  0
LINE
  8
0
 10
-72.5461
 20
61.6837
 11
-71.0556
 21
60.3922
  0
LINE
  8
0
 10
-71.0556
 20
60.3922
 11
-70.5
 21
58.5
  0
LINE
  8
0
 10
-70.5
 20
58.5
 11
-71.0556
 21
56.6078
  0
LINE
  8
0
 10
-71.0556
 20
56.6078
 11
-72.5461
 21
55.3163
  0
LINE
  8
0
 10
-72.5461
 20
55.3163
 11
-74.4981
 21
55.0356
  0
LINE
  8
0
 10
-74.4981
 20
55.0356
 11
-76.292
 21
55.8549
  0
LINE
  8
0
 10
-14.292
 20
55.8549
 11
-15.3582
 21
57.5139
  0
LINE
  8
0
 10
-15.3582
 20
57.5139
 11
-15.3582
 21
59.4861
  0
LINE
  8
0
 10
-15.3582
 20
59.4861
 11
-14.292
 21
61.1451
  0
LINE
  8
0
 10
-14.292
 20
61.1451
 11
-12.4981
 21
61.9644
  0
LINE
  8
0
 10
-12.4981
 20
61.9644
 11
-10.546
 21
61.6837
  0
LINE
  8
0
 10
-10.546
 20
61.6837
 11
-9.0556
 21
60.3922
  0
LINE
  8
0
 10
-9.0556
 20
60.3922
 11
-8.5
 21
58.5
  0
LINE
  8
0
 10
-8.5
 20
58.5
 11
-9.0556
 21
56.6078
  0
LINE
  8
0
 10
-9.0556
 20
56.6078
 11
-10.546
 21
55.3163
  0
LINE
  8
0
 10
-10.546
 20
55.3163
 11
-12.4981
 21
55.0356
  0
LINE
  8
0
 10
-12.4981
 20
55.0356
 11
-14.292
 21
55.8549
  0
LINE
  8
0
 10
-107.292
 20
55.8549
 11
-108.358
 21
57.5139
  0
LINE
  8
0
 10
-108.358
 20
57.5139
 11
-108.358
 21
59.4861
  0
LINE
  8
0
 10
-108.358
 20
59.4861
 11
-107.292
 21
61.1451
  0
LINE
  8
0
 10
-107.292
 20
61.1451
 11
-105.498
 21
61.9644
  0
LINE
  8
0
 10
-105.498
 20
61.9644
 11
-103.546
 21
61.6837
  0
LINE
  8
0
 10
-103.546
 20
61.6837
 11
-102.056
 21
60.3922
  0
LINE
  8
0
 10
-102.056
 20
60.3922
 11
-101.5
 21
58.5
  0
LINE
  8
0
 10
-101.5
 20
58.5
 11
-102.056
 21
56.6078
  0
LINE
  8
0
 10
-102.056
 20
56.6078
 11
-103.546
 21
55.3163
  0
LINE
  8
0
 10
-103.546
 20
55.3163
 11
-105.498
 21
55.0356
  0
LINE
  8
0
 10
-105.498
 20
55.0356
 11
-107.292
 21
55.8549
  0
LINE
  8
0
 10
-91.792
 20
55.8549
 11
-92.8582
 21
57.5139
  0
LINE
  8
0
 10
-92.8582
 20
57.5139
 11
-92.8582
 21
59.4861
  0
LINE
  8
0
 10
-92.8582
 20
59.4861
 11
-91.792
 21
61.1451
  0
LINE
  8
0
 10
-91.792
 20
61.1451
 11
-89.9981
 21
61.9644
  0
LINE
  8
0
 10
-89.9981
 20
61.9644
 11
-88.0461
 21
61.6837
  0
LINE
  8
0
 10
-88.0461
 20
61.6837
 11
-86.5556
 21
60.3922
  0
LINE
  8
0
 10
-86.5556
 20
60.3922
 11
-86
 21
58.5
  0
LINE
  8
0
 10
-86
 20
58.5
 11
-86.5556
 21
56.6078
  0
LINE
  8
0
 10
-86.5556
 20
56.6078
 11
-88.0461
 21
55.3163
  0
LINE
  8
0
 10
-88.0461
 20
55.3163
 11
-89.9981
 21
55.0356
  0
LINE
  8
0
 10
-89.9981
 20
55.0356
 11
-91.792
 21
55.8549
  0
LINE
  8
0
 10
-45.292
 20
55.8549
 11
-46.3582
 21
57.5139
  0
LINE
  8
0
 10
-46.3582
 20
57.5139
 11
-46.3582
 21
59.4861
  0
LINE
  8
0
 10
-46.3582
 20
59.4861
 11
-45.292
 21
61.1451
  0
LINE
  8
0
 10
-45.292
 20
61.1451
 11
-43.4981
 21
61.9644
  0
LINE
  8
0
 10
-43.4981
 20
61.9644
 11
-41.546
 21
61.6837
  0
LINE
  8
0
 10
-41.546
 20
61.6837
 11
-40.0556
 21
60.3922
  0
LINE
  8
0
 10
-40.0556
 20
60.3922
 11
-39.5
 21
58.5
  0
LINE
  8
0
 10
-39.5
 20
58.5
 11
-40.0556
 21
56.6078
  0
LINE
  8
0
 10
-40.0556
 20
56.6078
 11
-41.546
 21
55.3163
  0
LINE
  8
0
 10
-41.546
 20
55.3163
 11
-43.4981
 21
55.0356
  0
LINE
  8
0
 10
-43.4981
 20
55.0356
 11
-45.292
 21
55.8549
  0
LINE
  8
0
 10
-14.292
 20
40.3549
 11
-15.3582
 21
42.0139
  0
LINE
  8
0
 10
-15.3582
 20
42.0139
 11
-15.3582
 21
43.9861
  0
LINE
  8
0
 10
-15.3582
 20
43.9861
 11
-14.292
 21
45.6451
  0
LINE
  8
0
 10
-14.292
 20
45.6451
 11
-12.4981
 21
46.4644
  0
LINE
  8
0
 10
-12.4981
 20
46.4644
 11
-10.546
 21
46.1837
  0
LINE
  8
0
 10
-10.546
 20
46.1837
 11
-9.0556
 21
44.8922
  0
LINE
  8
0
 10
-9.0556
 20
44.8922
 11
-8.5
 21
43
  0
LINE
  8
0
 10
-8.5
 20
43
 11
-9.0556
 21
41.1078
  0
LINE
  8
0
 10
-9.0556
 20
41.1078
 11
-10.546
 21
39.8163
  0
LINE
  8
0
 10
-10.546
 20
39.8163
 11
-12.4981
 21
39.5356
  0
LINE
  8
0
 10
-12.4981
 20
39.5356
 11
-14.292
 21
40.3549
  0
LINE
  8
0
 10
-107.292
 20
40.3549
 11
-108.358
 21
42.0139
  0
LINE
  8
0
 10
-108.358
 20
42.0139
 11
-108.358
 21
43.9861
  0
LINE
  8
0
 10
-108.358
 20
43.9861
 11
-107.292
 21
45.6451
  0
LINE
  8
0
 10
-107.292
 20
45.6451
 11
-105.498
 21
46.4644
  0
LINE
  8
0
 10
-105.498
 20
46.4644
 11
-103.546
 21
46.1837
  0
LINE
  8
0
 10
-103.546
 20
46.1837
 11
-102.056
 21
44.8922
  0
LINE
  8
0
 10
-102.056
 20
44.8922
 11
-101.5
 21
43
  0
LINE
  8
0
 10
-101.5
 20
43
 11
-102.056
 21
41.1078
  0
LINE
  8
0
 10
-102.056
 20
41.1078
 11
-103.546
 21
39.8163
  0
LINE
  8
0
 10
-103.546
 20
39.8163
 11
-105.498
 21
39.5356
  0
LINE
  8
0
 10
-105.498
 20
39.5356
 11
-107.292
 21
40.3549
  0
LINE
  8
0
 10
-60.792
 20
40.3549
 11
-61.8582
 21
42.0139
  0
LINE
  8
0
 10
-61.8582
 20
42.0139
 11
-61.8582
 21
43.9861
  0
LINE
  8
0
 10
-61.8582
 20
43.9861
 11
-60.792
 21
45.6451
  0
LINE
  8
0
 10
-60.792
 20
45.6451
 11
-58.9981
 21
46.4644
  0
LINE
  8
0
 10
-58.9981
 20
46.4644
 11
-57.046
 21
46.1837
  0
LINE
  8
0
 10
-57.046
 20
46.1837
 11
-55.5556
 21
44.8922
  0
LINE
  8
0
 10
-55.5556
 20
44.8922
 11
-55
 21
43
  0
LINE
  8
0
 10
-55
 20
43
 11
-55.5556
 21
41.1078
  0
LINE
  8
0
 10
-55.5556
 20
41.1078
 11
-57.046
 21
39.8163
  0
LINE
  8
0
 10
-57.046
 20
39.8163
 11
-58.9981
 21
39.5356
  0
LINE
  8
0
 10
-58.9981
 20
39.5356
 11
-60.792
 21
40.3549
  0
LINE
  8
0
 10
-29.792
 20
40.3549
 11
-30.8582
 21
42.0139
  0
LINE
  8
0
 10
-30.8582
 20
42.0139
 11
-30.8582
 21
43.9861
  0
LINE
  8
0
 10
-30.8582
 20
43.9861
 11
-29.792
 21
45.6451
  0
LINE
  8
0
 10
-29.792
 20
45.6451
 11
-27.9981
 21
46.4644
  0
LINE
  8
0
 10
-27.9981
 20
46.4644
 11
-26.046
 21
46.1837
  0
LINE
  8
0
 10
-26.046
 20
46.1837
 11
-24.5556
 21
44.8922
  0
LINE
  8
0
 10
-24.5556
 20
44.8922
 11
-24
 21
43
  0
LINE
  8
0
 10
-24
 20
43
 11
-24.5556
 21
41.1078
  0
LINE
  8
0
 10
-24.5556
 20
41.1078
 11
-26.046
 21
39.8163
  0
LINE
  8
0
 10
-26.046
 20
39.8163
 11
-27.9981
 21
39.5356
  0
LINE
  8
0
 10
-27.9981
 20
39.5356
 11
-29.792
 21
40.3549
  0
LINE
  8
0
 10
-45.292
 20
40.3549
 11
-46.3582
 21
42.0139
  0
LINE
  8
0
 10
-46.3582
 20
42.0139
 11
-46.3582
 21
43.9861
  0
LINE
  8
0
 10
-46.3582
 20
43.9861
 11
-45.292
 21
45.6451
  0
LINE
  8
0
 10
-45.292
 20
45.6451
 11
-43.4981
 21
46.4644
  0
LINE
  8
0
 10
-43.4981
 20
46.4644
 11
-41.546
 21
46.1837
  0
LINE
  8
0
 10
-41.546
 20
46.1837
 11
-40.0556
 21
44.8922
  0
LINE
  8
0
 10
-40.0556
 20
44.8922
 11
-39.5
 21
43
  0
LINE
  8
0
 10
-39.5
 20
43
 11
-40.0556
 21
41.1078
  0
LINE
  8
0
 10
-40.0556
 20
41.1078
 11
-41.546
 21
39.8163
  0
LINE
  8
0
 10
-41.546
 20
39.8163
 11
-43.4981
 21
39.5356
  0
LINE
  8
0
 10
-43.4981
 20
39.5356
 11
-45.292
 21
40.3549
  0
LINE
  8
0
 10
-76.292
 20
40.3549
 11
-77.3582
 21
42.0139
  0
LINE
  8
0
 10
-77.3582
 20
42.0139
 11
-77.3582
 21
43.9861
  0
LINE
  8
0
 10
-77.3582
 20
43.9861
 11
-76.292
 21
45.6451
  0
LINE
  8
0
 10
-76.292
 20
45.6451
 11
-74.4981
 21
46.4644
  0
LINE
  8
0
 10
-74.4981
 20
46.4644
 11
-72.5461
 21
46.1837
  0
LINE
  8
0
 10
-72.5461
 20
46.1837
 11
-71.0556
 21
44.8922
  0
LINE
  8
0
 10
-71.0556
 20
44.8922
 11
-70.5
 21
43
  0
LINE
  8
0
 10
-70.5
 20
43
 11
-71.0556
 21
41.1078
  0
LINE
  8
0
 10
-71.0556
 20
41.1078
 11
-72.5461
 21
39.8163
  0
LINE
  8
0
 10
-72.5461
 20
39.8163
 11
-74.4981
 21
39.5356
  0
LINE
  8
0
 10
-74.4981
 20
39.5356
 11
-76.292
 21
40.3549
  0
LINE
  8
0
 10
-91.792
 20
40.3549
 11
-92.8582
 21
42.0139
  0
LINE
  8
0
 10
-92.8582
 20
42.0139
 11
-92.8582
 21
43.9861
  0
LINE
  8
0
 10
-92.8582
 20
43.9861
 11
-91.792
 21
45.6451
  0
LINE
  8
0
 10
-91.792
 20
45.6451
 11
-89.9981
 21
46.4644
  0
LINE
  8
0
 10
-89.9981
 20
46.4644
 11
-88.0461
 21
46.1837
  0
LINE
  8
0
 10
-88.0461
 20
46.1837
 11
-86.5556
 21
44.8922
  0
LINE
  8
0
 10
-86.5556
 20
44.8922
 11
-86
 21
43
  0
LINE
  8
0
 10
-86
 20
43
 11
-86.5556
 21
41.1078
  0
LINE
  8
0
 10
-86.5556
 20
41.1078
 11
-88.0461
 21
39.8163
  0
LINE
  8
0
 10
-88.0461
 20
39.8163
 11
-89.9981
 21
39.5356
  0
LINE
  8
0
 10
-89.9981
 20
39.5356
 11
-91.792
 21
40.3549
  0
LINE
  8
0
 10
-60.792
 20
24.8549
 11
-61.8582
 21
26.5139
  0
LINE
  8
0
 10
-61.8582
 20
26.5139
 11
-61.8582
 21
28.4861
  0
LINE
  8
0
 10
-61.8582
 20
28.4861
 11
-60.792
 21
30.1451
  0
LINE
  8
0
 10
-60.792
 20
30.1451
 11
-58.9981
 21
30.9644
  0
LINE
  8
0
 10
-58.9981
 20
30.9644
 11
-57.046
 21
30.6837
  0
LINE
  8
0
 10
-57.046
 20
30.6837
 11
-55.5556
 21
29.3922
  0
LINE
  8
0
 10
-55.5556
 20
29.3922
 11
-55
 21
27.5
  0
LINE
  8
0
 10
-55
 20
27.5
 11
-55.5556
 21
25.6078
  0
LINE
  8
0
 10
-55.5556
 20
25.6078
 11
-57.046
 21
24.3163
  0
LINE
  8
0
 10
-57.046
 20
24.3163
 11
-58.9981
 21
24.0356
  0
LINE
  8
0
 10
-58.9981
 20
24.0356
 11
-60.792
 21
24.8549
  0
LINE
  8
0
 10
-91.792
 20
24.8549
 11
-92.8582
 21
26.5139
  0
LINE
  8
0
 10
-92.8582
 20
26.5139
 11
-92.8582
 21
28.4861
  0
LINE
  8
0
 10
-92.8582
 20
28.4861
 11
-91.792
 21
30.1451
  0
LINE
  8
0
 10
-91.792
 20
30.1451
 11
-89.9981
 21
30.9644
  0
LINE
  8
0
 10
-89.9981
 20
30.9644
 11
-88.0461
 21
30.6837
  0
LINE
  8
0
 10
-88.0461
 20
30.6837
 11
-86.5556
 21
29.3922
  0
LINE
  8
0
 10
-86.5556
 20
29.3922
 11
-86
 21
27.5
  0
LINE
  8
0
 10
-86
 20
27.5
 11
-86.5556
 21
25.6078
  0
LINE
  8
0
 10
-86.5556
 20
25.6078
 11
-88.0461
 21
24.3163
  0
LINE
  8
0
 10
-88.0461
 20
24.3163
 11
-89.9981
 21
24.0356
  0
LINE
  8
0
 10
-89.9981
 20
24.0356
 11
-91.792
 21
24.8549
  0
LINE
  8
0
 10
-107.292
 20
24.8549
 11
-108.358
 21
26.5139
  0
LINE
  8
0
 10
-108.358
 20
26.5139
 11
-108.358
 21
28.4861
  0
LINE
  8
0
 10
-108.358
 20
28.4861
 11
-107.292
 21
30.1451
  0
LINE
  8
0
 10
-107.292
 20
30.1451
 11
-105.498
 21
30.9644
  0
LINE
  8
0
 10
-105.498
 20
30.9644
 11
-103.546
 21
30.6837
  0
LINE
  8
0
 10
-103.546
 20
30.6837
 11
-102.056
 21
29.3922
  0
LINE
  8
0
 10
-102.056
 20
29.3922
 11
-101.5
 21
27.5
  0
LINE
  8
0
 10
-101.5
 20
27.5
 11
-102.056
 21
25.6078
  0
LINE
  8
0
 10
-102.056
 20
25.6078
 11
-103.546
 21
24.3163
  0
LINE
  8
0
 10
-103.546
 20
24.3163
 11
-105.498
 21
24.0356
  0
LINE
  8
0
 10
-105.498
 20
24.0356
 11
-107.292
 21
24.8549
  0
LINE
  8
0
 10
-45.292
 20
24.8549
 11
-46.3582
 21
26.5139
  0
LINE
  8
0
 10
-46.3582
 20
26.5139
 11
-46.3582
 21
28.4861
  0
LINE
  8
0
 10
-46.3582
 20
28.4861
 11
-45.292
 21
30.1451
  0
LINE
  8
0
 10
-45.292
 20
30.1451
 11
-43.4981
 21
30.9644
  0
LINE
  8
0
 10
-43.4981
 20
30.9644
 11
-41.546
 21
30.6837
  0
LINE
  8
0
 10
-41.546
 20
30.6837
 11
-40.0556
 21
29.3922
  0
LINE
  8
0
 10
-40.0556
 20
29.3922
 11
-39.5
 21
27.5
  0
LINE
  8
0
 10
-39.5
 20
27.5
 11
-40.0556
 21
25.6078
  0
LINE
  8
0
 10
-40.0556
 20
25.6078
 11
-41.546
 21
24.3163
  0
LINE
  8
0
 10
-41.546
 20
24.3163
 11
-43.4981
 21
24.0356
  0
LINE
  8
0
 10
-43.4981
 20
24.0356
 11
-45.292
 21
24.8549
  0
LINE
  8
0
 10
-29.792
 20
24.8549
 11
-30.8582
 21
26.5139
  0
LINE
  8
0
 10
-30.8582
 20
26.5139
 11
-30.8582
 21
28.4861
  0
LINE
  8
0
 10
-30.8582
 20
28.4861
 11
-29.792
 21
30.1451
  0
LINE
  8
0
 10
-29.792
 20
30.1451
 11
-27.9981
 21
30.9644
  0
LINE
  8
0
 10
-27.9981
 20
30.9644
 11
-26.046
 21
30.6837
  0
LINE
  8
0
 10
-26.046
 20
30.6837
 11
-24.5556
 21
29.3922
  0
LINE
  8
0
 10
-24.5556
 20
29.3922
 11
-24
 21
27.5
  0
LINE
  8
0
 10
-24
 20
27.5
 11
-24.5556
 21
25.6078
  0
LINE
  8
0
 10
-24.5556
 20
25.6078
 11
-26.046
 21
24.3163
  0
LINE
  8
0
 10
-26.046
 20
24.3163
 11
-27.9981
 21
24.0356
  0
LINE
  8
0
 10
-27.9981
 20
24.0356
 11
-29.792
 21
24.8549
  0
LINE
  8
0
 10
-14.292
 20
24.8549
 11
-15.3582
 21
26.5139
  0
LINE
  8
0
 10
-15.3582
 20
26.5139
 11
-15.3582
 21
28.4861
  0
LINE
  8
0
 10
-15.3582
 20
28.4861
 11
-14.292
 21
30.1451
  0
LINE
  8
0
 10
-14.292
 20
30.1451
 11
-12.4981
 21
30.9644
  0
LINE
  8
0
 10
-12.4981
 20
30.9644
 11
-10.546
 21
30.6837
  0
LINE
  8
0
 10
-10.546
 20
30.6837
 11
-9.0556
 21
29.3922
  0
LINE
  8
0
 10
-9.0556
 20
29.3922
 11
-8.5
 21
27.5
  0
LINE
  8
0
 10
-8.5
 20
27.5
 11
-9.0556
 21
25.6078
  0
LINE
  8
0
 10
-9.0556
 20
25.6078
 11
-10.546
 21
24.3163
  0
LINE
  8
0
 10
-10.546
 20
24.3163
 11
-12.4981
 21
24.0356
  0
LINE
  8
0
 10
-12.4981
 20
24.0356
 11
-14.292
 21
24.8549
  0
LINE
  8
0
 10
-76.292
 20
24.8549
 11
-77.3582
 21
26.5139
  0
LINE
  8
0
 10
-77.3582
 20
26.5139
 11
-77.3582
 21
28.4861
  0
LINE
  8
0
 10
-77.3582
 20
28.4861
 11
-76.292
 21
30.1451
  0
LINE
  8
0
 10
-76.292
 20
30.1451
 11
-74.4981
 21
30.9644
  0
LINE
  8
0
 10
-74.4981
 20
30.9644
 11
-72.5461
 21
30.6837
  0
LINE
  8
0
 10
-72.5461
 20
30.6837
 11
-71.0556
 21
29.3922
  0
LINE
  8
0
 10
-71.0556
 20
29.3922
 11
-70.5
 21
27.5
  0
LINE
  8
0
 10
-70.5
 20
27.5
 11
-71.0556
 21
25.6078
  0
LINE
  8
0
 10
-71.0556
 20
25.6078
 11
-72.5461
 21
24.3163
  0
LINE
  8
0
 10
-72.5461
 20
24.3163
 11
-74.4981
 21
24.0356
  0
LINE
  8
0
 10
-74.4981
 20
24.0356
 11
-76.292
 21
24.8549
  0
LINE
  8
0
 10
-91.792
 20
9.35487
 11
-92.8582
 21
11.0139
  0
LINE
  8
0
 10
-92.8582
 20
11.0139
 11
-92.8582
 21
12.9861
  0
LINE
  8
0
 10
-92.8582
 20
12.9861
 11
-91.792
 21
14.6451
  0
LINE
  8
0
 10
-91.792
 20
14.6451
 11
-89.9981
 21
15.4644
  0
LINE
  8
0
 10
-89.9981
 20
15.4644
 11
-88.0461
 21
15.1837
  0
LINE
  8
0
 10
-88.0461
 20
15.1837
 11
-86.5556
 21
13.8922
  0
LINE
  8
0
 10
-86.5556
 20
13.8922
 11
-86
 21
12
  0
LINE
  8
0
 10
-86
 20
12
 11
-86.5556
 21
10.1077
  0
LINE
  8
0
 10
-86.5556
 20
10.1077
 11
-88.0461
 21
8.81628
  0
LINE
  8
0
 10
-88.0461
 20
8.81628
 11
-89.9981
 21
8.53561
  0
LINE
  8
0
 10
-89.9981
 20
8.53561
 11
-91.792
 21
9.35487
  0
LINE
  8
0
 10
-29.792
 20
9.35487
 11
-30.8582
 21
11.0139
  0
LINE
  8
0
 10
-30.8582
 20
11.0139
 11
-30.8582
 21
12.9861
  0
LINE
  8
0
 10
-30.8582
 20
12.9861
 11
-29.792
 21
14.6451
  0
LINE
  8
0
 10
-29.792
 20
14.6451
 11
-27.9981
 21
15.4644
  0
LINE
  8
0
 10
-27.9981
 20
15.4644
 11
-26.046
 21
15.1837
  0
LINE
  8
0
 10
-26.046
 20
15.1837
 11
-24.5556
 21
13.8922
  0
LINE
  8
0
 10
-24.5556
 20
13.8922
 11
-24
 21
12
  0
LINE
  8
0
 10
-24
 20
12
 11
-24.5556
 21
10.1077
  0
LINE
  8
0
 10
-24.5556
 20
10.1077
 11
-26.046
 21
8.81628
  0
LINE
  8
0
 10
-26.046
 20
8.81628
 11
-27.9981
 21
8.53561
  0
LINE
  8
0
 10
-27.9981
 20
8.53561
 11
-29.792
 21
9.35487
  0
LINE
  8
0
 10
-14.292
 20
9.35487
 11
-15.3582
 21
11.0139
  0
LINE
  8
0
 10
-15.3582
 20
11.0139
 11
-15.3582
 21
12.9861
  0
LINE
  8
0
 10
-15.3582
 20
12.9861
 11
-14.292
 21
14.6451
  0
LINE
  8
0
 10
-14.292
 20
14.6451
 11
-12.4981
 21
15.4644
  0
LINE
  8
0
 10
-12.4981
 20
15.4644
 11
-10.546
 21
15.1837
  0
LINE
  8
0
 10
-10.546
 20
15.1837
 11
-9.0556
 21
13.8922
  0
LINE
  8
0
 10
-9.0556
 20
13.8922
 11
-8.5
 21
12
  0
LINE
  8
0
 10
-8.5
 20
12
 11
-9.0556
 21
10.1077
  0
LINE
  8
0
 10
-9.0556
 20
10.1077
 11
-10.546
 21
8.81628
  0
LINE
  8
0
 10
-10.546
 20
8.81628
 11
-12.4981
 21
8.53561
  0
LINE
  8
0
 10
-12.4981
 20
8.53561
 11
-14.292
 21
9.35487
  0
LINE
  8
0
 10
-45.292
 20
9.35487
 11
-46.3582
 21
11.0139
  0
LINE
  8
0
 10
-46.3582
 20
11.0139
 11
-46.3582
 21
12.9861
  0
LINE
  8
0
 10
-46.3582
 20
12.9861
 11
-45.292
 21
14.6451
  0
LINE
  8
0
 10
-45.292
 20
14.6451
 11
-43.4981
 21
15.4644
  0
LINE
  8
0
 10
-43.4981
 20
15.4644
 11
-41.546
 21
15.1837
  0
LINE
  8
0
 10
-41.546
 20
15.1837
 11
-40.0556
 21
13.8922
  0
LINE
  8
0
 10
-40.0556
 20
13.8922
 11
-39.5
 21
12
  0
LINE
  8
0
 10
-39.5
 20
12
 11
-40.0556
 21
10.1077
  0
LINE
  8
0
 10
-40.0556
 20
10.1077
 11
-41.546
 21
8.81628
  0
LINE
  8
0
 10
-41.546
 20
8.81628
 11
-43.4981
 21
8.53561
  0
LINE
  8
0
 10
-43.4981
 20
8.53561
 11
-45.292
 21
9.35487
  0
LINE
  8
0
 10
-107.292
 20
9.35487
 11
-108.358
 21
11.0139
  0
LINE
  8
0
 10
-108.358
 20
11.0139
 11
-108.358
 21
12.9861
  0
LINE
  8
0
 10
-108.358
 20
12.9861
 11
-107.292
 21
14.6451
  0
LINE
  8
0
 10
-107.292
 20
14.6451
 11
-105.498
 21
15.4644
  0
LINE
  8
0
 10
-105.498
 20
15.4644
 11
-103.546
 21
15.1837
  0
LINE
  8
0
 10
-103.546
 20
15.1837
 11
-102.056
 21
13.8922
  0
LINE
  8
0
 10
-102.056
 20
13.8922
 11
-101.5
 21
12
  0
LINE
  8
0
 10
-101.5
 20
12
 11
-102.056
 21
10.1077
  0
LINE
  8
0
 10
-102.056
 20
10.1077
 11
-103.546
 21
8.81628
  0
LINE
  8
0
 10
-103.546
 20
8.81628
 11
-105.498
 21
8.53561
  0
LINE
  8
0
 10
-105.498
 20
8.53561
 11
-107.292
 21
9.35487
  0
LINE
  8
0
 10
-60.792
 20
9.35487
 11
-61.8582
 21
11.0139
  0
LINE
  8
0
 10
-61.8582
 20
11.0139
 11
-61.8582
 21
12.9861
  0
LINE
  8
0
 10
-61.8582
 20
12.9861
 11
-60.792
 21
14.6451
  0
LINE
  8
0
 10
-60.792
 20
14.6451
 11
-58.9981
 21
15.4644
  0
LINE
  8
0
 10
-58.9981
 20
15.4644
 11
-57.046
 21
15.1837
  0
LINE
  8
0
 10
-57.046
 20
15.1837
 11
-55.5556
 21
13.8922
  0
LINE
  8
0
 10
-55.5556
 20
13.8922
 11
-55
 21
12
  0
LINE
  8
0
 10
-55
 20
12
 11
-55.5556
 21
10.1077
  0
LINE
  8
0
 10
-55.5556
 20
10.1077
 11
-57.046
 21
8.81628
  0
LINE
  8
0
 10
-57.046
 20
8.81628
 11
-58.9981
 21
8.53561
  0
LINE
  8
0
 10
-58.9981
 20
8.53561
 11
-60.792
 21
9.35487
  0
LINE
  8
0
 10
-76.292
 20
9.35487
 11
-77.3582
 21
11.0139
  0
LINE
  8
0
 10
-77.3582
 20
11.0139
 11
-77.3582
 21
12.9861
  0
LINE
  8
0
 10
-77.3582
 20
12.9861
 11
-76.292
 21
14.6451
  0
LINE
  8
0
 10
-76.292
 20
14.6451
 11
-74.4981
 21
15.4644
  0
LINE
  8
0
 10
-74.4981
 20
15.4644
 11
-72.5461
 21
15.1837
  0
LINE
  8
0
 10
-72.5461
 20
15.1837
 11
-71.0556
 21
13.8922
  0
LINE
  8
0
 10
-71.0556
 20
13.8922
 11
-70.5
 21
12
  0
LINE
  8
0
 10
-70.5
 20
12
 11
-71.0556
 21
10.1077
  0
LINE
  8
0
 10
-71.0556
 20
10.1077
 11
-72.5461
 21
8.81628
  0
LINE
  8
0
 10
-72.5461
 20
8.81628
 11
-74.4981
 21
8.53561
  0
LINE
  8
0
 10
-74.4981
 20
8.53561
 11
-76.292
 21
9.35487
  0
ENDSEC
  0
SECTION
  2
OBJECTS
  0
DICTIONARY
  0
ENDSEC
  0
EOF
