  0
SECTION
  2
BLOCKS
  0
ENDSEC
  0
SECTION
  2
ENTITIES
  0
LINE
  8
0
 10
3.70819
 20
-11.4127
 11
6
 21
-10.3923
  0
LINE
  8
0
 10
6
 20
-10.3923
 11
8.02956
 21
-8.91772
  0
LINE
  8
0
 10
8.02956
 20
-8.91772
 11
9.70819
 21
-7.05342
  0
LINE
  8
0
 10
9.70819
 20
-7.05342
 11
10.9625
 21
-4.88083
  0
LINE
  8
0
 10
10.9625
 20
-4.88083
 11
11.7378
 21
-2.49493
  0
LINE
  8
0
 10
11.7378
 20
-2.49493
 11
12
 21
0
  0
LINE
  8
0
 10
12
 20
0
 11
11.7378
 21
2.49493
  0
LINE
  8
0
 10
11.7378
 20
2.49493
 11
10.9625
 21
4.88083
  0
LINE
  8
0
 10
10.9625
 20
4.88083
 11
9.70819
 21
7.05342
  0
LINE
  8
0
 10
9.70819
 20
7.05342
 11
8.02956
 21
8.91772
  0
LINE
  8
0
 10
8.02956
 20
8.91772
 11
6
 21
10.3923
  0
LINE
  8
0
 10
6
 20
10.3923
 11
3.70819
 21
11.4127
  0
LINE
  8
0
 10
3.70819
 20
11.4127
 11
1.25433
 21
11.9342
  0
LINE
  8
0
 10
1.25433
 20
11.9342
 11
-1.25433
 21
11.9342
  0
LINE
  8
0
 10
-1.25433
 20
11.9342
 11
-3.70819
 21
11.4127
  0
LINE
  8
0
 10
-3.70819
 20
11.4127
 11
-5.99998
 21
10.3923
  0
LINE
  8
0
 10
-5.99998
 20
10.3923
 11
-8.02956
 21
8.91772
  0
LINE
  8
0
 10
-8.02956
 20
8.91772
 11
-9.70819
 21
7.05342
  0
LINE
  8
0
 10
-9.70819
 20
7.05342
 11
-10.9625
 21
4.88083
  0
LINE
  8
0
 10
-10.9625
 20
4.88083
 11
-11.7378
 21
2.49493
  0
LINE
  8
0
 10
-11.7378
 20
2.49493
 11
-12
 21
0
  0
LINE
  8
0
 10
-12
 20
0
 11
-11.7378
 21
-2.49493
  0
LINE
  8
0
 10
-11.7378
 20
-2.49493
 11
-10.9625
 21
-4.88083
  0
LINE
  8
0
 10
-10.9625
 20
-4.88083
 11
-9.70819
 21
-7.05342
  0
LINE
  8
0
 10
-9.70819
 20
-7.05342
 11
-8.02956
 21
-8.91772
  0
LINE
  8
0
 10
-8.02956
 20
-8.91772
 11
-6
 21
-10.3923
  0
LINE
  8
0
 10
-6
 20
-10.3923
 11
-3.70819
 21
-11.4127
  0
LINE
  8
0
 10
-3.70819
 20
-11.4127
 11
-1.25433
 21
-11.9342
  0
LINE
  8
0
 10
-1.25433
 20
-11.9342
 11
1.25433
 21
-11.9342
  0
LINE
  8
0
 10
1.25433
 20
-11.9342
 11
3.70819
 21
-11.4127
  0
LINE
  8
0
 10
-2.29201
 20
-2.64511
 11
-3.35822
 21
-0.986053
  0
LINE
  8
0
 10
-3.35822
 20
-0.986053
 11
-3.35822
 21
0.986053
  0
LINE
  8
0
 10
-3.35822
 20
0.986053
 11
-2.29201
 21
2.64511
  0
LINE
  8
0
 10
-2.29201
 20
2.64511
 11
-0.498093
 21
3.46437
  0
LINE
  8
0
 10
-0.498093
 20
3.46437
 11
1.45395
 21
3.1837
  0
LINE
  8
0
 10
1.45395
 20
3.1837
 11
2.94438
 21
1.89224
  0
LINE
  8
0
 10
2.94438
 20
1.89224
 11
3.5
 21
0
  0
LINE
  8
0
 10
3.5
 20
0
 11
2.94438
 21
-1.89224
  0
LINE
  8
0
 10
2.94438
 20
-1.89224
 11
1.45395
 21
-3.1837
  0
LINE
  8
0
 10
1.45395
 20
-3.1837
 11
-0.498093
 21
-3.46437
  0
LINE
  8
0
 10
-0.498093
 20
-3.46437
 11
-2.29201
 21
-2.64511
  0
ENDSEC
  0
SECTION
  2
OBJECTS
  0
DICTIONARY
  0
ENDSEC
  0
EOF
