  0
SECTION
  2
BLOCKS
  0
ENDSEC
  0
SECTION
  2
ENTITIES
  0
LINE
  8
0
 10
0
 20
-13.9233
 11
1.46339
 21
-13.9233
  0
LINE
  8
0
 10
1.46339
 20
-13.9233
 11
4.32623
 21
-13.3148
  0
LINE
  8
0
 10
4.32623
 20
-13.3148
 11
7
 21
-12.1243
  0
LINE
  8
0
 10
7
 20
-12.1243
 11
9.36783
 21
-10.404
  0
LINE
  8
0
 10
9.36783
 20
-10.404
 11
11.3262
 21
-8.22899
  0
LINE
  8
0
 10
11.3262
 20
-8.22899
 11
12.7896
 21
-5.69431
  0
LINE
  8
0
 10
12.7896
 20
-5.69431
 11
13.6941
 21
-2.91075
  0
LINE
  8
0
 10
13.6941
 20
-2.91075
 11
14
 21
0
  0
LINE
  8
0
 10
14
 20
0
 11
13.6941
 21
2.91075
  0
LINE
  8
0
 10
13.6941
 20
2.91075
 11
12.7896
 21
5.69431
  0
LINE
  8
0
 10
12.7896
 20
5.69431
 11
11.3262
 21
8.22899
  0
LINE
  8
0
 10
11.3262
 20
8.22899
 11
9.36783
 21
10.404
  0
LINE
  8
0
 10
9.36783
 20
10.404
 11
7
 21
12.1243
  0
LINE
  8
0
 10
7
 20
12.1243
 11
4.32623
 21
13.3148
  0
LINE
  8
0
 10
4.32623
 20
13.3148
 11
1.46339
 21
13.9233
  0
LINE
  8
0
 10
1.46339
 20
13.9233
 11
0
 21
13.9233
  0
LINE
  8
0
 10
0
 20
13.9233
 11
0
 21
14
  0
LINE
  8
0
 10
0
 20
14
 11
-93
 21
14
  0
LINE
  8
0
 10
-93
 20
14
 11
-93
 21
13.9233
  0
LINE
  8
0
 10
-93
 20
13.9233
 11
-94.4634
 21
13.9233
  0
LINE
  8
0
 10
-94.4634
 20
13.9233
 11
-97.3262
 21
13.3148
  0
LINE
  8
0
 10
-97.3262
 20
13.3148
 11
-100
 21
12.1243
  0
LINE
  8
0
 10
-100
 20
12.1243
 11
-102.368
 21
10.404
  0
LINE
  8
0
 10
-102.368
 20
10.404
 11
-104.326
 21
8.22899
  0
LINE
  8
0
 10
-104.326
 20
8.22899
 11
-105.79
 21
5.69431
  0
LINE
  8
0
 10
-105.79
 20
5.69431
 11
-106.694
 21
2.91075
  0
LINE
  8
0
 10
-106.694
 20
2.91075
 11
-107
 21
0
  0
LINE
  8
0
 10
-107
 20
0
 11
-106.694
 21
-2.91075
  0
LINE
  8
0
 10
-106.694
 20
-2.91075
 11
-105.79
 21
-5.69431
  0
LINE
  8
0
 10
-105.79
 20
-5.69431
 11
-104.326
 21
-8.22899
  0
LINE
  8
0
 10
-104.326
 20
-8.22899
 11
-102.368
 21
-10.404
  0
LINE
  8
0
 10
-102.368
 20
-10.404
 11
-100
 21
-12.1243
  0
LINE
  8
0
 10
-100
 20
-12.1243
 11
-97.3262
 21
-13.3148
  0
LINE
  8
0
 10
-97.3262
 20
-13.3148
 11
-94.4634
 21
-13.9233
  0
LINE
  8
0
 10
-94.4634
 20
-13.9233
 11
-93
 21
-13.9233
  0
LINE
  8
0
 10
-93
 20
-13.9233
 11
-93
 21
-14
  0
LINE
  8
0
 10
-93
 20
-14
 11
0
 21
-14
  0
LINE
  8
0
 10
0
 20
-14
 11
0
 21
-13.9233
  0
LINE
  8
0
 10
-79.05
 20
6.39999
 11
-79.05
 21
10.4
  0
LINE
  8
0
 10
-79.05
 20
10.4
 11
-13.95
 21
10.4
  0
LINE
  8
0
 10
-13.95
 20
10.4
 11
-13.95
 21
6.39999
  0
LINE
  8
0
 10
-13.95
 20
6.39999
 11
-79.05
 21
6.39999
  0
LINE
  8
0
 10
-95.292
 20
-2.64511
 11
-96.3582
 21
-0.986053
  0
LINE
  8
0
 10
-96.3582
 20
-0.986053
 11
-96.3582
 21
0.986053
  0
LINE
  8
0
 10
-96.3582
 20
0.986053
 11
-95.292
 21
2.64511
  0
LINE
  8
0
 10
-95.292
 20
2.64511
 11
-93.4981
 21
3.46437
  0
LINE
  8
0
 10
-93.4981
 20
3.46437
 11
-91.5461
 21
3.1837
  0
LINE
  8
0
 10
-91.5461
 20
3.1837
 11
-90.0556
 21
1.89224
  0
LINE
  8
0
 10
-90.0556
 20
1.89224
 11
-89.5
 21
0
  0
LINE
  8
0
 10
-89.5
 20
0
 11
-90.0556
 21
-1.89224
  0
LINE
  8
0
 10
-90.0556
 20
-1.89224
 11
-91.5461
 21
-3.1837
  0
LINE
  8
0
 10
-91.5461
 20
-3.1837
 11
-93.4981
 21
-3.46437
  0
LINE
  8
0
 10
-93.4981
 20
-3.46437
 11
-95.292
 21
-2.64511
  0
LINE
  8
0
 10
-2.29201
 20
-2.64511
 11
-3.35822
 21
-0.986053
  0
LINE
  8
0
 10
-3.35822
 20
-0.986053
 11
-3.35822
 21
0.986053
  0
LINE
  8
0
 10
-3.35822
 20
0.986053
 11
-2.29201
 21
2.64511
  0
LINE
  8
0
 10
-2.29201
 20
2.64511
 11
-0.498093
 21
3.46437
  0
LINE
  8
0
 10
-0.498093
 20
3.46437
 11
1.45395
 21
3.1837
  0
LINE
  8
0
 10
1.45395
 20
3.1837
 11
2.94438
 21
1.89224
  0
LINE
  8
0
 10
2.94438
 20
1.89224
 11
3.5
 21
0
  0
LINE
  8
0
 10
3.5
 20
0
 11
2.94438
 21
-1.89224
  0
LINE
  8
0
 10
2.94438
 20
-1.89224
 11
1.45395
 21
-3.1837
  0
LINE
  8
0
 10
1.45395
 20
-3.1837
 11
-0.498093
 21
-3.46437
  0
LINE
  8
0
 10
-0.498093
 20
-3.46437
 11
-2.29201
 21
-2.64511
  0
LINE
  8
0
 10
-79.05
 20
-2
 11
-79.05
 21
2
  0
LINE
  8
0
 10
-79.05
 20
2
 11
-13.95
 21
2
  0
LINE
  8
0
 10
-13.95
 20
2
 11
-13.95
 21
-2
  0
LINE
  8
0
 10
-13.95
 20
-2
 11
-79.05
 21
-2
  0
LINE
  8
0
 10
-79.05
 20
-10.4
 11
-79.05
 21
-6.39999
  0
LINE
  8
0
 10
-79.05
 20
-6.39999
 11
-13.95
 21
-6.39999
  0
LINE
  8
0
 10
-13.95
 20
-6.39999
 11
-13.95
 21
-10.4
  0
LINE
  8
0
 10
-13.95
 20
-10.4
 11
-79.05
 21
-10.4
  0
ENDSEC
  0
SECTION
  2
OBJECTS
  0
DICTIONARY
  0
ENDSEC
  0
EOF
