solid OpenSCAD_Model
  facet normal -1 0 0
    outer loop
      vertex 0 23.5 0
      vertex 0 22.1 5
      vertex 0 23.5 10
    endloop
  endfacet
  facet normal -1 0 0
    outer loop
      vertex 0 23.5 0
      vertex 0 21.8856 4.2
      vertex 0 22.1 5
    endloop
  endfacet
  facet normal -1 0 0
    outer loop
      vertex 0 23.5 0
      vertex 0 21.3 3.61436
      vertex 0 21.8856 4.2
    endloop
  endfacet
  facet normal -1 0 0
    outer loop
      vertex 0 23.5 0
      vertex 0 20.5 3.4
      vertex 0 21.3 3.61436
    endloop
  endfacet
  facet normal -1 0 0
    outer loop
      vertex 0 23.5 0
      vertex 0 19.7 3.61436
      vertex 0 20.5 3.4
    endloop
  endfacet
  facet normal -1 -0 0
    outer loop
      vertex 0 19.1144 4.2
      vertex 0 8.5 0
      vertex 0 18.9 5
    endloop
  endfacet
  facet normal -1 -0 0
    outer loop
      vertex 0 19.7 3.61436
      vertex 0 8.5 0
      vertex 0 19.1144 4.2
    endloop
  endfacet
  facet normal -1 0 0
    outer loop
      vertex 0 8.5 0
      vertex 0 19.7 3.61436
      vertex 0 23.5 0
    endloop
  endfacet
  facet normal -1 0 0
    outer loop
      vertex 0 21.8856 5.8
      vertex 0 23.5 10
      vertex 0 22.1 5
    endloop
  endfacet
  facet normal -1 0 0
    outer loop
      vertex 0 21.3 6.38564
      vertex 0 23.5 10
      vertex 0 21.8856 5.8
    endloop
  endfacet
  facet normal -1 0 0
    outer loop
      vertex 0 20.5 6.6
      vertex 0 23.5 10
      vertex 0 21.3 6.38564
    endloop
  endfacet
  facet normal -1 0 0
    outer loop
      vertex 0 19.7 6.38564
      vertex 0 23.5 10
      vertex 0 20.5 6.6
    endloop
  endfacet
  facet normal -1 0 0
    outer loop
      vertex 0 8.5 10
      vertex 0 18.9 5
      vertex 0 8.5 0
    endloop
  endfacet
  facet normal -1 0 0
    outer loop
      vertex 0 18.9 5
      vertex 0 8.5 10
      vertex 0 19.1144 5.8
    endloop
  endfacet
  facet normal -1 0 0
    outer loop
      vertex 0 19.1144 5.8
      vertex 0 8.5 10
      vertex 0 19.7 6.38564
    endloop
  endfacet
  facet normal -1 0 0
    outer loop
      vertex 0 19.7 6.38564
      vertex 0 8.5 10
      vertex 0 23.5 10
    endloop
  endfacet
  facet normal 0 0 1
    outer loop
      vertex 3 23.5 10
      vertex 0 23.5 10
      vertex 3 11.5 10
    endloop
  endfacet
  facet normal 0 0 1
    outer loop
      vertex 20 11.5 10
      vertex 17 8.5 10
      vertex 20 -11.5 10
    endloop
  endfacet
  facet normal -0 0 1
    outer loop
      vertex 3 11.5 10
      vertex 17 8.5 10
      vertex 20 11.5 10
    endloop
  endfacet
  facet normal 0 0 1
    outer loop
      vertex 3 11.5 10
      vertex 0 8.5 10
      vertex 17 8.5 10
    endloop
  endfacet
  facet normal 0 0 1
    outer loop
      vertex 0 8.5 10
      vertex 3 11.5 10
      vertex 0 23.5 10
    endloop
  endfacet
  facet normal -0 0 1
    outer loop
      vertex 17 -8.5 10
      vertex 20 -11.5 10
      vertex 17 8.5 10
    endloop
  endfacet
  facet normal 0 0 1
    outer loop
      vertex 17 -8.5 10
      vertex 3 -11.5 10
      vertex 20 -11.5 10
    endloop
  endfacet
  facet normal -0 0 1
    outer loop
      vertex 0 -8.5 10
      vertex 3 -11.5 10
      vertex 17 -8.5 10
    endloop
  endfacet
  facet normal 0 0 1
    outer loop
      vertex 0 -23.5 10
      vertex 3 -11.5 10
      vertex 0 -8.5 10
    endloop
  endfacet
  facet normal 0 0 1
    outer loop
      vertex 3 -11.5 10
      vertex 0 -23.5 10
      vertex 3 -23.5 10
    endloop
  endfacet
  facet normal 1 0 0
    outer loop
      vertex 3 23.5 10
      vertex 3 22.1 5
      vertex 3 23.5 0
    endloop
  endfacet
  facet normal 1 0 0
    outer loop
      vertex 3 23.5 10
      vertex 3 21.8856 5.8
      vertex 3 22.1 5
    endloop
  endfacet
  facet normal 1 0 0
    outer loop
      vertex 3 23.5 10
      vertex 3 21.3 6.38564
      vertex 3 21.8856 5.8
    endloop
  endfacet
  facet normal 1 0 0
    outer loop
      vertex 3 23.5 10
      vertex 3 20.5 6.6
      vertex 3 21.3 6.38564
    endloop
  endfacet
  facet normal 1 0 0
    outer loop
      vertex 3 23.5 10
      vertex 3 19.7 6.38564
      vertex 3 20.5 6.6
    endloop
  endfacet
  facet normal 1 0 0
    outer loop
      vertex 3 19.1144 5.8
      vertex 3 11.5 10
      vertex 3 18.9 5
    endloop
  endfacet
  facet normal 1 0 0
    outer loop
      vertex 3 19.7 6.38564
      vertex 3 11.5 10
      vertex 3 19.1144 5.8
    endloop
  endfacet
  facet normal 1 -0 0
    outer loop
      vertex 3 11.5 10
      vertex 3 19.7 6.38564
      vertex 3 23.5 10
    endloop
  endfacet
  facet normal 1 -0 0
    outer loop
      vertex 3 21.8856 4.2
      vertex 3 23.5 0
      vertex 3 22.1 5
    endloop
  endfacet
  facet normal 1 -0 0
    outer loop
      vertex 3 21.3 3.61436
      vertex 3 23.5 0
      vertex 3 21.8856 4.2
    endloop
  endfacet
  facet normal 1 -0 0
    outer loop
      vertex 3 20.5 3.4
      vertex 3 23.5 0
      vertex 3 21.3 3.61436
    endloop
  endfacet
  facet normal 1 0 0
    outer loop
      vertex 3 19.7 3.61436
      vertex 3 23.5 0
      vertex 3 20.5 3.4
    endloop
  endfacet
  facet normal 1 0 0
    outer loop
      vertex 3 11.5 0
      vertex 3 18.9 5
      vertex 3 11.5 10
    endloop
  endfacet
  facet normal 1 0 0
    outer loop
      vertex 3 18.9 5
      vertex 3 11.5 0
      vertex 3 19.1144 4.2
    endloop
  endfacet
  facet normal 1 0 0
    outer loop
      vertex 3 19.1144 4.2
      vertex 3 11.5 0
      vertex 3 19.7 3.61436
    endloop
  endfacet
  facet normal 1 0 0
    outer loop
      vertex 3 19.7 3.61436
      vertex 3 11.5 0
      vertex 3 23.5 0
    endloop
  endfacet
  facet normal 0 1 -0
    outer loop
      vertex 3 23.5 0
      vertex 0 23.5 10
      vertex 3 23.5 10
    endloop
  endfacet
  facet normal 0 1 0
    outer loop
      vertex 0 23.5 10
      vertex 3 23.5 0
      vertex 0 23.5 0
    endloop
  endfacet
  facet normal 0 0 -1
    outer loop
      vertex 3 -23.5 0
      vertex 0 -23.5 0
      vertex 3 -11.5 0
    endloop
  endfacet
  facet normal 0 0 -1
    outer loop
      vertex 20 -11.5 0
      vertex 17 -8.5 0
      vertex 20 11.5 0
    endloop
  endfacet
  facet normal 0 0 -1
    outer loop
      vertex 3 -11.5 0
      vertex 17 -8.5 0
      vertex 20 -11.5 0
    endloop
  endfacet
  facet normal 0 0 -1
    outer loop
      vertex 3 -11.5 0
      vertex 0 -8.5 0
      vertex 17 -8.5 0
    endloop
  endfacet
  facet normal 0 0 -1
    outer loop
      vertex 0 -8.5 0
      vertex 3 -11.5 0
      vertex 0 -23.5 0
    endloop
  endfacet
  facet normal 0 0 -1
    outer loop
      vertex 17 8.5 0
      vertex 20 11.5 0
      vertex 17 -8.5 0
    endloop
  endfacet
  facet normal 0 0 -1
    outer loop
      vertex 17 8.5 0
      vertex 3 11.5 0
      vertex 20 11.5 0
    endloop
  endfacet
  facet normal 0 0 -1
    outer loop
      vertex 0 8.5 0
      vertex 3 11.5 0
      vertex 17 8.5 0
    endloop
  endfacet
  facet normal 0 0 -1
    outer loop
      vertex 0 23.5 0
      vertex 3 11.5 0
      vertex 0 8.5 0
    endloop
  endfacet
  facet normal 0 0 -1
    outer loop
      vertex 3 11.5 0
      vertex 0 23.5 0
      vertex 3 23.5 0
    endloop
  endfacet
  facet normal 0 -1 0
    outer loop
      vertex 0 8.5 0
      vertex 17 8.5 10
      vertex 0 8.5 10
    endloop
  endfacet
  facet normal 0 -1 -0
    outer loop
      vertex 17 8.5 10
      vertex 0 8.5 0
      vertex 17 8.5 0
    endloop
  endfacet
  facet normal 0 -0.258819 0.965926
    outer loop
      vertex 0 21.3 3.61436
      vertex 3 20.5 3.4
      vertex 3 21.3 3.61436
    endloop
  endfacet
  facet normal 0 -0.258819 0.965926
    outer loop
      vertex 3 20.5 3.4
      vertex 0 21.3 3.61436
      vertex 0 20.5 3.4
    endloop
  endfacet
  facet normal 0 0.258819 -0.965926
    outer loop
      vertex 0 19.7 6.38564
      vertex 3 20.5 6.6
      vertex 3 19.7 6.38564
    endloop
  endfacet
  facet normal 0 0.258819 -0.965926
    outer loop
      vertex 3 20.5 6.6
      vertex 0 19.7 6.38564
      vertex 0 20.5 6.6
    endloop
  endfacet
  facet normal 0 -0.965926 -0.258819
    outer loop
      vertex 0 22.1 5
      vertex 3 21.8856 5.8
      vertex 0 21.8856 5.8
    endloop
  endfacet
  facet normal 0 -0.965926 -0.258819
    outer loop
      vertex 3 21.8856 5.8
      vertex 0 22.1 5
      vertex 3 22.1 5
    endloop
  endfacet
  facet normal -0 0.707106 0.707107
    outer loop
      vertex 0 19.7 3.61436
      vertex 3 19.1144 4.2
      vertex 3 19.7 3.61436
    endloop
  endfacet
  facet normal 0 0.707106 0.707107
    outer loop
      vertex 3 19.1144 4.2
      vertex 0 19.7 3.61436
      vertex 0 19.1144 4.2
    endloop
  endfacet
  facet normal 0 0.965926 -0.258819
    outer loop
      vertex 3 18.9 5
      vertex 0 19.1144 5.8
      vertex 3 19.1144 5.8
    endloop
  endfacet
  facet normal 0 0.965926 -0.258819
    outer loop
      vertex 0 19.1144 5.8
      vertex 3 18.9 5
      vertex 0 18.9 5
    endloop
  endfacet
  facet normal 0 -0.965926 0.258819
    outer loop
      vertex 0 21.8856 4.2
      vertex 3 22.1 5
      vertex 0 22.1 5
    endloop
  endfacet
  facet normal 0 -0.965926 0.258819
    outer loop
      vertex 3 22.1 5
      vertex 0 21.8856 4.2
      vertex 3 21.8856 4.2
    endloop
  endfacet
  facet normal 0 -0.707107 0.707106
    outer loop
      vertex 0 21.3 3.61436
      vertex 3 21.8856 4.2
      vertex 0 21.8856 4.2
    endloop
  endfacet
  facet normal 0 -0.707107 0.707106
    outer loop
      vertex 3 21.8856 4.2
      vertex 0 21.3 3.61436
      vertex 3 21.3 3.61436
    endloop
  endfacet
  facet normal 0 -0.258819 -0.965926
    outer loop
      vertex 0 20.5 6.6
      vertex 3 21.3 6.38564
      vertex 3 20.5 6.6
    endloop
  endfacet
  facet normal -0 -0.258819 -0.965926
    outer loop
      vertex 3 21.3 6.38564
      vertex 0 20.5 6.6
      vertex 0 21.3 6.38564
    endloop
  endfacet
  facet normal 0 -0.707107 -0.707106
    outer loop
      vertex 0 21.8856 5.8
      vertex 3 21.3 6.38564
      vertex 0 21.3 6.38564
    endloop
  endfacet
  facet normal 0 -0.707107 -0.707106
    outer loop
      vertex 3 21.3 6.38564
      vertex 0 21.8856 5.8
      vertex 3 21.8856 5.8
    endloop
  endfacet
  facet normal -0 0.258819 0.965926
    outer loop
      vertex 0 20.5 3.4
      vertex 3 19.7 3.61436
      vertex 3 20.5 3.4
    endloop
  endfacet
  facet normal 0 0.258819 0.965926
    outer loop
      vertex 3 19.7 3.61436
      vertex 0 20.5 3.4
      vertex 0 19.7 3.61436
    endloop
  endfacet
  facet normal 0 0.965926 0.258819
    outer loop
      vertex 3 19.1144 4.2
      vertex 0 18.9 5
      vertex 3 18.9 5
    endloop
  endfacet
  facet normal 0 0.965926 0.258819
    outer loop
      vertex 0 18.9 5
      vertex 3 19.1144 4.2
      vertex 0 19.1144 4.2
    endloop
  endfacet
  facet normal 0 0.707106 -0.707107
    outer loop
      vertex 0 19.1144 5.8
      vertex 3 19.7 6.38564
      vertex 3 19.1144 5.8
    endloop
  endfacet
  facet normal 0 0.707106 -0.707107
    outer loop
      vertex 3 19.7 6.38564
      vertex 0 19.1144 5.8
      vertex 0 19.7 6.38564
    endloop
  endfacet
  facet normal -1 0 0
    outer loop
      vertex 17 8.5 0
      vertex 17 1.6 5
      vertex 17 8.5 10
    endloop
  endfacet
  facet normal -1 0 0
    outer loop
      vertex 17 8.5 0
      vertex 17 1.38564 4.2
      vertex 17 1.6 5
    endloop
  endfacet
  facet normal -1 0 0
    outer loop
      vertex 17 8.5 0
      vertex 17 0.799999 3.61436
      vertex 17 1.38564 4.2
    endloop
  endfacet
  facet normal -1 0 0
    outer loop
      vertex 17 8.5 0
      vertex 17 0 3.4
      vertex 17 0.799999 3.61436
    endloop
  endfacet
  facet normal -1 0 0
    outer loop
      vertex 17 -8.5 0
      vertex 17 0 3.4
      vertex 17 8.5 0
    endloop
  endfacet
  facet normal -1 -0 0
    outer loop
      vertex 17 -1.38564 4.2
      vertex 17 -8.5 0
      vertex 17 -1.6 5
    endloop
  endfacet
  facet normal -1 -0 0
    outer loop
      vertex 17 -0.8 3.61436
      vertex 17 -8.5 0
      vertex 17 -1.38564 4.2
    endloop
  endfacet
  facet normal -1 -0 0
    outer loop
      vertex 17 0 3.4
      vertex 17 -8.5 0
      vertex 17 -0.8 3.61436
    endloop
  endfacet
  facet normal -1 0 0
    outer loop
      vertex 17 1.38564 5.8
      vertex 17 8.5 10
      vertex 17 1.6 5
    endloop
  endfacet
  facet normal -1 0 0
    outer loop
      vertex 17 0.799999 6.38564
      vertex 17 8.5 10
      vertex 17 1.38564 5.8
    endloop
  endfacet
  facet normal -1 0 0
    outer loop
      vertex 17 0 6.6
      vertex 17 8.5 10
      vertex 17 0.799999 6.38564
    endloop
  endfacet
  facet normal -1 0 0
    outer loop
      vertex 17 -8.5 10
      vertex 17 0 6.6
      vertex 17 -0.8 6.38564
    endloop
  endfacet
  facet normal -1 0 0
    outer loop
      vertex 17 -8.5 10
      vertex 17 -1.6 5
      vertex 17 -8.5 0
    endloop
  endfacet
  facet normal -1 0 0
    outer loop
      vertex 17 -1.6 5
      vertex 17 -8.5 10
      vertex 17 -1.38564 5.8
    endloop
  endfacet
  facet normal -1 0 0
    outer loop
      vertex 17 0 6.6
      vertex 17 -8.5 10
      vertex 17 8.5 10
    endloop
  endfacet
  facet normal -1 0 0
    outer loop
      vertex 17 -1.38564 5.8
      vertex 17 -8.5 10
      vertex 17 -0.8 6.38564
    endloop
  endfacet
  facet normal 1 0 0
    outer loop
      vertex 20 11.5 10
      vertex 20 1.6 5
      vertex 20 11.5 0
    endloop
  endfacet
  facet normal 1 0 0
    outer loop
      vertex 20 11.5 10
      vertex 20 1.38564 5.8
      vertex 20 1.6 5
    endloop
  endfacet
  facet normal 1 0 0
    outer loop
      vertex 20 11.5 10
      vertex 20 0.799999 6.38564
      vertex 20 1.38564 5.8
    endloop
  endfacet
  facet normal 1 0 0
    outer loop
      vertex 20 11.5 10
      vertex 20 0 6.6
      vertex 20 0.799999 6.38564
    endloop
  endfacet
  facet normal 1 -0 0
    outer loop
      vertex 20 -11.5 10
      vertex 20 0 6.6
      vertex 20 11.5 10
    endloop
  endfacet
  facet normal 1 0 0
    outer loop
      vertex 20 -1.38564 5.8
      vertex 20 -11.5 10
      vertex 20 -1.6 5
    endloop
  endfacet
  facet normal 1 0 0
    outer loop
      vertex 20 -0.8 6.38564
      vertex 20 -11.5 10
      vertex 20 -1.38564 5.8
    endloop
  endfacet
  facet normal 1 0 0
    outer loop
      vertex 20 0 6.6
      vertex 20 -11.5 10
      vertex 20 -0.8 6.38564
    endloop
  endfacet
  facet normal 1 -0 0
    outer loop
      vertex 20 1.38564 4.2
      vertex 20 11.5 0
      vertex 20 1.6 5
    endloop
  endfacet
  facet normal 1 -0 0
    outer loop
      vertex 20 0.799999 3.61436
      vertex 20 11.5 0
      vertex 20 1.38564 4.2
    endloop
  endfacet
  facet normal 1 -0 0
    outer loop
      vertex 20 0 3.4
      vertex 20 11.5 0
      vertex 20 0.799999 3.61436
    endloop
  endfacet
  facet normal 1 0 0
    outer loop
      vertex 20 -11.5 0
      vertex 20 0 3.4
      vertex 20 -0.8 3.61436
    endloop
  endfacet
  facet normal 1 0 0
    outer loop
      vertex 20 -11.5 0
      vertex 20 -1.6 5
      vertex 20 -11.5 10
    endloop
  endfacet
  facet normal 1 0 0
    outer loop
      vertex 20 -1.6 5
      vertex 20 -11.5 0
      vertex 20 -1.38564 4.2
    endloop
  endfacet
  facet normal 1 0 0
    outer loop
      vertex 20 0 3.4
      vertex 20 -11.5 0
      vertex 20 11.5 0
    endloop
  endfacet
  facet normal 1 0 0
    outer loop
      vertex 20 -1.38564 4.2
      vertex 20 -11.5 0
      vertex 20 -0.8 3.61436
    endloop
  endfacet
  facet normal 0 -1 0
    outer loop
      vertex 3 -11.5 0
      vertex 20 -11.5 10
      vertex 3 -11.5 10
    endloop
  endfacet
  facet normal 0 -1 -0
    outer loop
      vertex 20 -11.5 10
      vertex 3 -11.5 0
      vertex 20 -11.5 0
    endloop
  endfacet
  facet normal 0 -0.258819 0.965926
    outer loop
      vertex 17 0.799999 3.61436
      vertex 20 0 3.4
      vertex 20 0.799999 3.61436
    endloop
  endfacet
  facet normal 0 -0.258819 0.965926
    outer loop
      vertex 20 0 3.4
      vertex 17 0.799999 3.61436
      vertex 17 0 3.4
    endloop
  endfacet
  facet normal 0 0.258819 -0.965926
    outer loop
      vertex 17 -0.8 6.38564
      vertex 20 0 6.6
      vertex 20 -0.8 6.38564
    endloop
  endfacet
  facet normal 0 0.258819 -0.965926
    outer loop
      vertex 20 0 6.6
      vertex 17 -0.8 6.38564
      vertex 17 0 6.6
    endloop
  endfacet
  facet normal 0 -0.965926 -0.258819
    outer loop
      vertex 17 1.6 5
      vertex 20 1.38564 5.8
      vertex 17 1.38564 5.8
    endloop
  endfacet
  facet normal 0 -0.965926 -0.258819
    outer loop
      vertex 20 1.38564 5.8
      vertex 17 1.6 5
      vertex 20 1.6 5
    endloop
  endfacet
  facet normal 0 0.707107 0.707107
    outer loop
      vertex 20 -0.8 3.61436
      vertex 17 -1.38564 4.2
      vertex 20 -1.38564 4.2
    endloop
  endfacet
  facet normal 0 0.707107 0.707107
    outer loop
      vertex 17 -1.38564 4.2
      vertex 20 -0.8 3.61436
      vertex 17 -0.8 3.61436
    endloop
  endfacet
  facet normal 0 0.707107 -0.707107
    outer loop
      vertex 20 -1.38564 5.8
      vertex 17 -0.8 6.38564
      vertex 20 -0.8 6.38564
    endloop
  endfacet
  facet normal 0 0.707107 -0.707107
    outer loop
      vertex 17 -0.8 6.38564
      vertex 20 -1.38564 5.8
      vertex 17 -1.38564 5.8
    endloop
  endfacet
  facet normal 0 -0.965926 0.258819
    outer loop
      vertex 17 1.38564 4.2
      vertex 20 1.6 5
      vertex 17 1.6 5
    endloop
  endfacet
  facet normal 0 -0.965926 0.258819
    outer loop
      vertex 20 1.6 5
      vertex 17 1.38564 4.2
      vertex 20 1.38564 4.2
    endloop
  endfacet
  facet normal 0 -0.707107 0.707107
    outer loop
      vertex 17 0.799999 3.61436
      vertex 20 1.38564 4.2
      vertex 17 1.38564 4.2
    endloop
  endfacet
  facet normal 0 -0.707107 0.707107
    outer loop
      vertex 20 1.38564 4.2
      vertex 17 0.799999 3.61436
      vertex 20 0.799999 3.61436
    endloop
  endfacet
  facet normal 0 -0.707107 -0.707107
    outer loop
      vertex 17 1.38564 5.8
      vertex 20 0.799999 6.38564
      vertex 17 0.799999 6.38564
    endloop
  endfacet
  facet normal 0 -0.707107 -0.707107
    outer loop
      vertex 20 0.799999 6.38564
      vertex 17 1.38564 5.8
      vertex 20 1.38564 5.8
    endloop
  endfacet
  facet normal 0 -0.258819 -0.965926
    outer loop
      vertex 17 0 6.6
      vertex 20 0.799999 6.38564
      vertex 20 0 6.6
    endloop
  endfacet
  facet normal -0 -0.258819 -0.965926
    outer loop
      vertex 20 0.799999 6.38564
      vertex 17 0 6.6
      vertex 17 0.799999 6.38564
    endloop
  endfacet
  facet normal -0 0.258819 0.965926
    outer loop
      vertex 17 0 3.4
      vertex 20 -0.8 3.61436
      vertex 20 0 3.4
    endloop
  endfacet
  facet normal 0 0.258819 0.965926
    outer loop
      vertex 20 -0.8 3.61436
      vertex 17 0 3.4
      vertex 17 -0.8 3.61436
    endloop
  endfacet
  facet normal 0 0.965926 0.258819
    outer loop
      vertex 20 -1.38564 4.2
      vertex 17 -1.6 5
      vertex 20 -1.6 5
    endloop
  endfacet
  facet normal 0 0.965926 0.258819
    outer loop
      vertex 17 -1.6 5
      vertex 20 -1.38564 4.2
      vertex 17 -1.38564 4.2
    endloop
  endfacet
  facet normal 0 0.965926 -0.258819
    outer loop
      vertex 20 -1.6 5
      vertex 17 -1.38564 5.8
      vertex 20 -1.38564 5.8
    endloop
  endfacet
  facet normal 0 0.965926 -0.258819
    outer loop
      vertex 17 -1.38564 5.8
      vertex 20 -1.6 5
      vertex 17 -1.6 5
    endloop
  endfacet
  facet normal -1 0 0
    outer loop
      vertex 0 -8.5 0
      vertex 0 -18.9 5
      vertex 0 -8.5 10
    endloop
  endfacet
  facet normal -1 0 0
    outer loop
      vertex 0 -8.5 0
      vertex 0 -19.1144 4.2
      vertex 0 -18.9 5
    endloop
  endfacet
  facet normal -1 0 0
    outer loop
      vertex 0 -8.5 0
      vertex 0 -19.7 3.61436
      vertex 0 -19.1144 4.2
    endloop
  endfacet
  facet normal -1 0 0
    outer loop
      vertex 0 -23.5 0
      vertex 0 -19.7 3.61436
      vertex 0 -8.5 0
    endloop
  endfacet
  facet normal -1 0 0
    outer loop
      vertex 0 -19.7 3.61436
      vertex 0 -23.5 0
      vertex 0 -20.5 3.4
    endloop
  endfacet
  facet normal -1 -0 0
    outer loop
      vertex 0 -21.8856 4.2
      vertex 0 -23.5 0
      vertex 0 -22.1 5
    endloop
  endfacet
  facet normal -1 -0 0
    outer loop
      vertex 0 -21.3 3.61436
      vertex 0 -23.5 0
      vertex 0 -21.8856 4.2
    endloop
  endfacet
  facet normal -1 -0 0
    outer loop
      vertex 0 -20.5 3.4
      vertex 0 -23.5 0
      vertex 0 -21.3 3.61436
    endloop
  endfacet
  facet normal -1 0 0
    outer loop
      vertex 0 -19.1144 5.8
      vertex 0 -8.5 10
      vertex 0 -18.9 5
    endloop
  endfacet
  facet normal -1 0 0
    outer loop
      vertex 0 -19.7 6.38564
      vertex 0 -8.5 10
      vertex 0 -19.1144 5.8
    endloop
  endfacet
  facet normal -1 0 0
    outer loop
      vertex 0 -23.5 10
      vertex 0 -19.7 6.38564
      vertex 0 -20.5 6.6
    endloop
  endfacet
  facet normal -1 0 0
    outer loop
      vertex 0 -23.5 10
      vertex 0 -20.5 6.6
      vertex 0 -21.3 6.38564
    endloop
  endfacet
  facet normal -1 0 0
    outer loop
      vertex 0 -23.5 10
      vertex 0 -22.1 5
      vertex 0 -23.5 0
    endloop
  endfacet
  facet normal -1 0 0
    outer loop
      vertex 0 -19.7 6.38564
      vertex 0 -23.5 10
      vertex 0 -8.5 10
    endloop
  endfacet
  facet normal -1 0 0
    outer loop
      vertex 0 -21.8856 5.8
      vertex 0 -23.5 10
      vertex 0 -21.3 6.38564
    endloop
  endfacet
  facet normal -1 0 0
    outer loop
      vertex 0 -22.1 5
      vertex 0 -23.5 10
      vertex 0 -21.8856 5.8
    endloop
  endfacet
  facet normal 1 0 0
    outer loop
      vertex 3 -11.5 10
      vertex 3 -18.9 5
      vertex 3 -11.5 0
    endloop
  endfacet
  facet normal 1 0 0
    outer loop
      vertex 3 -11.5 10
      vertex 3 -19.1144 5.8
      vertex 3 -18.9 5
    endloop
  endfacet
  facet normal 1 0 0
    outer loop
      vertex 3 -11.5 10
      vertex 3 -19.7 6.38564
      vertex 3 -19.1144 5.8
    endloop
  endfacet
  facet normal 1 -0 0
    outer loop
      vertex 3 -23.5 10
      vertex 3 -19.7 6.38564
      vertex 3 -11.5 10
    endloop
  endfacet
  facet normal 1 0 0
    outer loop
      vertex 3 -19.7 6.38564
      vertex 3 -23.5 10
      vertex 3 -20.5 6.6
    endloop
  endfacet
  facet normal 1 0 0
    outer loop
      vertex 3 -21.8856 5.8
      vertex 3 -23.5 10
      vertex 3 -22.1 5
    endloop
  endfacet
  facet normal 1 0 0
    outer loop
      vertex 3 -21.3 6.38564
      vertex 3 -23.5 10
      vertex 3 -21.8856 5.8
    endloop
  endfacet
  facet normal 1 0 0
    outer loop
      vertex 3 -20.5 6.6
      vertex 3 -23.5 10
      vertex 3 -21.3 6.38564
    endloop
  endfacet
  facet normal 1 -0 0
    outer loop
      vertex 3 -19.1144 4.2
      vertex 3 -11.5 0
      vertex 3 -18.9 5
    endloop
  endfacet
  facet normal 1 -0 0
    outer loop
      vertex 3 -19.7 3.61436
      vertex 3 -11.5 0
      vertex 3 -19.1144 4.2
    endloop
  endfacet
  facet normal 1 0 0
    outer loop
      vertex 3 -23.5 0
      vertex 3 -19.7 3.61436
      vertex 3 -20.5 3.4
    endloop
  endfacet
  facet normal 1 0 0
    outer loop
      vertex 3 -23.5 0
      vertex 3 -20.5 3.4
      vertex 3 -21.3 3.61436
    endloop
  endfacet
  facet normal 1 0 0
    outer loop
      vertex 3 -23.5 0
      vertex 3 -22.1 5
      vertex 3 -23.5 10
    endloop
  endfacet
  facet normal 1 0 0
    outer loop
      vertex 3 -19.7 3.61436
      vertex 3 -23.5 0
      vertex 3 -11.5 0
    endloop
  endfacet
  facet normal 1 0 0
    outer loop
      vertex 3 -21.8856 4.2
      vertex 3 -23.5 0
      vertex 3 -21.3 3.61436
    endloop
  endfacet
  facet normal 1 0 0
    outer loop
      vertex 3 -22.1 5
      vertex 3 -23.5 0
      vertex 3 -21.8856 4.2
    endloop
  endfacet
  facet normal 0 -1 0
    outer loop
      vertex 0 -23.5 0
      vertex 3 -23.5 10
      vertex 0 -23.5 10
    endloop
  endfacet
  facet normal 0 -1 -0
    outer loop
      vertex 3 -23.5 10
      vertex 0 -23.5 0
      vertex 3 -23.5 0
    endloop
  endfacet
  facet normal 0 1 -0
    outer loop
      vertex 17 -8.5 0
      vertex 0 -8.5 10
      vertex 17 -8.5 10
    endloop
  endfacet
  facet normal 0 1 0
    outer loop
      vertex 0 -8.5 10
      vertex 17 -8.5 0
      vertex 0 -8.5 0
    endloop
  endfacet
  facet normal 0 0.965926 0.258819
    outer loop
      vertex 3 -21.8856 4.2
      vertex 0 -22.1 5
      vertex 3 -22.1 5
    endloop
  endfacet
  facet normal 0 0.965926 0.258819
    outer loop
      vertex 0 -22.1 5
      vertex 3 -21.8856 4.2
      vertex 0 -21.8856 4.2
    endloop
  endfacet
  facet normal 0 -0.258819 0.965926
    outer loop
      vertex 0 -19.7 3.61436
      vertex 3 -20.5 3.4
      vertex 3 -19.7 3.61436
    endloop
  endfacet
  facet normal 0 -0.258819 0.965926
    outer loop
      vertex 3 -20.5 3.4
      vertex 0 -19.7 3.61436
      vertex 0 -20.5 3.4
    endloop
  endfacet
  facet normal 0 -0.258819 -0.965926
    outer loop
      vertex 0 -20.5 6.6
      vertex 3 -19.7 6.38564
      vertex 3 -20.5 6.6
    endloop
  endfacet
  facet normal -0 -0.258819 -0.965926
    outer loop
      vertex 3 -19.7 6.38564
      vertex 0 -20.5 6.6
      vertex 0 -19.7 6.38564
    endloop
  endfacet
  facet normal 0 0.258819 -0.965926
    outer loop
      vertex 0 -21.3 6.38564
      vertex 3 -20.5 6.6
      vertex 3 -21.3 6.38564
    endloop
  endfacet
  facet normal 0 0.258819 -0.965926
    outer loop
      vertex 3 -20.5 6.6
      vertex 0 -21.3 6.38564
      vertex 0 -20.5 6.6
    endloop
  endfacet
  facet normal 0 -0.965926 0.258819
    outer loop
      vertex 0 -19.1144 4.2
      vertex 3 -18.9 5
      vertex 0 -18.9 5
    endloop
  endfacet
  facet normal 0 -0.965926 0.258819
    outer loop
      vertex 3 -18.9 5
      vertex 0 -19.1144 4.2
      vertex 3 -19.1144 4.2
    endloop
  endfacet
  facet normal 0 -0.707106 0.707107
    outer loop
      vertex 0 -19.1144 4.2
      vertex 3 -19.7 3.61436
      vertex 3 -19.1144 4.2
    endloop
  endfacet
  facet normal 0 -0.707106 0.707107
    outer loop
      vertex 3 -19.7 3.61436
      vertex 0 -19.1144 4.2
      vertex 0 -19.7 3.61436
    endloop
  endfacet
  facet normal -0 0.258819 0.965926
    outer loop
      vertex 0 -20.5 3.4
      vertex 3 -21.3 3.61436
      vertex 3 -20.5 3.4
    endloop
  endfacet
  facet normal 0 0.258819 0.965926
    outer loop
      vertex 3 -21.3 3.61436
      vertex 0 -20.5 3.4
      vertex 0 -21.3 3.61436
    endloop
  endfacet
  facet normal 0 -0.707106 -0.707107
    outer loop
      vertex 0 -19.7 6.38564
      vertex 3 -19.1144 5.8
      vertex 3 -19.7 6.38564
    endloop
  endfacet
  facet normal -0 -0.707106 -0.707107
    outer loop
      vertex 3 -19.1144 5.8
      vertex 0 -19.7 6.38564
      vertex 0 -19.1144 5.8
    endloop
  endfacet
  facet normal 0 0.707107 0.707106
    outer loop
      vertex 3 -21.3 3.61436
      vertex 0 -21.8856 4.2
      vertex 3 -21.8856 4.2
    endloop
  endfacet
  facet normal 0 0.707107 0.707106
    outer loop
      vertex 0 -21.8856 4.2
      vertex 3 -21.3 3.61436
      vertex 0 -21.3 3.61436
    endloop
  endfacet
  facet normal 0 -0.965926 -0.258819
    outer loop
      vertex 0 -18.9 5
      vertex 3 -19.1144 5.8
      vertex 0 -19.1144 5.8
    endloop
  endfacet
  facet normal 0 -0.965926 -0.258819
    outer loop
      vertex 3 -19.1144 5.8
      vertex 0 -18.9 5
      vertex 3 -18.9 5
    endloop
  endfacet
  facet normal 0 0.965926 -0.258819
    outer loop
      vertex 3 -22.1 5
      vertex 0 -21.8856 5.8
      vertex 3 -21.8856 5.8
    endloop
  endfacet
  facet normal 0 0.965926 -0.258819
    outer loop
      vertex 0 -21.8856 5.8
      vertex 3 -22.1 5
      vertex 0 -22.1 5
    endloop
  endfacet
  facet normal 0 0.707107 -0.707106
    outer loop
      vertex 3 -21.8856 5.8
      vertex 0 -21.3 6.38564
      vertex 3 -21.3 6.38564
    endloop
  endfacet
  facet normal 0 0.707107 -0.707106
    outer loop
      vertex 0 -21.3 6.38564
      vertex 3 -21.8856 5.8
      vertex 0 -21.8856 5.8
    endloop
  endfacet
  facet normal 0 1 -0
    outer loop
      vertex 20 11.5 0
      vertex 3 11.5 10
      vertex 20 11.5 10
    endloop
  endfacet
  facet normal 0 1 0
    outer loop
      vertex 3 11.5 10
      vertex 20 11.5 0
      vertex 3 11.5 0
    endloop
  endfacet
endsolid OpenSCAD_Model
